<svg width="120" height="120" viewBox="0 0 120 120" fill="none" xmlns="http://www.w3.org/2000/svg">
<path d="M112.951 66.4699C112.951 84.1661 104.805 99.9742 92.0493 110.337H20.913C8.15677 99.9742 0.0112305 84.1661 0.0112305 66.4699C0.0112305 35.2709 25.2822 10 56.4811 10C87.6801 10 112.951 35.2709 112.951 66.4699Z" fill="#E0E0E0"/>
<path d="M31.0562 107.966V34.1514H79.644V107.966" stroke="white" stroke-width="4.90333" stroke-miterlimit="10" stroke-linecap="round" stroke-linejoin="round"/>
<path d="M66.8661 46.3809H43.8346V62.8695H66.8661V46.3809Z" stroke="white" stroke-width="4.90333" stroke-miterlimit="10" stroke-linecap="round" stroke-linejoin="round"/>
<path d="M66.8661 95.956H52.8803H43.8346V79.4453H66.8661V95.956Z" stroke="white" stroke-width="4.90333" stroke-miterlimit="10" stroke-linecap="round" stroke-linejoin="round"/>
<path d="M39.2022 76.3058C40.8877 76.3058 42.2541 74.9395 42.2541 73.254C42.2541 71.5685 40.8877 70.2021 39.2022 70.2021C37.5167 70.2021 36.1504 71.5685 36.1504 73.254C36.1504 74.9395 37.5167 76.3058 39.2022 76.3058Z" fill="white"/>
<path d="M0.559869 109.394C-0.186623 109.35 -0.186623 108.998 0.559869 108.954C1.98699 108.867 3.43606 108.779 4.86317 108.691C7.32221 108.559 9.78124 108.427 12.2403 108.318C14.6993 108.208 17.1583 108.12 19.6174 108.032C20.8469 107.988 22.0764 107.944 23.3059 107.922C24.5354 107.879 25.7649 107.857 26.9945 107.813C31.9125 107.681 36.8306 107.593 41.7486 107.527C46.6667 107.461 51.5848 107.439 56.5028 107.439C61.4209 107.439 66.339 107.461 71.257 107.527C76.1751 107.593 81.0931 107.681 86.0112 107.813C87.2407 107.835 88.4702 107.879 89.6998 107.922C90.9293 107.966 92.1588 107.988 93.3883 108.032C95.8473 108.12 98.3064 108.208 100.765 108.318C103.224 108.427 105.683 108.537 108.142 108.691C109.592 108.779 111.019 108.867 112.468 108.954C113.214 108.998 113.214 109.35 112.468 109.394C111.019 109.481 109.592 109.569 108.142 109.657C105.683 109.789 103.224 109.92 100.765 110.03C98.3064 110.14 95.8473 110.228 93.3883 110.316C92.1588 110.36 90.9293 110.403 89.6998 110.425C88.4702 110.469 87.2407 110.491 86.0112 110.535C81.0931 110.667 76.1751 110.755 71.257 110.821C66.339 110.886 61.4209 110.908 56.5028 110.908C51.5848 110.908 46.6667 110.886 41.7486 110.821C36.8306 110.755 31.9125 110.667 26.9945 110.535C25.7649 110.513 24.5354 110.469 23.3059 110.425C22.0764 110.382 20.8469 110.36 19.6174 110.316C17.1583 110.228 14.6993 110.14 12.2403 110.03C9.78124 109.92 7.32221 109.811 4.86317 109.657C3.43606 109.569 2.00894 109.481 0.559869 109.394Z" fill="#ADADAD"/>
<path d="M113.785 101.533C114.443 97.9766 114.663 94.332 114.421 90.7313C114.399 90.2922 114.356 89.8091 114.114 89.4359C113.851 89.0407 113.411 88.7992 112.972 88.6235C111.413 88.0088 109.679 88.0307 108.076 87.5258C104.454 86.406 104.036 81.4001 103.158 78.1946C102.082 74.2206 101.028 70.0491 98.3279 66.8216C97.3399 65.6579 96.1104 64.6919 95.2541 63.4404C94.3759 62.189 93.9148 60.696 93.5855 59.203C92.839 55.8438 92.6633 52.3528 93.1025 48.9278C93.1683 48.4667 93.2342 47.9837 93.0366 47.5446C92.5316 46.4468 90.841 46.7322 89.8311 47.4128C85.0667 50.5525 84.2324 57.4685 86.0108 62.9135C86.8012 65.3067 87.9648 67.9413 86.889 70.2028C85.4399 73.2107 81.1366 73.2985 77.975 72.2446C74.8134 71.1908 71.5201 69.4563 68.3145 70.4004C65.614 71.1908 63.7039 74.045 63.9454 76.8334C64.0112 77.492 64.1649 78.1507 64.0771 78.8094C63.8356 80.3902 62.145 81.5099 62.0791 83.1127C62.0352 84.3422 63.0013 85.3961 63.0232 86.6256C63.0671 88.4699 61.0692 90.0287 61.5083 91.8071C61.8815 93.3221 63.8795 94.0685 64.121 95.6274C64.2747 96.6154 63.638 97.5156 63.2647 98.4597C61.9474 101.753 64.1649 105.617 67.2387 107.352C70.3345 109.108 74.023 109.284 77.5798 109.416C80.2365 109.525 82.915 109.613 85.5717 109.723C88.0088 109.833 90.2043 109.503 92.6414 109.218C97.9766 108.603 103.356 108.559 108.691 109.064C109.679 109.152 110.777 109.24 111.545 108.581C112.028 108.164 112.27 107.505 112.445 106.891C113.016 105.134 113.455 103.334 113.785 101.533Z" fill="#E09B6C"/>
<path d="M79.842 75.7133C81.1154 76.1743 82.4767 76.6354 83.3988 77.6454C84.3209 78.6553 84.5405 80.4118 83.5086 81.29C82.4327 82.1902 80.808 81.6413 79.4907 81.1583C75.4289 79.6433 71.0378 79.0505 66.7345 79.4238C70.2913 80.0166 73.8481 80.6313 77.4049 81.2241C78.7881 81.4656 80.1933 81.7072 81.3569 82.4537C82.5206 83.2001 83.3988 84.6053 83.0914 85.9666C82.8279 87.1741 81.6863 88.0523 80.5007 88.3817C79.315 88.711 78.0416 88.6012 76.7902 88.4915C73.3651 88.1841 69.94 87.8547 66.5369 87.5474C68.6446 88.206 70.8621 88.6012 73.0577 88.6671C74.5946 88.733 76.1534 88.6451 77.6684 88.9964C79.1614 89.3477 80.6324 90.2699 81.1813 91.7189C81.7302 93.168 80.9617 95.1001 79.4468 95.3855C78.9418 95.4733 78.4149 95.3855 77.9099 95.3197C74.2652 94.8366 70.4889 95.4294 67.1736 97.0102C70.3132 96.615 73.4309 96.2418 76.5706 95.8466C77.7782 95.6929 79.2492 95.6929 79.8639 96.7248C80.3689 97.603 79.9078 98.7667 79.1174 99.4034C78.327 100.04 77.3171 100.304 76.373 100.677C74.6165 101.335 72.9699 102.345 71.5867 103.619C72.2234 103.355 72.882 103.092 73.5188 102.828C73.2772 103.838 73.0138 104.826 72.7723 105.836C73.7383 104.365 74.9459 103.07 76.351 102.016C76.5486 103.597 76.8121 105.178 77.1414 106.737C78.7222 101.138 83.0255 96.3735 88.4486 94.2219C87.0873 92.663 86.1872 90.709 85.9017 88.6671C85.3748 84.9566 86.736 80.7631 84.6283 77.6673C83.2231 75.6035 79.7981 73.869 77.339 74.2203C77.9758 74.9668 78.854 75.34 79.842 75.7133Z" fill="#C9865B"/>
<path d="M109.614 87.7887C109.614 87.7887 113.236 96.0879 108.714 109.02L117.32 109.393C117.32 109.393 120.284 98.3274 118.33 86.6689L109.614 87.7887Z" fill="#273C5B"/>
<path d="M115.322 87.0638C115.322 87.0638 115.915 87.1296 116.09 88.0079C116.178 88.4031 116.332 88.7763 116.442 89.1496C116.683 89.9619 116.881 90.7962 117.034 91.6305C117.276 92.9479 117.408 94.2872 117.473 95.6265C117.561 97.5366 117.517 99.4248 117.364 101.335C117.276 102.521 117.144 103.706 116.99 104.892C116.837 106.099 116.749 107.439 116.332 108.58C116.266 108.778 116.134 108.954 115.98 109.107C115.937 109.151 115.519 109.459 115.475 109.349C115.475 109.349 115.761 109.876 116.156 109.942C116.551 110.007 118.154 109.942 118.154 109.942C118.154 109.942 122.172 98.7661 118.352 86.1855L116.288 86.449C116.31 86.4271 115.541 86.471 115.322 87.0638Z" fill="#314E78"/>
<path d="M113.852 106.869C114.652 106.869 115.301 106.22 115.301 105.42C115.301 104.619 114.652 103.971 113.852 103.971C113.051 103.971 112.403 104.619 112.403 105.42C112.403 106.22 113.051 106.869 113.852 106.869Z" fill="#E9B000"/>
</svg>
