<svg width="121" height="120" viewBox="0 0 121 120" fill="none" xmlns="http://www.w3.org/2000/svg">
<rect x="0.635986" width="120" height="120" rx="60" fill="white"/>
<path d="M52.7192 57.8318C52.7192 59.7602 52.7067 61.701 52.7192 63.6293C52.7192 64.3634 52.8062 65.0974 52.8933 65.8314C52.9431 66.2669 52.9555 66.7023 52.9804 67.1377C53.0177 67.7225 53.0799 68.3072 53.1297 68.8919C53.1795 69.514 53.1919 70.1485 53.279 70.7705C53.3412 71.206 53.3412 71.6414 53.3785 72.0769C53.4283 72.6243 53.4781 73.1592 53.5154 73.7066C53.5527 74.3785 53.6274 75.0378 53.6896 75.7097C53.7269 76.1575 53.7518 76.6054 53.7891 77.0408C53.8264 77.6131 53.8886 78.173 53.9259 78.7453C53.9757 79.3798 54.0255 80.0143 54.0752 80.6488C54.125 81.3081 54.2619 81.9675 54.1001 82.6269C53.9135 83.3858 53.4407 83.9208 52.7192 84.2069C51.3506 84.7419 49.9324 83.8835 49.6586 82.4901C49.5964 82.2039 49.5716 81.8929 49.5591 81.6067C49.5467 81.0469 49.4596 80.487 49.4223 79.9272C49.3974 79.2803 49.3227 78.6458 49.2605 77.9988C49.2108 77.5509 49.1983 77.103 49.161 76.6676C49.1237 76.0704 49.0615 75.4857 49.0241 74.8885C48.9868 74.2789 48.9495 73.6693 48.8749 73.0597C48.8127 72.562 48.8127 72.052 48.7504 71.5543C48.7131 71.1935 48.6758 70.8327 48.6634 70.472C48.6509 69.8872 48.5514 69.3149 48.5265 68.7426C48.5016 68.1206 48.427 67.511 48.3648 66.8889C48.3399 66.6401 48.3399 66.3913 48.3399 66.1424C48.3399 65.9931 48.2901 65.9558 48.1408 66.0056C47.7178 66.1549 47.2948 66.1673 46.8718 66.018C46.7101 65.9683 46.6479 65.9932 46.6355 66.1922C46.5857 66.8889 46.5484 67.5732 46.4613 68.2699C46.4115 68.6929 46.3991 69.1159 46.3742 69.5264C46.3369 70.0614 46.2747 70.5964 46.2373 71.1313C46.1876 71.8031 46.1627 72.4874 46.0632 73.1592C46.001 73.5947 46.001 74.0301 45.9636 74.4655C45.9263 75.0503 45.8641 75.635 45.8143 76.2197C45.7646 76.8418 45.7521 77.4638 45.6526 78.0735C45.5904 78.5089 45.578 78.9692 45.5531 79.4047C45.5158 80.0143 45.4536 80.6239 45.4038 81.2335C45.3665 81.8307 45.3789 82.4403 45.1176 83.0126C44.7817 83.7466 44.2219 84.2069 43.4132 84.3313C42.2811 84.5055 41.2858 83.9208 40.8877 82.8384C40.7508 82.4776 40.6762 82.0795 40.7633 81.6938C40.8877 81.1215 40.8628 80.5368 40.925 79.9645C41.037 78.7826 41.1241 77.6131 41.2111 76.4312C41.2485 75.8963 41.2982 75.3613 41.3355 74.8263C41.3853 74.1296 41.4226 73.4454 41.5097 72.7487C41.5719 72.3132 41.5719 71.8778 41.6093 71.4423C41.6466 70.8452 41.7088 70.2605 41.7585 69.6633C41.8083 69.0537 41.8208 68.444 41.9203 67.8344C41.9949 67.399 41.9825 66.9387 42.0198 66.5032C42.0571 65.9061 42.1318 65.2964 42.1567 64.6993C42.3682 60.3947 42.1815 56.1025 42.2438 51.7979C42.2438 51.7357 42.2562 51.6859 42.2438 51.6237C42.2313 51.5242 42.306 51.3375 42.1442 51.3375C42.0074 51.3375 41.7959 51.3375 41.7337 51.549C41.6341 51.9347 41.5346 52.3328 41.4475 52.7309C41.2858 53.4276 41.1365 54.1368 40.9748 54.8335C40.8255 55.5053 40.6886 56.1771 40.5393 56.8365C40.39 57.5083 40.2407 58.1677 40.0914 58.8395C39.9421 59.4989 39.8053 60.1583 39.656 60.8177C39.5067 61.4895 39.3574 62.1737 39.2081 62.8456C39.1335 63.169 39.0837 63.5049 38.9717 63.8284C38.698 64.5749 38.1257 65.0227 37.3668 65.0974C36.3715 65.1969 35.3389 64.4504 35.3141 63.3556C35.3016 62.7833 35.4136 62.2359 35.5504 61.6885C35.7122 61.0167 35.8366 60.3449 35.9859 59.6855C36.1352 59.0137 36.2845 58.3543 36.4338 57.6825C36.5457 57.1724 36.6577 56.6499 36.7697 56.1398C36.919 55.468 37.0683 54.7837 37.2175 54.1119C37.3295 53.6143 37.4415 53.1166 37.5535 52.619C37.6654 52.1089 37.765 51.5864 37.8894 51.0763C38.0013 50.5786 38.1133 50.081 38.2377 49.5833C38.4492 48.7498 39.0464 48.277 39.8302 48.0282C40.7384 47.7545 41.6466 47.4683 42.5672 47.2444C43.3261 47.0578 44.0975 46.8961 44.8688 46.7965C45.4162 46.7343 45.9636 46.6348 46.511 46.6099C46.7225 46.5975 46.8718 46.6597 46.934 46.8712C46.934 46.8836 46.9465 46.8961 46.9589 46.9209C47.3819 47.4559 47.2451 48.0531 47.1331 48.6503C47.0709 48.9986 47.046 49.3594 46.9963 49.7078C46.8967 50.4293 46.8096 51.1509 46.7225 51.8725C46.6728 52.2457 46.6106 52.619 46.5857 53.0046C46.5608 53.3779 46.4986 53.7635 46.424 54.1368C46.3742 54.4105 46.3742 54.6966 46.3244 54.9703C46.2125 55.5675 46.1627 56.1771 46.0881 56.7867C46.0507 57.1227 46.1503 57.4088 46.3244 57.6949C46.6603 58.2423 46.9714 58.8146 47.2948 59.3745C47.4068 59.5735 47.4566 59.5735 47.5685 59.362C47.9418 58.7151 48.3026 58.0682 48.6758 57.4212C48.8375 57.1351 48.7753 56.8489 48.738 56.5504C48.6882 56.1025 48.626 55.667 48.5763 55.2192C48.5265 54.8459 48.4767 54.4851 48.4145 54.1119C48.3648 53.8133 48.3523 53.5023 48.3026 53.2037C48.1906 52.5816 48.1533 51.9472 48.0786 51.3127C47.9915 50.6782 47.9045 50.0437 47.8174 49.3967C47.7676 49.0359 47.7303 48.6751 47.693 48.3144C47.6805 48.2397 47.7054 48.1526 47.6805 48.0904C47.4566 47.5679 47.78 47.1822 47.9915 46.7717C48.0537 46.6597 48.1533 46.6224 48.2777 46.6099C48.7629 46.5975 49.2481 46.697 49.7333 46.7592C50.2061 46.8214 50.6788 46.9085 51.1391 47.008C51.7985 47.1449 52.4703 47.2693 53.1173 47.4559C53.7269 47.6301 54.3365 47.8167 54.9461 47.9909C55.0581 48.0282 55.1949 48.0158 55.3193 48.0158C58.0191 48.0158 60.7063 48.0033 63.4061 48.0158C64.2521 48.0158 64.9612 48.3392 65.3469 49.1603C65.857 50.2178 65.2473 51.5117 64.1152 51.8103C63.8664 51.8725 63.6176 51.8974 63.3563 51.8974C60.7063 51.8974 58.0564 51.8849 55.394 51.9098C54.7097 51.9223 54.0752 51.7605 53.4283 51.549C53.2292 51.4868 53.0302 51.4246 52.8311 51.3624C52.7067 51.3127 52.6569 51.3749 52.6569 51.4868C52.6569 51.5615 52.6569 51.6361 52.6569 51.7108C52.7192 53.7387 52.7192 55.779 52.7192 57.8318Z" fill="#F9CA47"/>
<path d="M67.7357 44.8188C62.7468 44.8188 57.758 44.8188 52.7691 44.8188C52.6322 44.8188 52.458 44.881 52.3834 44.7442C52.3088 44.6073 52.4456 44.4829 52.5078 44.3709C52.7815 43.9355 52.9433 43.4503 53.1174 42.9651C53.2792 42.4799 53.3165 42.4426 53.8141 42.4426C58.7408 42.4426 63.6799 42.4426 68.6066 42.4426C73.2098 42.4426 77.8255 42.4301 82.4287 42.455C83.2249 42.455 84.0087 42.567 84.7054 43.0273C85.6633 43.6618 86.2978 44.5202 86.2978 45.7021C86.3227 49.111 86.3103 52.5199 86.3103 55.9287C86.3103 60.7808 86.2978 65.6328 86.3227 70.4724C86.3352 71.7165 85.8624 72.6744 84.892 73.4085C84.4814 73.7195 83.9962 73.8937 83.4862 74.0056C82.9387 74.1176 82.3789 74.0927 81.8315 74.0927C73.0107 74.0927 64.19 74.0927 55.3693 74.0927C54.8467 74.0927 54.7845 74.0554 54.8094 73.5204C54.8219 73.0352 54.6726 72.5749 54.6974 72.0897C54.7223 71.7289 54.7223 71.704 55.0707 71.704C56.9244 71.704 58.7906 71.704 60.6443 71.704C68.0094 71.704 75.387 71.704 82.7521 71.704C83.2498 71.704 83.5981 71.505 83.8594 71.082C83.9589 70.9203 83.9589 70.7461 83.9838 70.5843C83.9962 70.5221 83.9962 70.4724 83.9962 70.4102C83.9962 62.3235 83.9962 54.2243 83.9962 46.1376C83.9962 45.6524 83.8221 45.2667 83.3991 45.0054C83.1751 44.8686 82.9263 44.8313 82.665 44.8313C77.701 44.8188 72.7122 44.8188 67.7357 44.8188Z" fill="#F9CA47"/>
<path d="M47.1954 46.3242C46.5236 46.3367 45.6901 45.951 44.956 45.3165C44.11 44.5825 43.5129 43.6743 43.1396 42.6292C42.9157 42.0072 42.7664 41.3602 42.7913 40.6884C42.8162 39.6434 43.1272 38.6978 43.7741 37.8518C44.4335 37.0059 45.2671 36.4211 46.3121 36.1599C47.8672 35.7742 49.2855 36.0852 50.5421 37.1054C51.301 37.7274 51.7986 38.5237 52.0599 39.4692C52.3212 40.4023 52.259 41.3229 51.9977 42.2436C51.6618 43.4006 51.0646 44.3959 50.1689 45.2046C49.3975 45.9013 48.5391 46.3242 47.1954 46.3242Z" fill="#F9CA47"/>
<path d="M70.6595 54.6595C73.9812 54.6595 77.2906 54.6595 80.6123 54.6595C81.0353 54.6595 81.3837 54.7466 81.5952 55.1447C81.8813 55.6673 81.6823 56.4262 80.9856 56.5755C80.7119 56.6377 80.4382 56.6626 80.152 56.6626C73.7573 56.6626 67.3626 56.6626 60.9803 56.6626C60.6568 56.6626 60.3334 56.6252 60.0472 56.4635C59.7113 56.2769 59.562 55.9659 59.5744 55.5926C59.5869 55.1945 59.7859 54.9084 60.1467 54.7217C60.3209 54.6347 60.52 54.6595 60.7066 54.6595C62.1871 54.6595 63.6551 54.6595 65.1356 54.6595C66.952 54.6595 68.8057 54.6595 70.6595 54.6595Z" fill="#F9CA47"/>
<path d="M70.6346 58.8271C73.9564 58.8271 77.2657 58.8271 80.5875 58.8271C81.0105 58.8271 81.3588 58.9018 81.5827 59.2999C81.8813 59.8224 81.6823 60.5938 80.9731 60.7431C80.6994 60.8053 80.4133 60.8302 80.1396 60.8302C73.7573 60.8302 67.375 60.8302 60.9927 60.8302C60.6568 60.8302 60.3333 60.7928 60.0348 60.6311C59.6988 60.4445 59.5496 60.1335 59.562 59.7602C59.5744 59.3621 59.7859 59.076 60.1343 58.8894C60.2338 58.8396 60.3458 58.8396 60.4453 58.8396C61.6148 58.8396 62.7842 58.8396 63.9537 58.8396C66.1807 58.8271 68.4076 58.8271 70.6346 58.8271Z" fill="#F9CA47"/>
<path d="M66.4544 65.0111C64.5758 65.0111 62.7096 65.0111 60.831 65.0111C60.3832 65.0111 59.9477 64.924 59.6865 64.4886C59.4998 64.1775 59.4874 63.8541 59.6491 63.543C59.8109 63.2196 60.0721 63.0205 60.4578 63.0205C62.6848 63.0205 64.8993 63.0205 67.1262 63.0205C68.8556 63.0205 70.5724 63.0329 72.3017 63.0205C72.7123 63.0205 73.0233 63.1698 73.2224 63.5306C73.4836 63.9909 73.297 64.7747 72.6128 64.9364C72.3017 65.0111 71.9907 65.0235 71.6797 65.0235C69.9379 65.0111 68.1962 65.0111 66.4544 65.0111Z" fill="#F9CA47"/>
<path d="M40.5891 66.23C40.5891 66.6654 40.5891 67.0884 40.5891 67.5238C40.6016 68.4818 40.4772 69.4149 40.415 70.3728C40.3776 70.9327 40.2905 71.4925 40.2905 72.0524C40.2905 72.4878 40.1661 72.9233 40.1786 73.3587C40.191 73.5578 40.0666 73.6075 39.88 73.4956C39.2579 73.085 38.7976 72.5625 38.5115 71.8658C38.3 71.3557 38.2253 70.8083 38.2129 70.2609C38.188 69.0416 38.2129 67.8224 38.2004 66.6032C38.2004 66.3295 38.3 66.1802 38.5363 66.0558C39.3201 65.6826 39.9173 65.1227 40.2283 64.2891C40.303 64.1025 40.3403 63.9159 40.4025 63.7169C40.415 63.6671 40.4274 63.6049 40.4772 63.6049C40.5518 63.5924 40.5642 63.6671 40.5767 63.7293C40.5891 63.8164 40.5891 63.9159 40.5891 64.003C40.5891 64.7495 40.5891 65.4959 40.5891 66.23Z" fill="#F9CA47"/>
<path d="M38.188 46.5107C38.2253 45.9758 38.2378 45.391 38.4368 44.8436C38.8474 43.7364 39.6312 42.9899 40.7633 42.6291C40.9748 42.5669 41.1739 42.5296 41.3978 42.5171C41.6342 42.5047 41.771 42.5669 41.8332 42.8033C42.0074 43.4129 42.2936 43.9727 42.5921 44.5202C42.7041 44.7317 42.6668 44.7939 42.418 44.8063C42.2065 44.8187 41.9825 44.8063 41.771 44.8063C41.1614 44.8187 40.6016 45.391 40.5891 45.9882C40.5767 46.3988 40.5767 46.3863 40.191 46.5232C39.6187 46.7222 39.0091 46.8591 38.4866 47.195C38.3373 47.2821 38.2378 47.2199 38.2253 47.0581C38.2004 46.8964 38.2004 46.7222 38.188 46.5107Z" fill="#F9CA47"/>
</svg>
