<svg width="120" height="101" viewBox="0 0 120 101" fill="none" xmlns="http://www.w3.org/2000/svg">
<path d="M112.458 56.3331C112.458 73.9864 104.348 89.7562 91.6473 100.094H20.8216C8.12108 89.7562 0.0111084 73.9864 0.0111084 56.3331C0.0111084 25.2097 25.1717 0 56.2344 0C87.2972 0 112.458 25.2097 112.458 56.3331Z" fill="#E0E0E0"/>
<path d="M0.557424 99.1524C-0.185808 99.1086 -0.185808 98.7582 0.557424 98.7144C1.97831 98.6268 3.42105 98.5392 4.84194 98.4516C7.29023 98.3202 9.73853 98.1887 12.1868 98.0792C14.6351 97.9697 17.0834 97.8821 19.5317 97.7945C20.7559 97.7507 21.98 97.7069 23.2041 97.685C24.4283 97.6412 25.6524 97.6193 26.8766 97.5755C31.7732 97.4441 36.6698 97.3564 41.5664 97.2907C46.4629 97.225 51.3595 97.2031 56.2561 97.2031C61.1527 97.2031 66.0493 97.225 70.9459 97.2907C75.8425 97.3564 80.7391 97.4441 85.6357 97.5755C86.8598 97.5974 88.0839 97.6412 89.3081 97.685C90.5322 97.7288 91.7564 97.7507 92.9805 97.7945C95.4288 97.8821 97.8771 97.9697 100.325 98.0792C102.774 98.1887 105.222 98.2982 107.67 98.4516C109.113 98.5392 110.534 98.6268 111.977 98.7144C112.72 98.7582 112.72 99.1086 111.977 99.1524C110.534 99.2401 109.113 99.3277 107.67 99.4153C105.222 99.5467 102.774 99.6781 100.325 99.7876C97.8771 99.8971 95.4288 99.9847 92.9805 100.072C91.7564 100.116 90.5322 100.16 89.3081 100.182C88.0839 100.226 86.8598 100.248 85.6357 100.291C80.7391 100.423 75.8425 100.51 70.9459 100.576C66.0493 100.642 61.1527 100.664 56.2561 100.664C51.3595 100.664 46.4629 100.642 41.5664 100.576C36.6698 100.51 31.7732 100.423 26.8766 100.291C25.6524 100.269 24.4283 100.226 23.2041 100.182C21.98 100.138 20.7559 100.116 19.5317 100.072C17.0834 99.9847 14.6351 99.8971 12.1868 99.7876C9.73853 99.6781 7.29023 99.5686 4.84194 99.4153C3.42105 99.3277 2.00017 99.2401 0.557424 99.1524Z" fill="#ADADAD"/>
<path d="M47.643 80.9736L18.4165 50.9672L30.5268 39.1399L47.8398 56.9028L80.1485 24.75L92.0621 36.7525L47.643 80.9736Z" stroke="white" stroke-width="4.95117" stroke-miterlimit="10" stroke-linecap="round" stroke-linejoin="round"/>
<path d="M94.4901 94.4763C94.4943 93.315 89.3008 92.3547 82.8902 92.3313C76.4795 92.3079 71.2792 93.2303 71.275 94.3915C71.2708 95.5528 76.4642 96.5131 82.8749 96.5365C89.2855 96.56 94.4858 95.6376 94.4901 94.4763Z" fill="#FFCA00"/>
<path d="M82.8591 96.5471C76.6728 96.5252 71.645 95.6272 71.2734 94.5321C71.2297 94.7292 71.2516 94.9482 71.2516 95.1673C71.2516 95.7586 71.2516 96.3719 71.2516 96.9633C71.2516 98.1241 76.4542 99.0878 82.8591 99.1097C89.264 99.1316 94.4885 98.2117 94.4885 97.0509V94.4883C94.4885 95.6491 89.2859 96.569 82.8591 96.5471Z" fill="#E9B000"/>
<path d="M94.4779 91.0554C94.4821 89.8942 89.2886 88.9338 82.878 88.9104C76.4673 88.887 71.267 89.8094 71.2628 90.9706C71.2586 92.1319 76.452 93.0922 82.8627 93.1156C89.2733 93.1391 94.4736 92.2167 94.4779 91.0554Z" fill="#FFCA00"/>
<path d="M82.8812 93.1077C76.6949 93.0858 71.6671 92.1878 71.2955 91.0926C71.2518 91.2898 71.2737 91.5088 71.2737 91.7278C71.2737 92.3192 71.2737 92.9324 71.2737 93.5238C71.2737 94.6846 76.4763 95.6483 82.8812 95.6702C89.2861 95.6921 94.5106 94.7722 94.5106 93.6114V91.0488C94.4887 92.2097 89.2861 93.1296 82.8812 93.1077Z" fill="#E9B000"/>
<path d="M94.4991 87.5564C94.5033 86.3951 89.3099 85.4348 82.8992 85.4113C76.4885 85.3879 71.2882 86.3103 71.284 87.4716C71.2798 88.6328 76.4732 89.5932 82.8839 89.6166C89.2946 89.64 94.4949 88.7176 94.4991 87.5564Z" fill="#FFCA00"/>
<path d="M82.8812 89.6252C76.6949 89.6033 71.6671 88.7053 71.2955 87.6102C71.2518 87.8073 71.2737 88.0264 71.2737 88.2454C71.2737 88.8367 71.2737 89.45 71.2737 90.0414C71.2737 91.2022 76.4763 92.1659 82.8812 92.1878C89.2861 92.2097 94.5106 91.2898 94.5106 90.129V87.5664C94.4887 88.7272 89.2861 89.6471 82.8812 89.6252Z" fill="#E9B000"/>
<path d="M94.4893 83.9802C94.4936 82.819 89.3001 81.8586 82.8894 81.8352C76.4788 81.8118 71.2785 82.7342 71.2743 83.8954C71.27 85.0567 76.4635 86.017 82.8741 86.0404C89.2848 86.0639 94.4851 85.1415 94.4893 83.9802Z" fill="#FFCA00"/>
<path d="M82.8812 86.0334C76.6949 86.0115 71.6671 85.1135 71.2955 84.0184C71.2518 84.2155 71.2737 84.4346 71.2737 84.6536C71.2737 85.245 71.2737 85.8582 71.2737 86.4496C71.2737 87.6104 76.4763 88.5741 82.8812 88.596C89.2861 88.6179 94.5106 87.698 94.5106 86.5372V83.9746C94.4887 85.1354 89.2861 86.0553 82.8812 86.0334Z" fill="#E9B000"/>
<path d="M94.4893 80.4822C94.4936 79.3209 89.3001 78.3605 82.8894 78.3371C76.4788 78.3137 71.2785 79.2361 71.2743 80.3974C71.27 81.5586 76.4635 82.519 82.8741 82.5424C89.2848 82.5658 94.4851 81.6434 94.4893 80.4822Z" fill="#FFCA00"/>
<path d="M82.882 82.5305C76.6957 82.5086 71.668 81.6106 71.2964 80.5155C71.2526 80.7126 71.2745 80.9316 71.2745 81.1507C71.2745 81.742 71.2745 82.3553 71.2745 82.9467C71.2745 84.1075 76.4771 85.0712 82.882 85.0931C89.287 85.115 94.5114 84.1951 94.5114 83.0343V80.4717C94.4896 81.6325 89.287 82.5524 82.882 82.5305Z" fill="#E9B000"/>
<path d="M94.4982 77.0593C94.5025 75.8981 89.309 74.9377 82.8984 74.9143C76.4877 74.8909 71.2874 75.8133 71.2832 76.9745C71.2789 78.1358 76.4724 79.0961 82.8831 79.1195C89.2937 79.143 94.494 78.2206 94.4982 77.0593Z" fill="#FFCA00"/>
<path d="M82.8812 79.1116C76.6949 79.0897 71.6671 78.1917 71.2955 77.0965C71.2518 77.2937 71.2737 77.5127 71.2737 77.7317C71.2737 78.3231 71.2737 78.9363 71.2737 79.5277C71.2737 80.6885 76.4763 81.6522 82.8812 81.6741C89.2861 81.6961 94.5106 80.7762 94.5106 79.6153V77.0527C94.5106 78.2136 89.308 79.1335 82.8812 79.1116Z" fill="#E9B000"/>
<path d="M94.5073 73.616C94.5115 72.4547 89.3181 71.4943 82.9074 71.4709C76.4967 71.4475 71.2964 72.3699 71.2922 73.5312C71.288 74.6924 76.4814 75.6528 82.8921 75.6762C89.3028 75.6996 94.5031 74.7772 94.5073 73.616Z" fill="#FFCA00"/>
<path d="M82.8812 75.6946C76.6949 75.6727 71.6671 74.7747 71.2955 73.6795C71.2518 73.8767 71.2737 74.0957 71.2737 74.3147C71.2737 74.9061 71.2737 75.5193 71.2737 76.1107C71.2737 77.2715 76.4763 78.2352 82.8812 78.2572C89.2861 78.2791 94.5106 77.3592 94.5106 76.1983V73.6357C94.5106 74.7966 89.308 75.7165 82.8812 75.6946Z" fill="#E9B000"/>
<path d="M94.5065 70.1169C94.5108 68.9557 89.3173 67.9953 82.9067 67.9719C76.496 67.9485 71.2957 68.8709 71.2915 70.0321C71.2872 71.1934 76.4807 72.1537 82.8914 72.1772C89.302 72.2006 94.5023 71.2782 94.5065 70.1169Z" fill="#FFCA00"/>
<path d="M82.8812 72.1897C76.6949 72.1678 71.6671 71.2698 71.2955 70.1747C71.2518 70.3718 71.2737 70.5908 71.2737 70.8098C71.2737 71.4012 71.2737 72.0145 71.2737 72.6058C71.2737 73.7667 76.4763 74.7304 82.8812 74.7523C89.2861 74.7742 94.5106 73.8543 94.5106 72.6934V70.1309C94.5106 71.2917 89.308 72.2116 82.8812 72.1897Z" fill="#E9B000"/>
<path d="M94.4967 66.5408C94.5009 65.3795 89.3074 64.4191 82.8968 64.3957C76.4861 64.3723 71.2858 65.2947 71.2816 66.456C71.2774 67.6172 76.4708 68.5776 82.8815 68.601C89.2921 68.6244 94.4924 67.702 94.4967 66.5408Z" fill="#FFCA00"/>
<path d="M82.8812 68.5979C76.6949 68.576 71.6671 67.678 71.2955 66.5829C71.2518 66.78 71.2737 66.999 71.2737 67.218C71.2737 67.8094 71.2737 68.4227 71.2737 69.014C71.2737 70.1749 76.4763 71.1386 82.8812 71.1605C89.2861 71.1824 94.5106 70.2625 94.5106 69.1016V66.5391C94.5106 67.6999 89.308 68.6198 82.8812 68.5979Z" fill="#E9B000"/>
<path d="M94.518 63.0427C94.5222 61.8815 89.3288 60.9211 82.9181 60.8977C76.5075 60.8743 71.3072 61.7967 71.3029 62.9579C71.2987 64.1192 76.4922 65.0795 82.9028 65.1029C89.3135 65.1264 94.5138 64.204 94.518 63.0427Z" fill="#FFCA00"/>
<path d="M82.9034 65.095C76.7171 65.0731 71.6893 64.1751 71.3177 63.0799C71.274 63.2771 71.2959 63.4961 71.2959 63.7151C71.2959 64.3065 71.2959 64.9197 71.2959 65.5111C71.2959 66.6719 76.4985 67.6356 82.9034 67.6575C89.3083 67.6795 94.5328 66.7595 94.5328 65.5987V63.0361C94.5109 64.197 89.3083 65.1388 82.9034 65.095Z" fill="#E9B000"/>
<path d="M94.4794 59.6179C94.4837 58.4567 89.2902 57.4963 82.8796 57.4729C76.4689 57.4495 71.2686 58.3719 71.2644 59.5331C71.2601 60.6944 76.4536 61.6547 82.8643 61.6781C89.2749 61.7016 94.4752 60.7792 94.4794 59.6179Z" fill="#FFCA00"/>
<path d="M82.8591 61.678C76.6728 61.6561 71.645 60.7581 71.2734 59.6629C71.2297 59.8601 71.2516 60.0791 71.2516 60.2981C71.2516 60.8895 71.2516 61.5027 71.2516 62.0941C71.2516 63.2549 76.4542 64.2186 82.8591 64.2405C89.264 64.2625 94.4885 63.3426 94.4885 62.1817V59.6191C94.4885 60.78 89.2859 61.6999 82.8591 61.678Z" fill="#E9B000"/>
<path d="M94.4892 56.197C94.4934 55.0358 89.3 54.0754 82.8893 54.052C76.4786 54.0286 71.2784 54.951 71.2741 56.1122C71.2699 57.2735 76.4633 58.2338 82.874 58.2572C89.2847 58.2807 94.485 57.3583 94.4892 56.197Z" fill="#FFCA00"/>
<path d="M82.8811 58.261C76.6948 58.2391 71.667 57.3411 71.2954 56.2459C71.2517 56.4431 71.2735 56.6621 71.2735 56.8811C71.2735 57.4725 71.2735 58.0858 71.2735 58.6771C71.2735 59.8379 76.4762 60.8017 82.8811 60.8236C89.286 60.8455 94.5105 59.9256 94.5105 58.7647V56.2021C94.4886 57.363 89.286 58.2829 82.8811 58.261Z" fill="#E9B000"/>
<path d="M94.4892 52.698C94.4934 51.5367 89.3 50.5764 82.8893 50.5529C76.4786 50.5295 71.2784 51.4519 71.2741 52.6132C71.2699 53.7744 76.4633 54.7348 82.874 54.7582C89.2847 54.7816 94.485 53.8592 94.4892 52.698Z" fill="#FFCA00"/>
<path d="M82.8819 54.7561C76.6956 54.7342 71.6679 53.8362 71.2962 52.7411C71.2525 52.9382 71.2744 53.1572 71.2744 53.3762C71.2744 53.9676 71.2744 54.5809 71.2744 55.1722C71.2744 56.3331 76.477 57.2968 82.8819 57.3187C89.2868 57.3406 94.5113 56.4207 94.5113 55.2598V52.6973C94.4895 53.8581 89.2868 54.778 82.8819 54.7561Z" fill="#E9B000"/>
<path d="M94.5 49.1199C94.5042 47.9586 89.3107 46.9982 82.9001 46.9748C76.4894 46.9514 71.2891 47.8738 71.2849 49.0351C71.2806 50.1963 76.4741 51.1567 82.8848 51.1801C89.2954 51.2035 94.4957 50.2811 94.5 49.1199Z" fill="#FFCA00"/>
<path d="M82.8812 51.1848C76.6949 51.1629 71.6671 50.2649 71.2955 49.1698C71.2518 49.3669 71.2737 49.5859 71.2737 49.805C71.2737 50.3963 71.2737 51.0096 71.2737 51.601C71.2737 52.7618 76.4763 53.7255 82.8812 53.7474C89.2861 53.7693 94.5106 52.8494 94.5106 51.6886V49.126C94.4887 50.2868 89.2861 51.2067 82.8812 51.1848Z" fill="#E9B000"/>
<path d="M94.5003 45.6228C94.5045 44.4615 89.3111 43.5012 82.9004 43.4778C76.4898 43.4543 71.2895 44.3767 71.2852 45.538C71.281 46.6992 76.4745 47.6596 82.8851 47.683C89.2958 47.7064 94.4961 46.784 94.5003 45.6228Z" fill="#FFCA00"/>
<path d="M82.8816 47.6809C76.6952 47.659 71.6675 46.761 71.2959 45.6659C71.2522 45.863 71.274 46.082 71.274 46.301C71.274 46.8924 71.274 47.5057 71.274 48.097C71.274 49.2579 76.4766 50.2216 82.8816 50.2435C89.2865 50.2654 94.511 49.3455 94.511 48.1847V45.6221C94.4891 46.7829 89.2865 47.7028 82.8816 47.6809Z" fill="#E9B000"/>
<path d="M70.4301 94.3249C70.4344 93.1637 65.2409 92.2033 58.8302 92.1799C52.4196 92.1565 47.2193 93.0789 47.215 94.2401C47.2108 95.4014 52.4043 96.3618 58.8149 96.3852C65.2256 96.4086 70.4259 95.4862 70.4301 94.3249Z" fill="#FFCA00"/>
<path d="M58.8138 96.3928C52.6275 96.3709 47.5997 95.4729 47.2281 94.3778C47.1844 94.5749 47.2063 94.7939 47.2063 95.013C47.2063 95.6043 47.2063 96.2176 47.2063 96.809C47.2063 97.9698 52.4089 98.9335 58.8138 98.9554C65.2187 98.9773 70.4432 98.0574 70.4432 96.8966V94.334C70.4214 95.4948 65.2187 96.4147 58.8138 96.3928Z" fill="#E9B000"/>
<path d="M119.962 94.4812C119.967 93.3199 114.773 92.3596 108.362 92.3362C101.952 92.3127 96.7515 93.2351 96.7473 94.3964C96.743 95.5576 101.936 96.518 108.347 96.5414C114.758 96.5648 119.958 95.6424 119.962 94.4812Z" fill="#FFCA00"/>
<path d="M108.348 96.5471C102.162 96.5252 97.1344 95.6272 96.7628 94.5321C96.7191 94.7292 96.7409 94.9482 96.7409 95.1673C96.7409 95.7586 96.7409 96.3719 96.7409 96.9633C96.7409 98.1241 101.944 99.0878 108.348 99.1097C114.753 99.1316 119.978 98.2117 119.978 97.0509V94.4883C119.956 95.6491 114.753 96.569 108.348 96.5471Z" fill="#E9B000"/>
<path d="M119.95 91.0603C119.954 89.899 114.761 88.9387 108.35 88.9153C101.939 88.8918 96.7392 89.8142 96.7349 90.9755C96.7307 92.1367 101.924 93.0971 108.335 93.1205C114.746 93.1439 119.946 92.2215 119.95 91.0603Z" fill="#FFCA00"/>
<path d="M108.348 93.1077C102.162 93.0858 97.1344 92.1878 96.7628 91.0926C96.7191 91.2898 96.7409 91.5088 96.7409 91.7278C96.7409 92.3192 96.7409 92.9324 96.7409 93.5238C96.7409 94.6846 101.944 95.6483 108.348 95.6702C114.753 95.6921 119.978 94.7722 119.978 93.6114V91.0488C119.956 92.2097 114.753 93.1296 108.348 93.1077Z" fill="#E9B000"/>
<path d="M119.971 87.5603C119.975 86.399 114.782 85.4387 108.371 85.4153C101.961 85.3918 96.7604 86.3142 96.7562 87.4755C96.752 88.6367 101.945 89.5971 108.356 89.6205C114.767 89.6439 119.967 88.7215 119.971 87.5603Z" fill="#FFCA00"/>
<path d="M108.348 89.6243C102.162 89.6024 97.1344 88.7044 96.7628 87.6092C96.7191 87.8064 96.7409 88.0254 96.7409 88.2444C96.7409 88.8358 96.7409 89.449 96.7409 90.0404C96.7409 91.2012 101.944 92.1649 108.348 92.1868C114.753 92.2087 119.978 91.2888 119.978 90.128V87.5654C119.956 88.7263 114.753 89.6462 108.348 89.6243Z" fill="#E9B000"/>
<path d="M119.961 83.9851C119.966 82.8238 114.772 81.8635 108.362 81.8401C101.951 81.8166 96.7506 82.739 96.7464 83.9003C96.7422 85.0615 101.936 86.0219 108.346 86.0453C114.757 86.0687 119.957 85.1463 119.961 83.9851Z" fill="#FFCA00"/>
<path d="M108.348 86.0344C102.162 86.0125 97.1344 85.1145 96.7628 84.0194C96.7191 84.2165 96.7409 84.4355 96.7409 84.6546C96.7409 85.2459 96.7409 85.8592 96.7409 86.4506C96.7409 87.6114 101.944 88.5751 108.348 88.597C114.753 88.6189 119.978 87.699 119.978 86.5382V83.9756C119.978 85.1364 114.775 86.0563 108.348 86.0344Z" fill="#E9B000"/>
<path d="M119.961 80.4646C119.965 79.3033 114.771 78.343 108.361 78.3196C101.95 78.2961 96.7498 79.2185 96.7456 80.3798C96.7413 81.541 101.935 82.5014 108.345 82.5248C114.756 82.5482 119.956 81.6258 119.961 80.4646Z" fill="#FFCA00"/>
<path d="M108.348 82.5305C102.162 82.5086 97.1344 81.6106 96.7628 80.5155C96.7191 80.7126 96.7409 80.9316 96.7409 81.1507C96.7409 81.742 96.7409 82.3553 96.7409 82.9467C96.7409 84.1075 101.944 85.0712 108.348 85.0931C114.753 85.115 119.956 84.1951 119.978 83.0343V80.4717C119.978 81.6325 114.775 82.5524 108.348 82.5305Z" fill="#E9B000"/>
<path d="M119.97 77.0427C119.974 75.8815 114.78 74.9211 108.37 74.8977C101.959 74.8743 96.7588 75.7967 96.7546 76.9579C96.7504 78.1192 101.944 79.0795 108.354 79.1029C114.765 79.1264 119.965 78.204 119.97 77.0427Z" fill="#FFCA00"/>
<path d="M108.348 79.1125C102.162 79.0906 97.1344 78.1926 96.7628 77.0975C96.7191 77.2946 96.7409 77.5137 96.7409 77.7327C96.7409 78.3241 96.7409 78.9373 96.7409 79.5287C96.7409 80.6895 101.944 81.6532 108.348 81.6751C114.753 81.697 119.978 80.7771 119.978 79.6163V77.0537C119.978 78.2145 114.775 79.1344 108.348 79.1125Z" fill="#E9B000"/>
<path d="M119.979 73.6218C119.984 72.4606 114.79 71.5002 108.38 71.4768C101.969 71.4534 96.7686 72.3758 96.7644 73.537C96.7601 74.6983 101.954 75.6586 108.364 75.682C114.775 75.7055 119.975 74.7831 119.979 73.6218Z" fill="#FFCA00"/>
<path d="M108.348 75.6955C102.162 75.6736 97.1344 74.7756 96.7628 73.6805C96.7191 73.8776 96.7409 74.0967 96.7409 74.3157C96.7409 74.9071 96.7409 75.5203 96.7409 76.1117C96.7409 77.2725 101.944 78.2362 108.348 78.2581C114.753 78.28 119.978 77.3601 119.978 76.1993V73.6367C119.978 74.7975 114.775 75.7174 108.348 75.6955Z" fill="#E9B000"/>
<path d="M119.979 70.1228C119.983 68.9615 114.789 68.0012 108.379 67.9778C101.968 67.9543 96.7679 68.8767 96.7636 70.038C96.7594 71.1992 101.953 72.1596 108.364 72.183C114.774 72.2064 119.974 71.284 119.979 70.1228Z" fill="#FFCA00"/>
<path d="M108.371 72.1907C102.184 72.1688 97.1565 71.2708 96.7849 70.1756C96.7412 70.3728 96.763 70.5918 96.763 70.8108C96.763 71.4022 96.763 72.0154 96.763 72.6068C96.763 73.7676 101.966 74.7313 108.371 74.7532C114.775 74.7751 119.978 73.8552 120 72.6944V70.1318C119.978 71.2927 114.775 72.2126 108.371 72.1907Z" fill="#E9B000"/>
<path d="M119.969 66.5456C119.973 65.3844 114.78 64.424 108.369 64.4006C101.958 64.3772 96.7581 65.2996 96.7539 66.4608C96.7496 67.6221 101.943 68.5825 108.354 68.6059C114.764 68.6293 119.965 67.7069 119.969 66.5456Z" fill="#FFCA00"/>
<path d="M108.371 68.5979C102.184 68.576 97.1566 67.678 96.785 66.5829C96.7413 66.78 96.7632 66.999 96.7632 67.218C96.7632 67.8094 96.7632 68.4227 96.7632 69.014C96.7632 70.1749 101.966 71.1386 108.371 71.1605C114.776 71.1824 120 70.2625 120 69.1016V66.5391C119.978 67.6999 114.776 68.6198 108.371 68.5979Z" fill="#E9B000"/>
<path d="M119.99 63.0476C119.994 61.8863 114.801 60.926 108.39 60.9026C101.98 60.8791 96.7792 61.8015 96.775 62.9628C96.7708 64.124 101.964 65.0844 108.375 65.1078C114.786 65.1312 119.986 64.2088 119.99 63.0476Z" fill="#FFCA00"/>
<path d="M108.37 65.095C102.184 65.0731 97.1564 64.1751 96.7848 63.0799C96.7411 63.2771 96.7629 63.4961 96.7629 63.7151C96.7629 64.3065 96.7629 64.9197 96.7629 65.5111C96.7629 66.6719 101.966 67.6356 108.37 67.6575C114.775 67.6795 120 66.7595 120 65.5987V63.0361C119.978 64.197 114.775 65.1388 108.37 65.095Z" fill="#E9B000"/>
<path d="M61.2438 88.0039C66.5826 85.2074 70.5841 82.3147 70.1813 81.5429C69.7786 80.771 65.1242 82.4124 59.7855 85.2089C54.4467 88.0054 50.4452 90.8981 50.848 91.67C51.2507 92.4418 55.9051 90.8005 61.2438 88.0039Z" fill="#FFCA00"/>
<path d="M61.2624 88.0028C56.1253 90.6968 51.6222 92.3176 50.9446 91.7481C50.9664 91.9014 51.0757 92.0328 51.1413 92.1862C51.3381 92.5804 51.5567 92.9746 51.7753 93.3908C52.1687 94.1574 56.8249 92.5147 62.1586 89.7331C67.4924 86.9296 71.4928 84.0385 71.0993 83.2719L70.203 81.5635C70.5965 82.3301 66.5962 85.1993 61.2624 88.0028Z" fill="#E9B000"/>
</svg>
