<svg width="121" height="120" viewBox="0 0 121 120" fill="none" xmlns="http://www.w3.org/2000/svg">
<rect x="0.635986" width="120" height="120" rx="60" fill="white"/>
<path d="M75.5737 40.1838C75.4524 37.8554 73.5364 36 71.1716 36H55.3216H52.3384H50.5679C48.5912 36 46.9176 37.2976 46.3598 39.0924C46.3355 39.1773 46.3113 39.2622 46.287 39.347C46.2385 39.529 46.2021 39.723 46.19 39.9291C46.1779 40.014 46.1779 40.0989 46.1658 40.1717C46.1658 40.2444 46.1658 40.3172 46.1658 40.4021V48.9152V50.7343V79.4753C46.1658 79.548 46.1658 79.6329 46.1658 79.7057C46.287 82.034 48.2031 83.8895 50.5679 83.8895H66.4178H69.4011H71.1716C73.1483 83.8895 74.8218 82.5919 75.3797 80.7971C75.4039 80.7122 75.4282 80.6273 75.4524 80.5424C75.501 80.3605 75.5373 80.1665 75.5495 79.9603C75.5616 79.8754 75.5616 79.7906 75.5737 79.7178C75.5737 79.645 75.5737 79.5723 75.5737 79.4874V70.9742V69.1552V40.4142C75.5737 40.3293 75.5737 40.2566 75.5737 40.1838ZM56.8496 37.9282H57.2377H64.8777C65.0839 37.9282 65.2415 38.0858 65.2415 38.292C65.2415 38.3526 65.2294 38.4133 65.2051 38.4618C65.193 38.486 65.1809 38.4982 65.1688 38.5103C65.1566 38.5224 65.1445 38.5345 65.1324 38.5467L65.1202 38.5588C65.1081 38.5709 65.096 38.5831 65.0839 38.5831C65.0717 38.5831 65.0717 38.5952 65.0596 38.5952C65.0475 38.6073 65.0354 38.6073 65.0232 38.6073C65.0111 38.6073 64.999 38.6194 64.9869 38.6194C64.9747 38.6194 64.9747 38.6316 64.9626 38.6316C64.9383 38.6316 64.9141 38.6437 64.8898 38.6437H56.8618C56.6556 38.6437 56.498 38.486 56.498 38.2799C56.498 38.0737 56.6435 37.9282 56.8496 37.9282ZM65.2173 81.7309C65.1566 81.8643 65.0354 81.9492 64.8777 81.9492H64.4896H56.8375C56.6314 81.9492 56.4737 81.7915 56.4737 81.5854C56.4737 81.4034 56.6071 81.2579 56.7769 81.2337C56.8011 81.2337 56.8133 81.2337 56.8375 81.2337H64.8656C65.0111 81.2337 65.1445 81.3307 65.2051 81.452C65.2294 81.5005 65.2294 81.549 65.2294 81.5975C65.2294 81.646 65.2415 81.6945 65.2173 81.7309ZM73.7668 69.7737V77.3652C73.7668 78.0564 73.4151 78.6749 72.8815 79.0266C72.5662 79.2448 72.1782 79.3661 71.7537 79.3661H49.9736C48.858 79.3661 47.9606 78.4687 47.9606 77.353V52.1168V50.1158V42.5243C47.9606 41.8816 48.2637 41.2995 48.7367 40.9357C49.0762 40.6689 49.5007 40.5112 49.9615 40.5112H71.7416C72.8573 40.5112 73.7547 41.4086 73.7547 42.5243V67.7606V69.7737H73.7668Z" fill="#F9CA47"/>
<path d="M57.2617 53.1141C56.619 52.532 56.0612 52.0348 55.5155 51.5376C55.3214 51.3557 55.1516 51.4649 54.9576 51.5134C54.3755 51.6346 53.7328 51.3557 53.4539 50.8464C53.1871 50.3856 53.2598 49.8398 53.6236 49.4275C54.0481 48.9667 54.7272 48.8333 55.3214 49.1001C55.855 49.3426 56.1339 49.8398 56.0612 50.4098C56.049 50.4826 56.049 50.5796 56.0127 50.6281C55.661 51.0404 55.9278 51.283 56.2431 51.5376C56.7524 51.9621 57.2375 52.4108 57.7347 52.8716C57.8802 53.005 58.05 53.1141 58.2319 53.1869C58.5351 53.3203 58.6927 53.5749 58.6321 53.8902C58.5715 54.2419 58.341 54.4845 57.9651 54.4845C56.9101 54.4966 55.855 54.4966 54.8121 54.4845C54.3876 54.4845 54.0966 54.157 54.1209 53.769C54.133 53.3809 54.424 53.102 54.8606 53.102C55.6246 53.102 56.3765 53.1141 57.2617 53.1141Z" fill="#F9CA47"/>
<path d="M64.5624 53.1126C65.3142 53.1126 66.0661 53.1126 66.818 53.1126C67.3516 53.1126 67.6669 53.3794 67.679 53.8039C67.679 54.2283 67.3637 54.4951 66.8301 54.4951C65.8842 54.4951 64.9383 54.4951 63.9924 54.4951C63.6165 54.4951 63.3133 54.3739 63.2041 53.9979C63.0829 53.5856 63.3133 53.3794 63.6286 53.1248C64.4168 52.5063 65.0596 51.7302 65.7872 51.0268C65.8963 50.9177 65.7993 50.8085 65.7629 50.6872C65.5689 50.1173 65.7023 49.6322 66.1389 49.2684C66.5997 48.8803 67.2424 48.8197 67.7881 49.1229C68.2611 49.3897 68.4915 49.8384 68.443 50.3962C68.3702 51.1359 67.5092 51.7059 66.7331 51.4391C66.2965 51.2936 66.0782 51.4027 65.7872 51.7059C65.3749 52.1425 64.9019 52.5306 64.4532 52.9307C64.4896 53.0035 64.526 53.052 64.5624 53.1126Z" fill="#F9CA47"/>
<path d="M60.8147 54.6892C59.7839 54.6892 58.9471 53.9131 58.9471 52.9672C58.9471 52.0455 59.8203 51.2451 60.8268 51.2451C61.8455 51.2451 62.6701 52.0212 62.6701 52.9793C62.6823 53.9616 61.8819 54.6892 60.8147 54.6892Z" fill="#F9CA47"/>
<path d="M56.703 61.2251C56.703 61.4798 56.703 61.7345 56.703 61.977C56.703 62.9714 56.703 63.9658 56.7151 64.9481C56.7151 66.1002 57.4913 67.0097 58.5827 67.1795V64.8026C58.5827 64.4509 58.5948 64.0871 58.6069 63.7354C58.6433 62.7289 59.189 61.9528 60.0379 61.686C60.4381 61.5647 60.8626 61.6011 61.287 61.6132C62.4755 61.6253 63.3122 62.4621 63.3365 63.6627C63.3365 63.978 63.3244 64.2933 63.3244 64.6207V64.8147V67.2159C64.4643 67.0825 65.2525 66.1729 65.2647 64.9966C65.2647 63.978 65.2647 62.9472 65.2647 61.9285C65.2647 61.7345 65.2647 61.5404 65.2647 61.3464C65.2647 61.0917 65.2647 60.8371 65.2647 60.5945C65.2647 59.6001 65.2647 58.6057 65.2525 57.6234C65.2525 56.3622 64.3188 55.3921 63.0454 55.3678C61.6629 55.3435 60.2926 55.3435 58.9222 55.3678C57.6368 55.3921 56.7151 56.338 56.7151 57.6113C56.7151 58.63 56.7151 59.6608 56.7151 60.6794" fill="#F9CA47"/>
<path d="M62.3785 67.2167C62.3785 67.9807 62.3785 68.7568 62.3663 69.5208C62.3542 70.3212 61.7357 70.9276 60.996 70.9276C60.2199 70.9397 59.6135 70.3334 59.5893 69.5087C59.5771 68.7447 59.5771 67.9807 59.5771 67.2046C59.5771 67.0227 59.5771 66.8529 59.5771 66.671C59.5771 65.7494 59.5529 64.8156 59.5893 63.8939C59.6256 62.8753 60.5715 62.2083 61.4568 62.5721C62.0389 62.8146 62.3663 63.2876 62.3663 63.9061C62.3663 65.0217 62.3785 66.1253 62.3785 67.2167Z" fill="#F9CA47"/>
</svg>
