<svg width="120" height="120" viewBox="0 0 120 120" fill="none" xmlns="http://www.w3.org/2000/svg">
<path d="M110.15 66.0698C110.15 83.3272 102.207 98.7433 89.7667 108.849H20.3943C7.95432 98.7433 0.0107422 83.3272 0.0107422 66.0698C0.0107422 35.6444 24.6551 11 55.0805 11C85.5059 11 110.15 35.6444 110.15 66.0698Z" fill="#E0E0E0"/>
<path d="M0.545987 107.929C-0.181996 107.886 -0.181996 107.544 0.545987 107.501C1.93772 107.415 3.35086 107.33 4.74259 107.244C7.14065 107.115 9.53872 106.987 11.9368 106.88C14.3348 106.773 16.7329 106.687 19.131 106.602C20.33 106.559 21.529 106.516 22.7281 106.494C23.9271 106.452 25.1261 106.43 26.3251 106.387C31.1213 106.259 35.9174 106.173 40.7135 106.109C45.5096 106.045 50.3057 106.023 55.1019 106.023C59.898 106.023 64.6941 106.045 69.4902 106.109C74.2864 106.173 79.0825 106.259 83.8786 106.387C85.0776 106.409 86.2767 106.452 87.4757 106.494C88.6747 106.537 89.8737 106.559 91.0728 106.602C93.4708 106.687 95.8689 106.773 98.267 106.88C100.665 106.987 103.063 107.094 105.461 107.244C106.874 107.33 108.266 107.415 109.679 107.501C110.407 107.544 110.407 107.886 109.679 107.929C108.266 108.015 106.874 108.1 105.461 108.186C103.063 108.314 100.665 108.443 98.267 108.55C95.8689 108.657 93.4708 108.743 91.0728 108.828C89.8737 108.871 88.6747 108.914 87.4757 108.935C86.2767 108.978 85.0776 109 83.8786 109.042C79.0825 109.171 74.2864 109.257 69.4902 109.321C64.6941 109.385 59.898 109.406 55.1019 109.406C50.3057 109.406 45.5096 109.385 40.7135 109.321C35.9174 109.257 31.1213 109.171 26.3251 109.042C25.1261 109.021 23.9271 108.978 22.7281 108.935C21.529 108.893 20.33 108.871 19.131 108.828C16.7329 108.743 14.3348 108.657 11.9368 108.55C9.53872 108.443 7.14065 108.336 4.74259 108.186C3.35086 108.1 1.95913 108.015 0.545987 107.929Z" fill="#ADADAD"/>
<path d="M29.969 61.1162C29.669 61.1162 29.4213 61.0249 29.2256 60.8424C29.03 60.6467 28.9322 60.399 28.9322 60.099C28.9322 59.4209 29.1278 58.795 29.5191 58.2212C29.9233 57.6474 30.4058 57.1453 30.9666 56.715C31.5404 56.2716 32.2902 55.75 33.2161 55.1501C34.0116 54.6415 34.6441 54.2112 35.1135 53.8591C35.583 53.507 35.9742 53.1223 36.2872 52.705C36.6002 52.2877 36.7567 51.8443 36.7567 51.3748C36.7567 50.6315 36.5089 50.0447 36.0133 49.6143C35.5308 49.1709 34.7484 48.9492 33.666 48.9492C32.4923 48.9492 31.3774 49.184 30.3211 49.6534C30.1907 49.7186 30.0668 49.7512 29.9494 49.7512C29.7408 49.7512 29.5647 49.6795 29.4213 49.5361C29.2778 49.3926 29.2061 49.2101 29.2061 48.9884C29.2061 48.6623 29.3495 48.4211 29.6364 48.2646C30.9666 47.5995 32.4141 47.267 33.979 47.267C34.8136 47.267 35.5699 47.4365 36.2481 47.7756C36.9392 48.1016 37.4804 48.5645 37.8716 49.1644C38.2759 49.7643 38.478 50.4554 38.478 51.2379C38.478 52.0073 38.2498 52.7245 37.7934 53.3896C37.35 54.0416 36.8153 54.6154 36.1894 55.111C35.5634 55.6065 34.7484 56.1803 33.7443 56.8323C32.8314 57.4453 32.1402 57.9408 31.6708 58.319C31.2144 58.6841 30.8949 59.0623 30.7123 59.4535H37.5195C37.7543 59.4535 37.9499 59.5383 38.1064 59.7078C38.2759 59.8643 38.3607 60.0599 38.3607 60.2946C38.3607 60.5294 38.2759 60.725 38.1064 60.8815C37.9499 61.038 37.7543 61.1162 37.5195 61.1162H29.969ZM48.4137 61.214C48.1659 61.214 47.9572 61.1293 47.7877 60.9597C47.6182 60.7902 47.5334 60.5815 47.5334 60.3338V57.6735H41.5673C41.2543 57.6735 40.987 57.5691 40.7653 57.3605C40.5436 57.1388 40.4327 56.8715 40.4327 56.5585V56.3824C40.4327 56.1086 40.511 55.8739 40.6675 55.6782L46.8096 47.8343C46.914 47.6908 47.0509 47.58 47.2204 47.5017C47.403 47.4104 47.5921 47.3648 47.7877 47.3648H48.1789C48.518 47.3648 48.7918 47.4756 49.0005 47.6973C49.2091 47.906 49.3135 48.1733 49.3135 48.4993V56.089H50.8001C51.0218 56.089 51.2109 56.1673 51.3674 56.3238C51.5239 56.4802 51.6021 56.6693 51.6021 56.891C51.6021 57.1127 51.5239 57.3018 51.3674 57.4583C51.2109 57.6017 51.0218 57.6735 50.8001 57.6735H49.3135V60.3338C49.3135 60.5815 49.2222 60.7902 49.0396 60.9597C48.8701 61.1293 48.6614 61.214 48.4137 61.214ZM42.3302 56.089H47.5334V49.3796L42.3302 56.089ZM53.9676 62.9745C53.7329 62.9745 53.5373 62.8963 53.3808 62.7398C53.2373 62.5833 53.1656 62.3942 53.1656 62.1725C53.1656 62.0943 53.1852 61.9965 53.2243 61.8791L58.408 46.7193C58.4601 46.5628 58.5514 46.4324 58.6818 46.3281C58.8122 46.2237 58.9752 46.1716 59.1708 46.1716C59.4056 46.1716 59.5947 46.2498 59.7381 46.4063C59.8946 46.5628 59.9729 46.7519 59.9729 46.9736C59.9729 47.0518 59.9533 47.1496 59.9142 47.267L54.7305 62.4268C54.6783 62.5833 54.587 62.7137 54.4566 62.818C54.3262 62.9223 54.1632 62.9745 53.9676 62.9745ZM32.1598 85.214C31.912 85.214 31.7034 85.1293 31.5339 84.9597C31.3643 84.7902 31.2796 84.5815 31.2796 84.3338C31.2796 84.1773 31.3187 84.0208 31.3969 83.8643L36.7762 73.1644H29.6756C29.4408 73.1644 29.2387 73.0862 29.0692 72.9297C28.9127 72.7602 28.8344 72.558 28.8344 72.3233C28.8344 72.0886 28.9127 71.8864 29.0692 71.7169C29.2387 71.5474 29.4408 71.4626 29.6756 71.4626H37.6565C37.9694 71.4626 38.2302 71.5604 38.4389 71.756C38.6476 71.9516 38.7519 72.1994 38.7519 72.4993C38.7519 72.7862 38.6867 73.0731 38.5563 73.36L33.0009 84.725C32.9227 84.8684 32.8053 84.9858 32.6488 85.0771C32.4923 85.1684 32.3293 85.214 32.1598 85.214Z" fill="white"/>
<path d="M29.2256 60.8424L28.9936 61.0744L29.0019 61.0821L29.2256 60.8424ZM29.5191 58.2212L29.2509 58.0323L29.2481 58.0364L29.5191 58.2212ZM30.9666 56.715L31.1663 56.9752L31.1671 56.9745L30.9666 56.715ZM33.2161 55.1501L33.0394 54.8738L33.0378 54.8749L33.2161 55.1501ZM35.1135 53.8591L34.9167 53.5967V53.5967L35.1135 53.8591ZM36.2872 52.705L36.0248 52.5082L36.2872 52.705ZM36.0133 49.6143L35.7913 49.8559L35.7983 49.8619L36.0133 49.6143ZM30.3211 49.6534L30.1879 49.3537L30.1811 49.3568L30.1744 49.3601L30.3211 49.6534ZM29.4213 49.5361L29.1894 49.768L29.1894 49.768L29.4213 49.5361ZM29.6364 48.2646L29.4897 47.9711L29.4794 47.9767L29.6364 48.2646ZM36.2481 47.7756L36.1014 48.069L36.1081 48.0722L36.2481 47.7756ZM37.8716 49.1644L37.5969 49.3436L37.5997 49.3477L37.8716 49.1644ZM37.7934 53.3896L37.523 53.204L37.5222 53.2052L37.7934 53.3896ZM36.1894 55.111L36.3929 55.3681L36.1894 55.111ZM33.7443 56.8323L33.5656 56.5573L33.5614 56.5601L33.7443 56.8323ZM31.6708 58.319L31.8757 58.5751L31.8765 58.5744L31.6708 58.319ZM30.7123 59.4535L30.4151 59.3148L30.1973 59.7815H30.7123V59.4535ZM38.1064 59.7078L37.8654 59.9303L37.8743 59.9399L37.8839 59.9488L38.1064 59.7078ZM38.1064 60.8815L37.8837 60.6403L37.8745 60.6496L38.1064 60.8815ZM29.969 60.7882C29.7412 60.7882 29.5768 60.7215 29.4494 60.6026L29.0019 61.0821C29.2657 61.3284 29.5968 61.4442 29.969 61.4442V60.7882ZM29.4576 60.6105C29.3289 60.4818 29.2602 60.3201 29.2602 60.099H28.6043C28.6043 60.4779 28.7311 60.8117 28.9937 61.0743L29.4576 60.6105ZM29.2602 60.099C29.2602 59.4885 29.435 58.9267 29.79 58.4059L29.2481 58.0364C28.8207 58.6633 28.6043 59.3533 28.6043 60.099H29.2602ZM29.7872 58.4101C30.1722 57.8636 30.6316 57.3855 31.1663 56.9752L30.7669 56.4548C30.1801 56.9052 29.6744 57.4312 29.251 58.0323L29.7872 58.4101ZM31.1671 56.9745C31.7311 56.5387 32.4727 56.0225 33.3944 55.4253L33.0378 54.8749C32.1078 55.4774 31.3497 56.0045 30.7661 56.4555L31.1671 56.9745ZM33.3928 55.4264C34.1915 54.9157 34.8316 54.4805 35.3103 54.1214L34.9167 53.5967C34.4565 53.9419 33.8316 54.3673 33.0394 54.8738L33.3928 55.4264ZM35.3103 54.1214C35.8016 53.753 36.2158 53.3468 36.5496 52.9017L36.0248 52.5082C35.7326 52.8977 35.3644 53.261 34.9167 53.5967L35.3103 54.1214ZM36.5496 52.9017C36.9001 52.4343 37.0846 51.9231 37.0846 51.3748H36.4287C36.4287 51.7654 36.3002 52.141 36.0248 52.5082L36.5496 52.9017ZM37.0846 51.3748C37.0846 50.5505 36.8056 49.868 36.2284 49.3667L35.7983 49.8619C36.2121 50.2213 36.4287 50.7125 36.4287 51.3748H37.0846ZM36.2352 49.3728C35.6633 48.8473 34.7803 48.6213 33.666 48.6213V49.2772C34.7164 49.2772 35.3983 49.4946 35.7914 49.8558L36.2352 49.3728ZM33.666 48.6213C32.4472 48.6213 31.2868 48.8654 30.1879 49.3537L30.4543 49.9531C31.468 49.5026 32.5375 49.2772 33.666 49.2772V48.6213ZM30.1744 49.3601C30.0787 49.4079 30.005 49.4233 29.9494 49.4233V50.0792C30.1285 50.0792 30.3026 50.0294 30.4677 49.9468L30.1744 49.3601ZM29.9494 49.4233C29.825 49.4233 29.7332 49.3842 29.6532 49.3042L29.1894 49.768C29.3962 49.9749 29.6566 50.0792 29.9494 50.0792V49.4233ZM29.6532 49.3042C29.5772 49.2282 29.534 49.132 29.534 48.9884H28.8781C28.8781 49.2882 28.9784 49.557 29.1894 49.768L29.6532 49.3042ZM29.534 48.9884C29.534 48.8747 29.5586 48.7927 29.5956 48.7305C29.6326 48.6683 29.6931 48.6073 29.7935 48.5525L29.4794 47.9767C29.2929 48.0784 29.1382 48.2163 29.0318 48.3953C28.9253 48.5743 28.8781 48.776 28.8781 48.9884H29.534ZM29.7831 48.5579C31.0653 47.9168 32.4623 47.595 33.979 47.595V46.939C32.3659 46.939 30.8678 47.2822 29.4898 47.9713L29.7831 48.5579ZM33.979 47.595C34.7679 47.595 35.4733 47.7549 36.1014 48.0689L36.3947 47.4822C35.6666 47.1182 34.8593 46.939 33.979 46.939V47.595ZM36.1081 48.0722C36.7482 48.3741 37.2411 48.798 37.5969 49.3436L38.1463 48.9853C37.7197 48.3311 37.1302 47.8291 36.388 47.479L36.1081 48.0722ZM37.5997 49.3477C37.9644 49.889 38.1501 50.5152 38.1501 51.2379H38.806C38.806 50.3957 38.5874 49.6396 38.1436 48.9811L37.5997 49.3477ZM38.1501 51.2379C38.1501 51.9377 37.9438 52.5908 37.523 53.204L38.0638 53.5752C38.5558 52.8583 38.806 52.0769 38.806 51.2379H38.1501ZM37.5222 53.2052C37.0978 53.8293 36.586 54.3787 35.9858 54.8538L36.3929 55.3681C37.0447 54.8522 37.6022 54.2539 38.0646 53.574L37.5222 53.2052ZM35.9858 54.8538C35.3708 55.3407 34.565 55.9084 33.5656 56.5573L33.9229 57.1074C34.9318 56.4522 35.7561 55.8723 36.3929 55.3681L35.9858 54.8538ZM33.5614 56.5601C32.646 57.1747 31.9456 57.6765 31.465 58.0636L31.8765 58.5744C32.3349 58.2051 33.0168 57.7158 33.9271 57.1046L33.5614 56.5601ZM31.4659 58.0629C30.9833 58.4489 30.6252 58.8647 30.4151 59.3148L31.0095 59.5922C31.1645 59.2599 31.4454 58.9193 31.8757 58.5751L31.4659 58.0629ZM30.7123 59.7815H37.5195V59.1256H30.7123V59.7815ZM37.5195 59.7815C37.6645 59.7815 37.7722 59.8293 37.8654 59.9303L38.3473 59.4854C38.1276 59.2473 37.844 59.1256 37.5195 59.1256V59.7815ZM37.8839 59.9488C37.9849 60.042 38.0327 60.1496 38.0327 60.2946H38.6886C38.6886 59.9702 38.5669 59.6866 38.3288 59.4668L37.8839 59.9488ZM38.0327 60.2946C38.0327 60.4397 37.9849 60.5473 37.8839 60.6405L38.3288 61.1225C38.5669 60.9027 38.6886 60.6191 38.6886 60.2946H38.0327ZM37.8745 60.6496C37.7835 60.7405 37.6731 60.7882 37.5195 60.7882V61.4442C37.8354 61.4442 38.1163 61.3354 38.3383 61.1134L37.8745 60.6496ZM37.5195 60.7882H29.969V61.4442H37.5195V60.7882ZM47.7877 60.9597L47.5558 61.1916L47.7877 60.9597ZM47.5334 57.6735H47.8614V57.3455H47.5334V57.6735ZM40.7653 57.3605L40.5333 57.5925L40.5405 57.5993L40.7653 57.3605ZM40.6675 55.6782L40.9236 55.8831L40.9257 55.8804L40.6675 55.6782ZM46.8096 47.8343L47.068 48.0366L47.0749 48.0272L46.8096 47.8343ZM47.2204 47.5017L47.3579 47.7996L47.3671 47.7951L47.2204 47.5017ZM49.0005 47.6973L48.7616 47.9222L48.7686 47.9292L49.0005 47.6973ZM49.3135 56.089H48.9855V56.417H49.3135V56.089ZM51.3674 56.3238L51.5993 56.0919L51.5993 56.0919L51.3674 56.3238ZM51.3674 57.4583L51.589 57.7001L51.5942 57.6952L51.5993 57.6902L51.3674 57.4583ZM49.3135 57.6735V57.3455H48.9855V57.6735H49.3135ZM49.0396 60.9597L48.8163 60.7192L48.8077 60.7278L49.0396 60.9597ZM42.3302 56.089L42.071 55.888L41.6608 56.417H42.3302V56.089ZM47.5334 56.089V56.417H47.8614V56.089H47.5334ZM47.5334 49.3796H47.8614V48.4215L47.2742 49.1786L47.5334 49.3796ZM48.4137 60.8861C48.2496 60.8861 48.1254 60.8336 48.0196 60.7278L47.5558 61.1916C47.7891 61.4249 48.0822 61.542 48.4137 61.542V60.8861ZM48.0196 60.7278C47.9138 60.6221 47.8614 60.4978 47.8614 60.3338H47.2054C47.2054 60.6653 47.3225 60.9583 47.5558 61.1916L48.0196 60.7278ZM47.8614 60.3338V57.6735H47.2054V60.3338H47.8614ZM47.5334 57.3455H41.5673V58.0014H47.5334V57.3455ZM41.5673 57.3455C41.3353 57.3455 41.149 57.2713 40.9901 57.1217L40.5405 57.5993C40.8249 57.867 41.1734 58.0014 41.5673 58.0014V57.3455ZM40.9972 57.1286C40.8369 56.9683 40.7607 56.7843 40.7607 56.5585H40.1048C40.1048 56.9586 40.2503 57.3093 40.5334 57.5924L40.9972 57.1286ZM40.7607 56.5585V56.3824H40.1048V56.5585H40.7607ZM40.7607 56.3824C40.7607 56.1757 40.818 56.015 40.9236 55.8831L40.4114 55.4734C40.204 55.7327 40.1048 56.0415 40.1048 56.3824H40.7607ZM40.9257 55.8804L47.0679 48.0365L46.5514 47.6321L40.4093 55.476L40.9257 55.8804ZM47.0749 48.0272C47.1445 47.9314 47.2364 47.8556 47.3579 47.7995L47.083 47.204C46.8654 47.3044 46.6834 47.4502 46.5444 47.6414L47.0749 48.0272ZM47.3671 47.7951C47.5062 47.7255 47.6452 47.6928 47.7877 47.6928V47.0368C47.5389 47.0368 47.2998 47.0954 47.0738 47.2084L47.3671 47.7951ZM47.7877 47.6928H48.1789V47.0368H47.7877V47.6928ZM48.1789 47.6928C48.4389 47.6928 48.6224 47.7741 48.7617 47.9221L49.2393 47.4726C48.9613 47.1772 48.597 47.0368 48.1789 47.0368V47.6928ZM48.7686 47.9292C48.909 48.0697 48.9855 48.2503 48.9855 48.4993H49.6414C49.6414 48.0963 49.5093 47.7423 49.2324 47.4654L48.7686 47.9292ZM48.9855 48.4993V56.089H49.6414V48.4993H48.9855ZM49.3135 56.417H50.8001V55.7611H49.3135V56.417ZM50.8001 56.417C50.935 56.417 51.0406 56.4608 51.1355 56.5557L51.5993 56.0919C51.3812 55.8737 51.1086 55.7611 50.8001 55.7611V56.417ZM51.1355 56.5557C51.2303 56.6505 51.2741 56.7561 51.2741 56.891H51.9301C51.9301 56.5825 51.8174 56.31 51.5993 56.0919L51.1355 56.5557ZM51.2741 56.891C51.2741 57.0259 51.2303 57.1315 51.1355 57.2264L51.5993 57.6902C51.8174 57.4721 51.9301 57.1995 51.9301 56.891H51.2741ZM51.1458 57.2165C51.0526 57.3019 50.9437 57.3455 50.8001 57.3455V58.0014C51.0998 58.0014 51.3691 57.9016 51.589 57.7001L51.1458 57.2165ZM50.8001 57.3455H49.3135V58.0014H50.8001V57.3455ZM48.9855 57.6735V60.3338H49.6414V57.6735H48.9855ZM48.9855 60.3338C48.9855 60.4898 48.9326 60.6115 48.8164 60.7194L49.2628 61.2001C49.5117 60.9689 49.6414 60.6733 49.6414 60.3338H48.9855ZM48.8077 60.7278C48.7019 60.8336 48.5777 60.8861 48.4137 60.8861V61.542C48.7452 61.542 49.0382 61.4249 49.2715 61.1916L48.8077 60.7278ZM42.3302 56.417H47.5334V55.7611H42.3302V56.417ZM47.8614 56.089V49.3796H47.2054V56.089H47.8614ZM47.2742 49.1786L42.071 55.888L42.5893 56.29L47.7926 49.5806L47.2742 49.1786ZM53.3808 62.7398L53.139 62.9614L53.1438 62.9666L53.1489 62.9717L53.3808 62.7398ZM53.2243 61.8791L52.914 61.773L52.9132 61.7754L53.2243 61.8791ZM58.408 46.7193L58.7183 46.8254L58.7191 46.823L58.408 46.7193ZM59.7381 46.4063L59.4964 46.6279L59.5012 46.6332L59.5062 46.6382L59.7381 46.4063ZM59.9142 47.267L60.2245 47.3731L60.2253 47.3707L59.9142 47.267ZM54.7305 62.4268L54.4202 62.3207L54.4194 62.3231L54.7305 62.4268ZM54.4566 62.818L54.6615 63.0741L54.4566 62.818ZM53.9676 62.6465C53.814 62.6465 53.7036 62.5988 53.6127 62.5079L53.1489 62.9717C53.3709 63.1937 53.6518 63.3025 53.9676 63.3025V62.6465ZM53.6225 62.5182C53.5372 62.425 53.4936 62.3161 53.4936 62.1725H52.8377C52.8377 62.4723 52.9375 62.7415 53.139 62.9614L53.6225 62.5182ZM53.4936 62.1725C53.4936 62.1439 53.5018 62.0838 53.5354 61.9828L52.9132 61.7754C52.8686 61.9091 52.8377 62.0447 52.8377 62.1725H53.4936ZM53.5346 61.9852L58.7183 46.8254L58.0976 46.6132L52.914 61.773L53.5346 61.9852ZM58.7191 46.823C58.751 46.7273 58.805 46.6495 58.8867 46.5842L58.4769 46.072C58.2978 46.2153 58.1693 46.3983 58.0968 46.6156L58.7191 46.823ZM58.8867 46.5842C58.9493 46.534 59.0364 46.4995 59.1709 46.4995V45.8436C58.9141 45.8436 58.6751 45.9134 58.4769 46.072L58.8867 46.5842ZM59.1709 46.4995C59.3245 46.4995 59.422 46.5468 59.4964 46.6279L59.9799 46.1847C59.7674 45.9529 59.4867 45.8436 59.1709 45.8436V46.4995ZM59.5062 46.6382C59.6011 46.7331 59.6449 46.8387 59.6449 46.9736H60.3008C60.3008 46.6651 60.1881 46.3925 59.97 46.1744L59.5062 46.6382ZM59.6449 46.9736C59.6449 47.0022 59.6367 47.0623 59.603 47.1633L60.2253 47.3707C60.2699 47.237 60.3008 47.1014 60.3008 46.9736H59.6449ZM59.6038 47.1609L54.4202 62.3207L55.0408 62.5329L60.2245 47.3731L59.6038 47.1609ZM54.4194 62.3231C54.3875 62.4188 54.3335 62.4966 54.2518 62.5619L54.6615 63.0741C54.8406 62.9308 54.9692 62.7478 55.0416 62.5305L54.4194 62.3231ZM54.2518 62.5619C54.1891 62.612 54.1021 62.6465 53.9676 62.6465V63.3025C54.2244 63.3025 54.4633 63.2327 54.6615 63.0741L54.2518 62.5619ZM31.5339 84.9597L31.7658 84.7278H31.7658L31.5339 84.9597ZM31.3969 83.8643L31.1039 83.717L31.1036 83.7176L31.3969 83.8643ZM36.7762 73.1644L37.0692 73.3117L37.3082 72.8365H36.7762V73.1644ZM29.0692 72.9297L28.8282 73.1521L28.8371 73.1618L28.8467 73.1707L29.0692 72.9297ZM29.0692 71.7169L28.8371 71.4848L28.8282 71.4944L29.0692 71.7169ZM38.4389 71.756L38.2146 71.9953H38.2146L38.4389 71.756ZM38.5563 73.36L38.851 73.5041L38.8548 73.4957L38.5563 73.36ZM33.0009 84.725L33.2888 84.882L33.2924 84.8756L33.2956 84.869L33.0009 84.725ZM32.6488 85.0771L32.8141 85.3604L32.6488 85.0771ZM32.1598 84.8861C31.9958 84.8861 31.8715 84.8336 31.7658 84.7278L31.3019 85.1916C31.5352 85.4249 31.8283 85.542 32.1598 85.542V84.8861ZM31.7658 84.7278C31.66 84.6221 31.6075 84.4978 31.6075 84.3338H30.9516C30.9516 84.6653 31.0687 84.9583 31.3019 85.1916L31.7658 84.7278ZM31.6075 84.3338C31.6075 84.2339 31.6321 84.1274 31.6903 84.011L31.1036 83.7176C31.0053 83.9142 30.9516 84.1206 30.9516 84.3338H31.6075ZM31.6899 84.0116L37.0692 73.3117L36.4832 73.0171L31.1039 83.717L31.6899 84.0116ZM36.7762 72.8365H29.6756V73.4924H36.7762V72.8365ZM29.6756 72.8365C29.5217 72.8365 29.3994 72.7882 29.2916 72.6887L28.8467 73.1707C29.078 73.3842 29.36 73.4924 29.6756 73.4924V72.8365ZM29.3101 72.7072C29.2107 72.5994 29.1624 72.4772 29.1624 72.3233H28.5065C28.5065 72.6389 28.6147 72.9209 28.8282 73.1521L29.3101 72.7072ZM29.1624 72.3233C29.1624 72.1694 29.2107 72.0471 29.3101 71.9393L28.8282 71.4944C28.6147 71.7257 28.5065 72.0077 28.5065 72.3233H29.1624ZM29.3011 71.9488C29.4106 71.8393 29.5299 71.7906 29.6756 71.7906V71.1346C29.3518 71.1346 29.0668 71.2554 28.8373 71.485L29.3011 71.9488ZM29.6756 71.7906H37.6565V71.1346H29.6756V71.7906ZM37.6565 71.7906C37.8947 71.7906 38.0727 71.8623 38.2146 71.9953L38.6632 71.5168C38.3878 71.2586 38.0442 71.1346 37.6565 71.1346V71.7906ZM38.2146 71.9953C38.3536 72.1256 38.4239 72.2851 38.4239 72.4993H39.0798C39.0798 72.1137 38.9415 71.7777 38.6632 71.5168L38.2146 71.9953ZM38.4239 72.4993C38.4239 72.735 38.3707 72.9758 38.2577 73.2243L38.8548 73.4957C39.0027 73.1705 39.0798 72.8375 39.0798 72.4993H38.4239ZM38.2616 73.216L32.7063 84.581L33.2956 84.869L38.8509 73.5041L38.2616 73.216ZM32.713 84.5679C32.6664 84.6533 32.5942 84.7293 32.4836 84.7938L32.8141 85.3604C33.0164 85.2423 33.1789 85.0835 33.2888 84.882L32.713 84.5679ZM32.4836 84.7938C32.3737 84.8579 32.2673 84.8861 32.1598 84.8861V85.542C32.3914 85.542 32.611 85.4788 32.8141 85.3604L32.4836 84.7938Z" fill="white"/>
<path d="M16.3048 72.7716C15.6196 69.8597 15.2556 66.8193 15.2556 63.7146C15.2556 41.8966 32.9413 24.1895 54.7808 24.1895C76.6203 24.1895 94.306 41.8752 94.306 63.7146" stroke="white" stroke-width="4.9835" stroke-linecap="round" stroke-linejoin="round"/>
<path d="M20.9513 84.1416C20.8443 77.9752 21.6365 69.9674 23.6277 64.4219L15.8983 71.2092L5.62085 71.4662C10.8238 74.2068 16.8403 79.5382 20.9513 84.1416Z" fill="white"/>
<path d="M99.8082 66.328L99.2944 62.0243C99.2515 61.6818 99.1017 61.382 98.8447 61.1465" stroke="#FFCA00" stroke-width="0.303311" stroke-miterlimit="10" stroke-linecap="round"/>
<path d="M98.9305 63.1157C99.5454 63.1157 100.044 62.3776 100.044 61.467C100.044 60.5565 99.5454 59.8184 98.9305 59.8184C98.3156 59.8184 97.8171 60.5565 97.8171 61.467C97.8171 62.3776 98.3156 63.1157 98.9305 63.1157Z" fill="#E9B000"/>
<path d="M98.6517 63.1157C99.2666 63.1157 99.7651 62.3776 99.7651 61.467C99.7651 60.5565 99.2666 59.8184 98.6517 59.8184C98.0368 59.8184 97.5383 60.5565 97.5383 61.467C97.5383 62.3776 98.0368 63.1157 98.6517 63.1157Z" fill="#666666"/>
<path d="M98.6531 62.9673C99.2207 62.9673 99.6808 62.2963 99.6808 61.4685C99.6808 60.6408 99.2207 59.9697 98.6531 59.9697C98.0855 59.9697 97.6254 60.6408 97.6254 61.4685C97.6254 62.2963 98.0855 62.9673 98.6531 62.9673Z" fill="#ECECEC"/>
<path d="M105.226 93.583C105.205 93.6044 105.183 93.6258 105.162 93.6686C105.141 93.7114 105.098 93.7114 105.055 93.7114C105.012 93.7114 104.991 93.69 104.948 93.6686C104.841 93.7971 104.712 93.9256 104.605 94.0754C104.67 94.1183 104.691 94.2253 104.627 94.2895C104.605 94.311 104.584 94.3538 104.562 94.3752C104.541 94.418 104.477 94.4394 104.434 94.4394C104.413 94.4394 104.37 94.4394 104.348 94.418C104.241 94.5679 104.156 94.7178 104.07 94.8677C104.134 94.9105 104.177 95.0175 104.134 95.0818C104.113 95.1032 104.091 95.146 104.091 95.1674C104.07 95.2102 104.006 95.2531 103.963 95.2531C103.942 95.2531 103.92 95.2531 103.877 95.2316C103.792 95.3815 103.727 95.5528 103.642 95.7027C103.727 95.7455 103.749 95.8312 103.727 95.9168C103.706 95.9382 103.706 95.981 103.685 96.0024C103.663 96.0667 103.599 96.0881 103.535 96.0881C103.513 96.0881 103.492 96.0881 103.471 96.0667C103.406 96.238 103.342 96.3879 103.299 96.5591C103.385 96.5806 103.428 96.6662 103.406 96.7518C103.406 96.7947 103.385 96.8161 103.385 96.8589C103.363 96.9231 103.299 96.966 103.235 96.966C103.214 96.966 103.214 96.966 103.192 96.966C103.149 97.1372 103.107 97.3085 103.064 97.4798C103.149 97.5012 103.192 97.5869 103.192 97.6725C103.192 97.7153 103.171 97.7368 103.171 97.7796C103.149 97.8652 103.085 97.9081 103.021 97.9081H102.999C102.978 98.0793 102.957 98.2506 102.935 98.4219C103.021 98.4219 103.085 98.5076 103.085 98.5932C103.085 98.636 103.085 98.6574 103.085 98.7003C103.085 98.7859 102.999 98.8501 102.935 98.8501C102.935 99 102.914 99.1499 102.914 99.2998C102.914 99.3212 102.914 99.3426 102.914 99.3854C102.999 99.3854 103.064 99.4497 103.064 99.5353V99.6424C103.064 99.728 102.999 99.7922 102.914 99.8137C102.914 99.9849 102.935 100.156 102.957 100.328C103.042 100.328 103.128 100.37 103.128 100.456C103.128 100.499 103.128 100.52 103.149 100.563C103.171 100.649 103.107 100.734 103.021 100.734C103.042 100.906 103.085 101.077 103.128 101.248C103.214 101.227 103.299 101.27 103.321 101.355C103.321 101.398 103.342 101.419 103.342 101.462C103.363 101.548 103.321 101.634 103.235 101.655C103.278 101.826 103.342 101.998 103.385 102.147C103.471 102.126 103.556 102.169 103.578 102.233C103.599 102.276 103.599 102.297 103.62 102.34C103.642 102.426 103.62 102.511 103.535 102.533C103.599 102.704 103.663 102.854 103.749 103.004C103.835 102.961 103.92 103.004 103.963 103.068C103.984 103.09 103.984 103.132 104.006 103.154C104.049 103.239 104.027 103.325 103.942 103.368C104.027 103.518 104.113 103.668 104.22 103.818C104.284 103.775 104.391 103.796 104.434 103.86C104.455 103.882 104.477 103.925 104.498 103.946C104.541 104.01 104.52 104.117 104.455 104.16C104.562 104.31 104.67 104.438 104.777 104.588C104.841 104.546 104.948 104.546 104.991 104.61C105.012 104.631 105.034 104.653 105.055 104.695C105.119 104.76 105.098 104.867 105.034 104.91C105.141 105.038 105.269 105.166 105.398 105.295C105.462 105.231 105.547 105.231 105.612 105.295C105.633 105.316 105.654 105.338 105.676 105.359C105.74 105.423 105.74 105.509 105.676 105.573C105.804 105.702 105.933 105.809 106.083 105.916C106.147 105.852 106.233 105.83 106.297 105.894C106.318 105.916 106.361 105.937 106.382 105.959C106.447 106.002 106.468 106.109 106.425 106.173C106.575 106.28 106.704 106.365 106.853 106.473C106.896 106.408 107.003 106.387 107.068 106.43C107.089 106.451 107.132 106.473 107.153 106.473C107.217 106.515 107.26 106.601 107.217 106.687C107.367 106.772 107.517 106.858 107.689 106.944C107.731 106.858 107.817 106.837 107.903 106.879C107.924 106.901 107.967 106.901 107.988 106.922C108.074 106.965 108.095 107.051 108.074 107.136C108.245 107.201 108.395 107.265 108.566 107.329C108.588 107.243 108.673 107.201 108.759 107.222C108.802 107.243 108.823 107.243 108.866 107.265C108.952 107.286 108.995 107.372 108.973 107.457C109.144 107.5 109.316 107.543 109.487 107.586C109.508 107.5 109.594 107.457 109.68 107.479C109.723 107.479 109.744 107.5 109.787 107.5C109.872 107.522 109.915 107.607 109.915 107.672C110.087 107.693 110.258 107.736 110.429 107.757C110.451 107.672 110.515 107.607 110.6 107.629H110.708C110.793 107.629 110.857 107.714 110.857 107.8C111.029 107.821 111.2 107.821 111.393 107.821C111.393 107.736 111.457 107.672 111.543 107.672C111.585 107.672 111.607 107.672 111.65 107.672C111.735 107.672 111.799 107.736 111.799 107.821C111.971 107.821 112.142 107.8 112.313 107.779C112.313 107.693 112.356 107.607 112.442 107.607C112.485 107.607 112.506 107.607 112.549 107.586C112.635 107.565 112.72 107.629 112.72 107.714C112.891 107.693 113.063 107.65 113.234 107.629C113.213 107.543 113.277 107.457 113.363 107.436L113.47 107.415C113.555 107.393 113.641 107.436 113.662 107.522C113.834 107.479 114.005 107.415 114.176 107.372C114.155 107.286 114.198 107.201 114.283 107.179C114.326 107.158 114.347 107.158 114.39 107.136C114.476 107.115 114.562 107.136 114.583 107.222C114.754 107.158 114.904 107.093 115.075 107.008C115.033 106.922 115.075 106.837 115.14 106.794C115.161 106.772 115.204 106.772 115.225 106.751C115.311 106.708 115.397 106.751 115.439 106.815C115.589 106.729 115.739 106.644 115.889 106.558C115.846 106.494 115.868 106.387 115.932 106.344C115.953 106.323 115.996 106.301 116.018 106.28C116.082 106.237 116.189 106.258 116.232 106.323C116.381 106.216 116.51 106.13 116.66 106.023C116.617 105.959 116.617 105.852 116.681 105.809C116.703 105.787 116.724 105.766 116.767 105.745C116.831 105.68 116.938 105.702 116.981 105.766C117.109 105.659 117.238 105.53 117.366 105.423C117.302 105.359 117.302 105.274 117.366 105.209C117.388 105.188 117.409 105.166 117.431 105.145C117.495 105.081 117.581 105.081 117.645 105.145C117.773 105.017 117.88 104.888 117.987 104.76C117.923 104.695 117.902 104.61 117.966 104.546C117.987 104.524 118.009 104.503 118.03 104.46C118.073 104.396 118.18 104.374 118.244 104.438C118.351 104.289 118.458 104.16 118.544 104.01C118.48 103.967 118.458 103.86 118.501 103.796C118.523 103.775 118.544 103.732 118.565 103.711C118.608 103.646 118.715 103.625 118.78 103.668C118.865 103.518 118.951 103.368 119.036 103.197C118.951 103.154 118.929 103.068 118.972 102.983C118.994 102.961 118.994 102.918 119.015 102.897C119.058 102.811 119.144 102.79 119.229 102.811C119.293 102.661 119.379 102.49 119.422 102.319C119.336 102.297 119.293 102.19 119.336 102.126C119.358 102.083 119.358 102.062 119.379 102.019C119.4 101.933 119.486 101.891 119.572 101.912C119.636 101.741 119.679 101.569 119.722 101.398C119.636 101.377 119.593 101.291 119.615 101.205L119.636 101.098C119.657 101.013 119.743 100.97 119.829 100.97C119.872 100.799 119.893 100.627 119.914 100.456C119.829 100.435 119.764 100.37 119.786 100.285C119.786 100.242 119.786 100.22 119.807 100.178C119.807 100.092 119.893 100.028 119.979 100.028C120 99.8565 120 99.6852 120 99.4925C119.914 99.4925 119.85 99.4283 119.85 99.3426C119.85 99.2998 119.85 99.2784 119.85 99.2356C119.85 99.1499 119.914 99.0857 120 99.0857C120 99 120 98.9144 120 98.8287C119.914 98.8287 119.85 98.7645 119.85 98.6789C119.85 98.636 119.85 98.6146 119.85 98.5718C119.85 98.4862 119.914 98.4005 120 98.4005C119.979 98.2292 119.957 98.0579 119.936 97.8866H119.914C119.85 97.8866 119.764 97.8224 119.764 97.7582C119.764 97.7154 119.743 97.6939 119.743 97.6511C119.722 97.5655 119.786 97.4798 119.872 97.4584C119.829 97.2871 119.786 97.1158 119.743 96.9445C119.722 96.9445 119.722 96.9445 119.7 96.9445C119.636 96.9445 119.572 96.9017 119.55 96.8375C119.55 96.7947 119.529 96.7733 119.529 96.7304C119.508 96.6448 119.55 96.5591 119.636 96.5377C119.572 96.3664 119.529 96.2166 119.465 96.0453C119.443 96.0453 119.422 96.0667 119.4 96.0667C119.336 96.0667 119.272 96.0239 119.251 95.9596C119.229 95.9382 119.229 95.8954 119.208 95.874C119.165 95.7883 119.208 95.7027 119.293 95.6599C119.229 95.51 119.144 95.3387 119.058 95.1888C119.036 95.2102 119.015 95.2102 118.994 95.2102C118.929 95.2102 118.887 95.1888 118.865 95.1246L118.822 95.0389C118.78 94.9747 118.801 94.8677 118.887 94.8248C118.801 94.675 118.694 94.5251 118.608 94.3752C118.587 94.3966 118.544 94.3966 118.523 94.3966C118.48 94.3966 118.416 94.3752 118.394 94.3324C118.373 94.311 118.351 94.2681 118.33 94.2467C118.287 94.1825 118.287 94.0754 118.351 94.0326C118.244 93.8827 118.137 93.7543 118.009 93.6258C117.987 93.6472 117.945 93.6686 117.902 93.6686C117.859 93.6686 117.816 93.6472 117.795 93.6258C117.773 93.6044 117.752 93.583 117.73 93.5402C117.666 93.4759 117.666 93.3903 117.73 93.326C117.602 93.1976 117.495 93.0691 117.366 92.962C117.345 93.0049 117.302 93.0049 117.259 93.0049C117.217 93.0049 117.195 92.9835 117.152 92.962C117.131 92.9406 117.109 92.9192 117.067 92.8978C117.002 92.8336 117.002 92.7479 117.045 92.6837C116.917 92.5766 116.767 92.4696 116.638 92.3625C116.617 92.4054 116.553 92.4268 116.51 92.4268C116.489 92.4268 116.446 92.4268 116.424 92.4054C116.403 92.384 116.36 92.3625 116.339 92.3411C116.274 92.2983 116.253 92.1912 116.296 92.127C116.146 92.02 115.996 91.9343 115.846 91.8487C115.825 91.8915 115.761 91.9343 115.718 91.9343C115.696 91.9343 115.675 91.9343 115.632 91.9129C115.611 91.8915 115.568 91.8701 115.546 91.8701C115.461 91.8273 115.439 91.7416 115.482 91.656C115.332 91.5703 115.161 91.5061 115.011 91.4204C114.99 91.4847 114.926 91.5061 114.861 91.5061C114.84 91.5061 114.818 91.5061 114.797 91.4847C114.776 91.4633 114.733 91.4633 114.711 91.4419C114.626 91.4204 114.583 91.3134 114.626 91.2491C114.454 91.1849 114.305 91.1207 114.133 91.0779C114.112 91.1421 114.048 91.1849 113.983 91.1849C113.962 91.1849 113.962 91.1849 113.941 91.1849C113.898 91.1849 113.876 91.1635 113.834 91.1635C113.748 91.1421 113.705 91.0564 113.726 90.9708C113.555 90.928 113.384 90.8852 113.213 90.8637C113.191 90.928 113.127 90.9922 113.063 90.9922H113.041L112.934 90.9708C112.849 90.9494 112.784 90.8852 112.806 90.7995C112.635 90.7781 112.463 90.7567 112.292 90.7353C112.292 90.8209 112.206 90.8852 112.142 90.8852C112.099 90.8852 112.078 90.8852 112.035 90.8852C111.949 90.8852 111.885 90.7995 111.885 90.7139C111.799 90.7139 111.692 90.7139 111.607 90.7139C111.521 90.7139 111.435 90.7139 111.371 90.7139C111.371 90.7995 111.307 90.8637 111.221 90.8852C111.179 90.8852 111.157 90.8852 111.114 90.8852C111.029 90.8852 110.964 90.8209 110.964 90.7353C110.793 90.7567 110.622 90.7567 110.451 90.7995C110.472 90.8852 110.408 90.9708 110.322 90.9708L110.215 90.9922H110.194C110.129 90.9922 110.044 90.9494 110.044 90.8637C109.872 90.9066 109.701 90.928 109.53 90.9708C109.551 91.0564 109.508 91.1421 109.423 91.1635L109.316 91.1849C109.294 91.1849 109.294 91.1849 109.273 91.1849C109.209 91.1849 109.144 91.1421 109.123 91.0779C108.952 91.1207 108.78 91.1849 108.631 91.2491C108.652 91.3348 108.631 91.4204 108.545 91.4419C108.524 91.4633 108.481 91.4633 108.459 91.4847C108.438 91.4847 108.417 91.5061 108.395 91.5061C108.331 91.5061 108.267 91.4633 108.245 91.4204C108.074 91.4847 107.924 91.5703 107.774 91.656C107.817 91.7416 107.774 91.8273 107.71 91.8701C107.689 91.8915 107.646 91.9129 107.624 91.9129C107.603 91.9343 107.581 91.9343 107.539 91.9343C107.474 91.9343 107.432 91.9129 107.41 91.8487C107.26 91.9343 107.11 92.02 106.961 92.127C107.003 92.1912 106.982 92.2983 106.918 92.3411C106.896 92.3625 106.853 92.384 106.832 92.4054C106.811 92.4268 106.768 92.4268 106.746 92.4268C106.704 92.4268 106.661 92.4054 106.618 92.3625C106.468 92.4696 106.34 92.5766 106.211 92.6837C106.275 92.7479 106.254 92.855 106.19 92.8978C106.168 92.9192 106.147 92.9406 106.104 92.962C106.083 92.9835 106.04 93.0049 105.997 93.0049C105.954 93.0049 105.911 92.9835 105.89 92.962C105.762 93.0905 105.633 93.1976 105.505 93.326C105.29 93.4117 105.29 93.5187 105.226 93.583Z" fill="#333333"/>
<path d="M111.37 104.16C114.066 104.16 116.252 101.974 116.252 99.2782C116.252 96.5821 114.066 94.3965 111.37 94.3965C108.674 94.3965 106.488 96.5821 106.488 99.2782C106.488 101.974 108.674 104.16 111.37 104.16Z" fill="#666666"/>
<path d="M111.371 103.304C113.594 103.304 115.396 101.501 115.396 99.2782C115.396 97.0551 113.594 95.2529 111.371 95.2529C109.148 95.2529 107.345 97.0551 107.345 99.2782C107.345 101.501 109.148 103.304 111.371 103.304Z" fill="#808080"/>
<path d="M56.4717 93.583C56.4503 93.6044 56.4289 93.6258 56.4075 93.6686C56.3861 93.7114 56.3433 93.7114 56.3004 93.7114C56.2576 93.7114 56.2362 93.69 56.1934 93.6686C56.0863 93.7971 55.9578 93.9256 55.8508 94.0754C55.915 94.1183 55.9364 94.2253 55.8722 94.2895C55.8508 94.311 55.8294 94.3538 55.808 94.3752C55.7866 94.418 55.7223 94.4394 55.6795 94.4394C55.6581 94.4394 55.6153 94.4394 55.5939 94.418C55.4868 94.5679 55.4012 94.7178 55.3155 94.8677C55.3797 94.9105 55.4226 95.0175 55.3797 95.0818C55.3583 95.1032 55.3369 95.146 55.3369 95.1674C55.3155 95.2102 55.2513 95.2531 55.2085 95.2531C55.187 95.2531 55.1656 95.2531 55.1228 95.2316C55.0372 95.3815 54.9729 95.5528 54.8873 95.7027C54.9729 95.7455 54.9943 95.8312 54.9729 95.9168C54.9515 95.9382 54.9515 95.981 54.9301 96.0024C54.9087 96.0667 54.8445 96.0881 54.7802 96.0881C54.7588 96.0881 54.7374 96.0881 54.716 96.0667C54.6518 96.238 54.5875 96.3879 54.5447 96.5591C54.6304 96.5806 54.6732 96.6662 54.6518 96.7518C54.6518 96.7947 54.6304 96.8161 54.6304 96.8589C54.6089 96.9231 54.5447 96.966 54.4805 96.966C54.4591 96.966 54.4591 96.966 54.4376 96.966C54.3948 97.1372 54.352 97.3085 54.3092 97.4798C54.3948 97.5012 54.4376 97.5869 54.4376 97.6725C54.4376 97.7153 54.4162 97.7368 54.4162 97.7796C54.3948 97.8652 54.3306 97.9081 54.2664 97.9081H54.2449C54.2235 98.0793 54.2021 98.2506 54.1807 98.4219C54.2664 98.4219 54.3306 98.5076 54.3306 98.5932C54.3306 98.636 54.3306 98.6574 54.3306 98.7003C54.3306 98.7859 54.2449 98.8501 54.1807 98.8501C54.1807 99 54.1593 99.1499 54.1593 99.2998C54.1593 99.3212 54.1593 99.3426 54.1593 99.3854C54.2449 99.3854 54.3092 99.4497 54.3092 99.5353V99.6424C54.3092 99.728 54.2449 99.7922 54.1593 99.8137C54.1593 99.9849 54.1807 100.156 54.2021 100.328C54.2878 100.328 54.3734 100.37 54.3734 100.456C54.3734 100.499 54.3734 100.52 54.3948 100.563C54.4162 100.649 54.352 100.734 54.2664 100.734C54.2878 100.906 54.3306 101.077 54.3734 101.248C54.4591 101.227 54.5447 101.27 54.5661 101.355C54.5661 101.398 54.5875 101.419 54.5875 101.462C54.6089 101.548 54.5661 101.634 54.4805 101.655C54.5233 101.826 54.5875 101.998 54.6304 102.147C54.716 102.126 54.8016 102.169 54.8231 102.233C54.8445 102.276 54.8445 102.297 54.8659 102.34C54.8873 102.426 54.8659 102.511 54.7802 102.533C54.8445 102.704 54.9087 102.854 54.9943 103.004C55.08 102.961 55.1656 103.004 55.2085 103.068C55.2299 103.09 55.2299 103.132 55.2513 103.154C55.2941 103.239 55.2727 103.325 55.187 103.368C55.2727 103.518 55.3583 103.668 55.4654 103.818C55.5296 103.775 55.6367 103.796 55.6795 103.86C55.7009 103.882 55.7223 103.925 55.7437 103.946C55.7866 104.01 55.7651 104.117 55.7009 104.16C55.808 104.31 55.915 104.438 56.0221 104.588C56.0863 104.546 56.1934 104.546 56.2362 104.61C56.2576 104.631 56.279 104.653 56.3004 104.695C56.3647 104.76 56.3432 104.867 56.279 104.91C56.3861 105.038 56.5145 105.166 56.643 105.295C56.7072 105.231 56.7929 105.231 56.8571 105.295C56.8785 105.316 56.8999 105.338 56.9214 105.359C56.9856 105.423 56.9856 105.509 56.9214 105.573C57.0498 105.702 57.1783 105.809 57.3282 105.916C57.3924 105.852 57.4781 105.83 57.5423 105.894C57.5637 105.916 57.6065 105.937 57.6279 105.959C57.6922 106.002 57.7136 106.109 57.6707 106.173C57.8206 106.28 57.9491 106.365 58.099 106.473C58.1418 106.408 58.2489 106.387 58.3131 106.43C58.3345 106.451 58.3773 106.473 58.3987 106.473C58.463 106.515 58.5058 106.601 58.463 106.687C58.6128 106.772 58.7627 106.858 58.934 106.944C58.9768 106.858 59.0625 106.837 59.1481 106.879C59.1695 106.901 59.2124 106.901 59.2338 106.922C59.3194 106.965 59.3408 107.051 59.3194 107.136C59.4693 107.201 59.6406 107.265 59.8119 107.329C59.8333 107.243 59.9189 107.201 60.0046 107.222C60.0474 107.243 60.0688 107.243 60.1116 107.265C60.1973 107.286 60.2401 107.372 60.2187 107.457C60.39 107.5 60.5613 107.543 60.7326 107.586C60.754 107.5 60.8396 107.457 60.9253 107.479C60.9681 107.479 60.9895 107.5 61.0323 107.5C61.118 107.522 61.1608 107.607 61.1608 107.672C61.3321 107.693 61.5034 107.736 61.6747 107.757C61.6961 107.672 61.7603 107.607 61.8459 107.629H61.953C62.0386 107.629 62.1029 107.714 62.1029 107.8C62.2742 107.821 62.4455 107.821 62.6382 107.821C62.6382 107.736 62.7024 107.672 62.788 107.672C62.8309 107.672 62.8523 107.672 62.8951 107.672C62.9807 107.672 63.045 107.736 63.045 107.821C63.2163 107.821 63.3876 107.8 63.5588 107.779C63.5588 107.693 63.6017 107.607 63.6873 107.607C63.7301 107.607 63.7515 107.607 63.7944 107.586C63.88 107.565 63.9657 107.629 63.9657 107.714C64.137 107.693 64.3082 107.65 64.4795 107.629C64.4581 107.543 64.5224 107.457 64.608 107.436L64.7151 107.415C64.8007 107.393 64.8863 107.436 64.9078 107.522C65.079 107.479 65.2503 107.415 65.4216 107.372C65.4002 107.286 65.443 107.201 65.5287 107.179C65.5715 107.158 65.5929 107.158 65.6357 107.136C65.7214 107.115 65.807 107.136 65.8284 107.222C65.9997 107.158 66.1496 107.093 66.3209 107.008C66.2781 106.922 66.3209 106.837 66.3851 106.794C66.4065 106.772 66.4494 106.772 66.4708 106.751C66.5564 106.708 66.6421 106.751 66.6849 106.815C66.8348 106.729 66.9846 106.644 67.1345 106.558C67.0917 106.494 67.1131 106.387 67.1774 106.344C67.1988 106.323 67.2416 106.301 67.263 106.28C67.3272 106.237 67.4343 106.258 67.4771 106.323C67.627 106.216 67.7555 106.13 67.9053 106.023C67.8625 105.959 67.8625 105.852 67.9267 105.809C67.9482 105.787 67.9696 105.766 68.0124 105.745C68.0766 105.68 68.1837 105.702 68.2265 105.766C68.355 105.659 68.4834 105.53 68.6119 105.423C68.5477 105.359 68.5477 105.274 68.6119 105.209C68.6333 105.188 68.6547 105.166 68.6761 105.145C68.7404 105.081 68.826 105.081 68.8903 105.145C69.0187 105.017 69.1258 104.888 69.2328 104.76C69.1686 104.695 69.1472 104.61 69.2114 104.546C69.2328 104.524 69.2542 104.503 69.2757 104.46C69.3185 104.396 69.4255 104.374 69.4898 104.438C69.5968 104.289 69.7039 104.16 69.7895 104.01C69.7253 103.967 69.7039 103.86 69.7467 103.796C69.7681 103.775 69.7895 103.732 69.8109 103.711C69.8538 103.646 69.9608 103.625 70.025 103.668C70.1107 103.518 70.1963 103.368 70.282 103.197C70.1963 103.154 70.1749 103.068 70.2177 102.983C70.2392 102.961 70.2392 102.918 70.2606 102.897C70.3034 102.811 70.389 102.79 70.4747 102.811C70.5389 102.661 70.6246 102.49 70.6674 102.319C70.5817 102.297 70.5389 102.19 70.5817 102.126C70.6032 102.083 70.6031 102.062 70.6246 102.019C70.646 101.933 70.7316 101.891 70.8173 101.912C70.8815 101.741 70.9243 101.569 70.9671 101.398C70.8815 101.377 70.8387 101.291 70.8601 101.205L70.8815 101.098C70.9029 101.013 70.9886 100.97 71.0742 100.97C71.117 100.799 71.1384 100.627 71.1598 100.456C71.0742 100.435 71.01 100.37 71.0314 100.285C71.0314 100.242 71.0314 100.22 71.0528 100.178C71.0528 100.092 71.1384 100.028 71.2241 100.028C71.2455 99.8565 71.2455 99.6852 71.2455 99.4925C71.1598 99.4925 71.0956 99.4283 71.0956 99.3426C71.0956 99.2998 71.0956 99.2784 71.0956 99.2356C71.0956 99.1499 71.1598 99.0857 71.2455 99.0857C71.2455 99 71.2455 98.9144 71.2455 98.8287C71.1598 98.8287 71.0956 98.7645 71.0956 98.6789C71.0956 98.636 71.0956 98.6146 71.0956 98.5718C71.0956 98.4862 71.1598 98.4005 71.2455 98.4005C71.2241 98.2292 71.2027 98.0579 71.1813 97.8866H71.1598C71.0956 97.8866 71.01 97.8224 71.01 97.7582C71.01 97.7154 70.9886 97.6939 70.9886 97.6511C70.9671 97.5655 71.0314 97.4798 71.117 97.4584C71.0742 97.2871 71.0314 97.1158 70.9886 96.9445C70.9671 96.9445 70.9671 96.9445 70.9457 96.9445C70.8815 96.9445 70.8173 96.9017 70.7959 96.8375C70.7959 96.7947 70.7744 96.7733 70.7744 96.7304C70.753 96.6448 70.7959 96.5591 70.8815 96.5377C70.8173 96.3664 70.7744 96.2166 70.7102 96.0453C70.6888 96.0453 70.6674 96.0667 70.646 96.0667C70.5817 96.0667 70.5175 96.0239 70.4961 95.9596C70.4747 95.9382 70.4747 95.8954 70.4533 95.874C70.4104 95.7883 70.4533 95.7027 70.5389 95.6599C70.4747 95.51 70.389 95.3387 70.3034 95.1888C70.282 95.2102 70.2606 95.2102 70.2392 95.2102C70.1749 95.2102 70.1321 95.1888 70.1107 95.1246L70.0679 95.0389C70.025 94.9747 70.0465 94.8677 70.1321 94.8248C70.0465 94.675 69.9394 94.5251 69.8538 94.3752C69.8323 94.3966 69.7895 94.3966 69.7681 94.3966C69.7253 94.3966 69.6611 94.3752 69.6396 94.3324C69.6182 94.311 69.5968 94.2681 69.5754 94.2467C69.5326 94.1825 69.5326 94.0754 69.5968 94.0326C69.4898 93.8827 69.3827 93.7543 69.2542 93.6258C69.2328 93.6472 69.19 93.6686 69.1472 93.6686C69.1044 93.6686 69.0615 93.6472 69.0401 93.6258C69.0187 93.6044 68.9973 93.583 68.9759 93.5402C68.9117 93.4759 68.9117 93.3903 68.9759 93.326C68.8474 93.1976 68.7404 93.0691 68.6119 92.962C68.5905 93.0049 68.5477 93.0049 68.5048 93.0049C68.462 93.0049 68.4406 92.9835 68.3978 92.962C68.3764 92.9406 68.355 92.9192 68.3121 92.8978C68.2479 92.8336 68.2479 92.7479 68.2907 92.6837C68.1623 92.5766 68.0124 92.4696 67.8839 92.3625C67.8625 92.4054 67.7983 92.4268 67.7555 92.4268C67.734 92.4268 67.6912 92.4268 67.6698 92.4054C67.6484 92.384 67.6056 92.3625 67.5842 92.3411C67.5199 92.2983 67.4985 92.1912 67.5413 92.127C67.3915 92.02 67.2416 91.9343 67.0917 91.8487C67.0703 91.8915 67.0061 91.9343 66.9632 91.9343C66.9418 91.9343 66.9204 91.9343 66.8776 91.9129C66.8562 91.8915 66.8134 91.8701 66.7919 91.8701C66.7063 91.8273 66.6849 91.7416 66.7277 91.656C66.5778 91.5703 66.4065 91.5061 66.2567 91.4204C66.2353 91.4847 66.171 91.5061 66.1068 91.5061C66.0854 91.5061 66.064 91.5061 66.0426 91.4847C66.0211 91.4633 65.9783 91.4633 65.9569 91.4419C65.8713 91.4204 65.8284 91.3134 65.8713 91.2491C65.7 91.1849 65.5501 91.1207 65.3788 91.0779C65.3574 91.1421 65.2932 91.1849 65.2289 91.1849C65.2075 91.1849 65.2075 91.1849 65.1861 91.1849C65.1433 91.1849 65.1219 91.1635 65.079 91.1635C64.9934 91.1421 64.9506 91.0564 64.972 90.9708C64.8007 90.928 64.6294 90.8852 64.4581 90.8637C64.4367 90.928 64.3725 90.9922 64.3082 90.9922H64.2868L64.1798 90.9708C64.0941 90.9494 64.0299 90.8852 64.0513 90.7995C63.88 90.7781 63.7087 90.7567 63.5374 90.7353C63.5374 90.8209 63.4518 90.8852 63.3876 90.8852C63.3447 90.8852 63.3233 90.8852 63.2805 90.8852C63.1949 90.8852 63.1306 90.7995 63.1306 90.7139C63.045 90.7139 62.9379 90.7139 62.8523 90.7139C62.7666 90.7139 62.681 90.7139 62.6167 90.7139C62.6167 90.7995 62.5525 90.8637 62.4669 90.8852C62.4241 90.8852 62.4026 90.8852 62.3598 90.8852C62.2742 90.8852 62.2099 90.8209 62.2099 90.7353C62.0386 90.7567 61.8674 90.7567 61.6961 90.7995C61.7175 90.8852 61.6532 90.9708 61.5676 90.9708L61.4605 90.9922H61.4391C61.3749 90.9922 61.2893 90.9494 61.2893 90.8637C61.118 90.9066 60.9467 90.928 60.7754 90.9708C60.7968 91.0564 60.754 91.1421 60.6683 91.1635L60.5613 91.1849C60.5399 91.1849 60.5399 91.1849 60.5184 91.1849C60.4542 91.1849 60.39 91.1421 60.3686 91.0779C60.1973 91.1207 60.026 91.1849 59.8761 91.2491C59.8975 91.3348 59.8761 91.4204 59.7905 91.4419C59.7691 91.4633 59.7262 91.4633 59.7048 91.4847C59.6834 91.4847 59.662 91.5061 59.6406 91.5061C59.5764 91.5061 59.5121 91.4633 59.4907 91.4204C59.3194 91.4847 59.1695 91.5703 59.0197 91.656C59.0625 91.7416 59.0197 91.8273 58.9554 91.8701C58.934 91.8915 58.8912 91.9129 58.8698 91.9129C58.8484 91.9343 58.827 91.9343 58.7841 91.9343C58.7199 91.9343 58.6771 91.9129 58.6557 91.8487C58.5058 91.9343 58.3559 92.02 58.206 92.127C58.2489 92.1912 58.2274 92.2983 58.1632 92.3411C58.1418 92.3625 58.099 92.384 58.0776 92.4054C58.0562 92.4268 58.0133 92.4268 57.9919 92.4268C57.9491 92.4268 57.9063 92.4054 57.8635 92.3625C57.7136 92.4696 57.5851 92.5766 57.4566 92.6837C57.5209 92.7479 57.4995 92.855 57.4352 92.8978C57.4138 92.9192 57.3924 92.9406 57.3496 92.962C57.3282 92.9835 57.2853 93.0049 57.2425 93.0049C57.1997 93.0049 57.1569 92.9835 57.1355 92.962C57.007 93.0905 56.8785 93.1976 56.7501 93.326C56.536 93.4117 56.536 93.5187 56.4717 93.583Z" fill="#333333"/>
<path d="M62.6174 104.16C65.3135 104.16 67.4991 101.974 67.4991 99.2782C67.4991 96.5821 65.3135 94.3965 62.6174 94.3965C59.9212 94.3965 57.7356 96.5821 57.7356 99.2782C57.7356 101.974 59.9212 104.16 62.6174 104.16Z" fill="#666666"/>
<path d="M62.617 103.304C64.8401 103.304 66.6423 101.501 66.6423 99.2782C66.6423 97.0551 64.8401 95.2529 62.617 95.2529C60.3939 95.2529 58.5917 97.0551 58.5917 99.2782C58.5917 101.501 60.3939 103.304 62.617 103.304Z" fill="#808080"/>
<path d="M57.0918 87.2021H53.5375C53.302 87.2021 53.0878 87.3306 52.9808 87.5233L52.3599 88.6795C52.317 88.7652 52.21 88.8294 52.1243 88.8294C51.9959 88.8294 51.8888 88.9151 51.8674 89.0435L51.6961 89.9C51.6105 90.2854 51.9102 90.6494 52.2956 90.6494L53.302 91.6557L57.0918 87.2021Z" fill="#CD665D"/>
<path d="M56.3854 86.8604L54.7367 86.9032C54.5226 86.9032 54.3299 87.0316 54.2443 87.2029L52.4029 90.6501C52.2744 90.8643 52.3173 91.1426 52.51 91.3353L53.0667 91.892L56.3854 86.8604Z" fill="#FFC500"/>
<path d="M107.43 86.8809C107.066 86.3884 106.873 85.8103 106.873 85.2108V84.4186C106.873 83.5835 106.424 82.8341 105.696 82.4273L105.267 82.1918C104.732 81.892 104.325 81.4424 104.047 80.9071C103.019 78.766 100.321 73.1562 99.936 71.7645C99.936 71.272 100.15 70.9937 100.45 70.8652C100.45 70.8652 96.4888 72.3426 100.428 78.1022C101.97 80.3076 104.068 82.7057 103.105 87.1164L100.643 92.7261C100 94.1607 98.9511 95.3383 97.645 96.1305C97.281 96.3446 96.917 96.5373 96.5102 96.6872C95.718 97.0084 94.8615 97.1797 93.9623 97.2011L72.08 97.822C74.0926 98.6356 76.2552 99.0424 78.4177 98.9782C83.3637 98.8283 92.3992 98.55 95.3326 98.4001C99.465 98.2074 101.563 95.1456 101.563 95.1456L107.987 87.6731L107.43 86.8809Z" fill="#FFC500"/>
<path d="M83.7706 77.4184C83.4708 76.8189 82.8499 76.4121 82.1433 76.4335C78.7175 76.5405 70.7526 76.5619 60.9248 75.106C60.2825 74.9989 59.7043 75.5128 59.7043 76.1551V77.6325C59.7043 78.5532 60.3467 79.3668 61.246 79.6023H77.7326C77.7112 79.6237 81.8222 79.6238 83.7706 77.4184Z" fill="#333333"/>
<path d="M77.7108 79.6234H61.2241L61.4168 81.4434H83.085C83.6417 80.694 83.9415 79.7947 83.9415 78.8526V78.2103C83.9415 77.9319 83.8772 77.675 83.7488 77.4395C81.8218 79.6234 77.7108 79.6234 77.7108 79.6234Z" fill="#4D4D4D"/>
<path d="M116.872 89.3222L117.044 88.7013C117.172 88.2517 116.98 87.7592 116.594 87.4809C113.168 85.2113 109.55 86.8171 108.415 87.4594C109.186 87.2667 109.999 87.1597 110.813 87.1597C113.104 87.1383 115.224 87.9733 116.872 89.3222Z" fill="#FFC500"/>
<path d="M101.885 64.9993C99.7649 64.9779 98.5873 66.0699 96.8744 67.8256C94.669 70.1166 98.9941 77.6962 100.814 81.7215C102.634 85.7468 98.887 93.7118 95.8252 94.6753C84.1347 98.0369 79.2315 93.9045 78.9531 89.8792C78.7176 86.6675 81.4797 84.2481 82.6145 83.3916C82.9142 83.1775 83.0855 82.8349 83.0855 82.4495V81.3361H61.4173L61.0533 82.5566C60.9034 83.0918 60.5609 83.5415 60.1112 83.8626C54.1375 87.9308 51.8679 92.6199 51.1185 94.6753C50.9258 95.2106 51.2684 95.8101 51.8465 95.8958L52.6173 96.0242L70.4529 95.9386L71.759 97.5873C71.8446 97.6943 71.9517 97.78 72.0801 97.8228C72.1015 97.8228 72.1015 97.8228 72.1229 97.8442L94.0052 97.2233C96.8958 97.1376 99.4865 95.4033 100.664 92.7483L103.148 87.1172C104.111 82.7064 101.992 80.3084 100.471 78.103C96.5318 72.3434 100.493 70.866 100.493 70.866C100.835 70.7161 101.285 70.7161 101.692 70.7804C102.484 68.0397 102.163 65.9628 101.885 64.9993Z" fill="#E9B000"/>
<path d="M103.105 70.2661C103.726 69.0457 103.962 66.8831 104.047 65.8768C104.069 65.5556 103.855 65.2559 103.533 65.1917C102.913 65.0632 102.377 64.999 101.885 64.9775C102.142 65.9625 102.484 68.0393 101.649 70.7586C101.756 70.78 101.842 70.8014 101.928 70.8014C102.42 70.9085 102.891 70.6943 103.105 70.2661Z" fill="#666666"/>
<path d="M97.4093 70.3942C98.2252 70.3942 98.8866 69.7328 98.8866 68.9168C98.8866 68.1009 98.2252 67.4395 97.4093 67.4395C96.5933 67.4395 95.9319 68.1009 95.9319 68.9168C95.9319 69.7328 96.5933 70.3942 97.4093 70.3942Z" fill="#666666"/>
<path d="M97.4095 70.0305C98.0244 70.0305 98.5229 69.532 98.5229 68.9171C98.5229 68.3022 98.0244 67.8037 97.4095 67.8037C96.7946 67.8037 96.2961 68.3022 96.2961 68.9171C96.2961 69.532 96.7946 70.0305 97.4095 70.0305Z" fill="#808080"/>
<path d="M98.1372 68.9174C98.1372 68.5106 97.8161 68.1895 97.4092 68.1895C97.2808 68.1895 97.1523 68.2323 97.0453 68.2751L94.6686 69.6026C94.4331 69.7311 94.2832 69.9666 94.2832 70.2449C94.2832 70.6517 94.6044 70.9729 95.0112 70.9729C95.1397 70.9729 95.2681 70.9301 95.3538 70.8873L97.7304 69.5598C97.9874 69.4313 98.1372 69.1958 98.1372 68.9174Z" fill="#333333"/>
<path d="M107.816 94.7607L111.177 99.6639" stroke="#ADADAD" stroke-width="2.06002" stroke-miterlimit="10" stroke-linecap="round" stroke-linejoin="round"/>
<path d="M108.586 92.748L113.104 97.1588" stroke="#ADADAD" stroke-width="1.15877" stroke-miterlimit="10" stroke-linecap="round" stroke-linejoin="round"/>
<path d="M113.874 97.651L111.926 100.263C111.605 100.713 110.962 100.798 110.513 100.477C110.063 100.156 109.978 99.5137 110.299 99.0641L112.247 96.4519C112.568 96.0023 113.211 95.9166 113.66 96.2378C114.11 96.5804 114.196 97.2013 113.874 97.651Z" fill="#939393"/>
<path d="M107.816 94.7607L109.293 96.9019" stroke="#939393" stroke-width="2.83254" stroke-miterlimit="10" stroke-linecap="round" stroke-linejoin="round"/>
<path d="M118.992 91.6564L118.542 91.0998C118.071 90.436 117.493 89.8365 116.872 89.3226C115.224 87.9523 113.104 87.1387 110.813 87.1387C109.978 87.1387 109.164 87.2457 108.415 87.4384C104.539 88.4448 101.628 91.8277 101.306 95.9387C101.264 96.4526 101.135 96.9664 100.921 97.4161L100.9 97.4375C100.707 97.8229 100.964 98.2939 101.392 98.3368C102.527 98.4866 105.011 98.0798 109.807 94.3114C111.734 92.7698 115.459 92.9625 115.459 92.9625C115.459 92.9625 117.408 93.0268 118.799 92.4272C119.121 92.3202 119.206 91.9134 118.992 91.6564Z" fill="#E9B000"/>
<path d="M111.177 100.242C111.496 100.242 111.755 99.9833 111.755 99.664C111.755 99.3448 111.496 99.0859 111.177 99.0859C110.857 99.0859 110.599 99.3448 110.599 99.664C110.599 99.9833 110.857 100.242 111.177 100.242Z" fill="#4D4D4D"/>
<path d="M65.2499 97.3726L63.3015 99.9848C62.9803 100.434 62.338 100.52 61.8883 100.199C61.4387 99.8778 61.353 99.2354 61.6742 98.7858L63.6226 96.1736C63.9438 95.724 64.5861 95.6383 65.0358 95.9595C65.4854 96.2807 65.5711 96.923 65.2499 97.3726Z" fill="#939393"/>
<path d="M62.552 99.9423C62.8713 99.9423 63.1301 99.6835 63.1301 99.3642C63.1301 99.045 62.8713 98.7861 62.552 98.7861C62.2327 98.7861 61.9739 99.045 61.9739 99.3642C61.9739 99.6835 62.2327 99.9423 62.552 99.9423Z" fill="#4D4D4D"/>
<path d="M63.9437 99.4282L68.2688 98.8287C69.3608 98.6574 70.3671 98.1007 71.0951 97.2442L72.08 96.1309" stroke="#ADADAD" stroke-width="2.06002" stroke-miterlimit="10" stroke-linecap="round" stroke-linejoin="round"/>
<path d="M60.4538 99.1928C63.1027 99.1928 65.25 97.0455 65.25 94.3967C65.25 91.7479 63.1027 89.6006 60.4538 89.6006C57.805 89.6006 55.6577 91.7479 55.6577 94.3967C55.6577 97.0455 57.805 99.1928 60.4538 99.1928Z" fill="#ADADAD"/>
<path d="M53.4738 96.6442C53.0027 96.6442 52.6815 96.1731 52.8528 95.7449C53.6879 93.5181 56.3214 87.7585 61.7599 85.6174C68.5687 82.941 75.1848 85.6174 76.1483 89.0646C77.1118 92.5118 74.8422 96.6014 71.502 96.6656C68.6757 96.7298 56.8139 96.6656 53.4738 96.6442Z" fill="#FFC500"/>
<path d="M58.5267 94.9104H67.1983C68.3545 94.9104 69.4036 94.1824 69.8104 93.0904L70.153 92.1483C70.9238 90.05 69.3608 87.8232 67.134 87.8232H65.7423C62.6591 87.8232 59.8328 89.579 58.4411 92.341L57.7773 93.6899C57.4776 94.2466 57.8844 94.9104 58.5267 94.9104Z" fill="#E9B000"/>
<path d="M65.1002 87.8232H66.4491" stroke="#4D4D4D" stroke-width="0.901252" stroke-miterlimit="10" stroke-linecap="round" stroke-linejoin="round"/>
<path d="M60.6895 91.7402H67.3055" stroke="#4D4D4D" stroke-width="0.643763" stroke-miterlimit="10" stroke-linecap="round" stroke-linejoin="round"/>
<path d="M60.1115 92.8115H66.7275" stroke="#4D4D4D" stroke-width="0.643763" stroke-miterlimit="10" stroke-linecap="round" stroke-linejoin="round"/>
<path d="M59.5334 93.8604H66.1495" stroke="#4D4D4D" stroke-width="0.643763" stroke-miterlimit="10" stroke-linecap="round" stroke-linejoin="round"/>
<path d="M58.9556 94.9092H65.5717" stroke="#4D4D4D" stroke-width="0.643763" stroke-miterlimit="10" stroke-linecap="round" stroke-linejoin="round"/>
<path d="M58.7621 97.415H61.1601" stroke="#808080" stroke-width="0.515005" stroke-miterlimit="10" stroke-linecap="round" stroke-linejoin="round"/>
<path d="M59.2548 98.165H61.6528" stroke="#808080" stroke-width="0.515005" stroke-miterlimit="10" stroke-linecap="round" stroke-linejoin="round"/>
<path d="M95.611 63.3941C96.3324 63.3941 96.9171 62.5313 96.9171 61.4671C96.9171 60.4028 96.3324 59.54 95.611 59.54C94.8897 59.54 94.3049 60.4028 94.3049 61.4671C94.3049 62.5313 94.8897 63.3941 95.611 63.3941Z" fill="#666666"/>
<path d="M95.9324 63.3931C96.6538 63.3931 97.2385 62.5303 97.2385 61.4661C97.2385 60.4018 96.6538 59.5391 95.9324 59.5391C95.2111 59.5391 94.6263 60.4018 94.6263 61.4661C94.6263 62.5303 95.2111 63.3931 95.9324 63.3931Z" fill="#E9B000"/>
<path d="M99.1438 66.7767L96.7886 62.2375C96.5959 61.8735 96.2961 61.5952 95.9321 61.4453" stroke="#FFCA00" stroke-width="0.357159" stroke-miterlimit="10" stroke-linecap="round"/>
<path d="M99.23 66.9258L99.0801 66.6475" stroke="#FFCA00" stroke-width="0.952451" stroke-miterlimit="10" stroke-linecap="round"/>
<path d="M96.6822 108.122C96.9819 108.25 97.3245 108.507 97.2175 108.807C97.1318 109.021 96.8749 109.085 96.6608 109.107C95.0335 109.299 93.4063 108.999 91.779 109.042C90.8797 109.064 89.9805 109.214 89.124 109.021C88.8457 108.957 88.5673 108.85 88.3318 108.678C88.1177 108.486 87.9678 108.207 88.0106 107.907C88.032 107.736 88.1177 107.565 88.2033 107.415C88.6744 106.494 88.9741 105.488 89.0812 104.46C89.9162 104.396 90.7513 104.396 91.5863 104.46C91.9931 104.482 92.0359 105.081 92.2715 105.36C92.6355 105.809 93.1279 106.173 93.599 106.494C94.5411 107.158 95.6116 107.651 96.6822 108.122Z" fill="#E9B000"/>
<path d="M60.5398 108.122C60.2401 108.25 59.8975 108.507 60.0045 108.807C60.0902 109.021 60.3471 109.085 60.5612 109.107C62.1885 109.299 63.8157 108.999 65.443 109.042C66.3423 109.064 67.2415 109.214 68.098 109.021C68.3763 108.957 68.6547 108.85 68.8902 108.678C69.1043 108.486 69.2542 108.207 69.2114 107.907C69.19 107.736 69.1043 107.565 69.0187 107.415C68.5476 106.494 68.2479 105.488 68.1408 104.46C67.3058 104.396 66.4707 104.396 65.6357 104.46C65.2289 104.482 65.1861 105.081 64.9505 105.36C64.5865 105.809 64.0941 106.173 63.623 106.494C62.7024 107.158 61.6104 107.651 60.5398 108.122Z" fill="#E9B000"/>
<path d="M90.4947 55.6861C91.3726 58.9406 91.6295 62.345 92.5288 65.5995C93.428 68.854 95.0767 72.0871 97.9672 73.8428C98.8665 74.3995 99.8942 74.8063 100.644 75.5557C101.393 76.3051 101.95 77.4399 102.999 77.6112C101.864 79.4312 100.044 80.8015 97.9886 81.4224C95.4193 82.1932 92.6144 81.7864 90.0236 82.5144C86.5336 83.5207 83.3647 86.5611 79.8533 85.7261C77.862 85.255 76.4061 83.6278 74.6932 82.493C72.8518 81.2725 70.6036 80.5874 69.1263 78.9387C67.2207 76.7762 67.1564 73.5859 67.2635 70.7168C67.4562 65.2783 67.9486 59.6686 70.5608 54.8939C72.809 50.8043 77.0484 47.3571 81.8445 47.1216C86.9832 46.8861 89.2957 51.1683 90.4947 55.6861Z" fill="#CD665D"/>
<mask id="mask0" mask-type="alpha" maskUnits="userSpaceOnUse" x="67" y="47" width="36" height="39">
<path d="M90.4947 55.6861C91.3726 58.9406 91.6295 62.345 92.5288 65.5995C93.428 68.854 95.0767 72.0871 97.9672 73.8428C98.8665 74.3995 99.8942 74.8063 100.644 75.5557C101.393 76.3051 101.95 77.4399 102.999 77.6112C101.864 79.4312 100.044 80.8015 97.9886 81.4224C95.4193 82.1932 92.6144 81.7864 90.0236 82.5144C86.5336 83.5207 83.3647 86.5611 79.8533 85.7261C77.862 85.255 76.4061 83.6278 74.6932 82.493C72.8518 81.2725 70.6036 80.5874 69.1263 78.9387C67.2207 76.7762 67.1564 73.5859 67.2635 70.7168C67.4562 65.2783 67.9486 59.6686 70.5608 54.8939C72.809 50.8043 77.0484 47.3571 81.8445 47.1216C86.9832 46.8861 89.2957 51.1683 90.4947 55.6861Z" fill="#CD665D"/>
</mask>
<g mask="url(#mask0)">
<g style="mix-blend-mode:multiply" opacity="0.6">
<path opacity="0.6" d="M87.2614 67.9537C89.7023 66.8189 90.9869 65.9839 92.8497 64.3566C93.4278 63.8642 94.0059 63.3075 94.3271 62.5795C94.841 61.3591 94.2629 60.2457 93.7918 59.1323C93.6419 58.7469 93.4706 58.3615 93.2994 57.9547C93.4706 57.7406 93.6205 57.5265 93.7276 57.2909C93.7704 57.1839 93.8346 57.0768 93.8346 56.9698C93.8346 56.7771 93.7062 56.5844 93.5777 56.4345C91.8648 54.1863 91.3081 51.2315 89.5738 48.9834C88.8458 48.0413 87.9465 47.2705 87.0473 46.4997C86.4478 45.9858 85.9125 45.579 85.1631 45.2792C85.1631 45.1508 83.4288 44.7011 83.2361 44.6369C82.6366 44.4442 82.0799 44.1658 81.5018 43.8875C81.4375 43.8661 81.3947 43.8447 81.3305 43.8447C81.2876 43.8661 81.2448 43.8875 81.2234 43.9089C81.1806 43.9517 81.1378 43.9731 81.0949 44.016C80.9879 43.8233 80.9236 43.6091 80.8808 43.395L80.5811 41.2967L78.9752 38.1064L77.3694 41.2967L77.1339 43.3308C77.091 43.652 76.984 43.9517 76.7913 44.2087C76.7056 44.1444 76.62 44.0802 76.5343 44.016C74.8214 44.8296 72.9372 45.1079 71.3528 46.1571C70.218 46.9065 69.2331 47.8914 68.3981 48.962C66.6852 51.1887 66.1285 54.1649 64.3942 56.4131C64.2657 56.5844 64.1372 56.7557 64.1372 56.9484C64.1372 57.0554 64.18 57.1625 64.2443 57.2695C64.3727 57.5265 64.5226 57.7406 64.7153 57.9547C64.3299 58.7897 63.7518 59.689 63.6662 60.6097C63.5805 61.4447 63.9231 62.3012 64.4584 62.9649C64.9723 63.6287 65.6574 64.1639 66.3426 64.6778C67.8414 65.8126 69.3616 66.9688 70.8604 68.1036L70.8818 68.0822C70.9888 68.1893 71.1173 68.2749 71.2458 68.3177C71.3528 68.3606 71.4813 68.382 71.5883 68.382C69.4472 75.1907 65.0579 91.0993 64.3727 108.4H68.0341C68.0341 108.4 68.2054 98.3363 78.9538 74.4199C89.7023 98.3363 89.8736 108.4 89.8736 108.4H93.5349C92.8497 91.0993 88.439 75.1907 86.3193 68.382C86.4263 68.382 86.5334 68.3606 86.6619 68.3177C86.9616 68.2963 87.1329 68.1464 87.2614 67.9537ZM88.7388 63.6073C88.6745 63.6929 88.6317 63.7571 88.5675 63.8214C88.0108 64.5279 87.3042 65.0846 86.5762 65.5771C86.5548 65.5771 86.512 65.5985 86.4906 65.6199C86.4263 64.4637 86.0623 63.3503 85.9339 62.1941C85.8054 60.9737 85.9125 59.5605 86.0838 58.3615C86.1908 57.6549 86.2765 56.9698 86.3835 56.2632C86.4263 55.9206 86.6619 55.835 86.9402 56.0063C87.9037 56.6058 88.2249 58.3187 88.5246 59.325C88.5675 59.4749 88.6103 59.6248 88.7388 59.7104C88.8244 59.7746 88.9315 59.7746 89.0385 59.7746C89.1242 59.7746 89.1884 59.7746 89.274 59.7746C89.6594 61.1235 89.6166 62.344 88.7388 63.6073ZM68.8263 61.8729C68.5265 61.1664 68.5908 60.4384 68.8049 59.7318C68.8477 59.7318 68.8905 59.7318 68.9333 59.7104C69.0618 59.6462 69.1046 59.5177 69.1689 59.4106C69.5971 58.4043 70.1324 57.4408 70.7319 56.5201C70.8604 56.3274 70.9888 56.1561 71.1601 56.0277C71.5241 55.7921 71.7382 56.0919 71.7596 56.4559C71.8453 57.2909 71.9309 58.1474 72.0166 58.9824C72.2521 61.252 72.2949 63.543 71.8667 65.7912C71.8239 65.7698 71.781 65.7484 71.7596 65.727C71.0745 64.9776 70.4107 64.1854 69.7898 63.3931C69.4044 62.9007 69.0404 62.4082 68.8263 61.8729Z" fill="#ADADAD"/>
</g>
</g>
<path d="M84.4771 64.5707L78.6533 63.543L72.8294 64.5707C72.8294 64.5707 65.8065 83.8623 64.9501 105.488H68.3973C68.3973 105.488 68.5472 96.0238 78.6747 73.5634C88.7808 96.0453 88.9521 105.488 88.9521 105.488H92.3993C91.5 83.8623 84.4771 64.5707 84.4771 64.5707Z" fill="#314E78"/>
<path d="M84.9918 65.6417C84.9062 65.7059 84.8205 65.7487 84.7349 65.8129C85.056 66.3696 85.4414 66.8835 85.8697 67.3546C85.9339 67.4188 85.9981 67.483 86.0624 67.483C86.1266 67.483 86.1694 67.4616 86.2337 67.4402C88.1821 66.5623 90.002 65.4061 91.6293 63.993C92.186 63.5219 92.7213 63.0081 92.9996 62.3229C93.4921 61.1881 92.9354 60.139 92.5072 59.0898C91.9505 57.7623 91.3081 56.4562 90.7943 55.1073C87.9894 47.8275 83.8998 46.1788 81.8658 45.8148C81.0949 45.6864 80.5168 45.0869 80.4098 44.316L80.1314 42.3462L78.6327 39.3486L77.1339 42.3462L76.9198 44.2518C76.8341 45.044 76.2346 45.6864 75.4638 45.8148C73.3869 46.1788 69.2759 47.8275 66.4711 55.1073C66.1071 56.0708 65.7003 57.0343 65.272 57.9764C64.908 58.7901 64.3513 59.6251 64.2657 60.5244C64.1801 61.3166 64.5226 62.1088 65.0151 62.7297C65.5076 63.3507 66.1499 63.8431 66.7922 64.3356C68.2054 65.4061 69.6185 66.4981 71.0531 67.5687C71.4813 67.0976 71.8881 66.6266 72.3163 66.1341C72.3592 66.0913 72.402 66.0485 72.402 65.9842C72.402 65.8986 72.3592 65.8344 72.2949 65.7915C71.4599 64.9137 70.6891 63.993 69.9397 63.0509C69.5971 62.6227 69.2759 62.1516 69.0618 61.6378C68.5265 60.3745 69.2331 59.0256 69.747 57.848C70.0682 57.12 70.4321 56.3492 71.0102 55.7925C71.4171 55.3857 72.1022 55.1073 72.4876 55.7068C73.1514 56.7132 73.1514 57.9978 73.13 59.154C73.13 59.9463 72.8302 61.8305 73.3655 62.4514C73.5368 62.6441 73.7937 62.7297 74.0292 62.794C76.6628 63.5862 79.4891 63.4577 82.2297 63.3078C82.765 63.2864 83.3217 63.2436 83.7714 62.9653C84.692 62.3871 84.3281 60.8669 84.2638 59.9677C84.1782 58.7472 84.0925 56.8202 84.8205 55.7282C85.3344 54.9574 86.1694 55.6426 86.5762 56.1351C87.2828 57.0129 87.6896 58.1263 88.075 59.1755C88.6103 60.6528 88.6959 61.9375 87.7538 63.2864C87.711 63.3507 87.6468 63.4363 87.604 63.5005C86.8974 64.3998 85.9339 65.0421 84.9918 65.6417Z" fill="#E09B6C"/>
<path d="M92.314 56.5846C90.7082 54.4863 90.1729 51.7028 88.567 49.5831C87.8819 48.7052 87.0468 47.9772 86.1904 47.2493C85.6337 46.7568 85.1198 46.3714 84.4132 46.1145C84.4132 46.0074 82.786 45.5578 82.5933 45.4935C82.0366 45.3008 81.5013 45.0439 80.966 44.787C80.9232 44.7656 80.859 44.7441 80.7947 44.7441C80.7519 44.7441 80.7091 44.787 80.6877 44.8084C80.1096 45.3437 79.3174 45.6434 78.5252 45.6648C77.7329 45.6862 76.9407 45.4079 76.3198 44.894C74.7139 45.6648 72.9582 45.9218 71.4594 46.9067C70.3889 47.6132 69.4682 48.5339 68.676 49.5403C67.0487 51.6386 66.5349 54.422 64.929 56.5417C64.822 56.6916 64.6935 56.8629 64.6935 57.0556C64.6935 57.1627 64.7363 57.2697 64.8005 57.3554C65.5499 58.8113 67.2628 59.6036 68.9115 59.625C68.9757 59.625 69.0614 59.625 69.1256 59.6036C69.2327 59.5607 69.2969 59.4323 69.3397 59.3252C69.7465 58.3831 70.239 57.4624 70.7957 56.606C70.9027 56.4347 71.0312 56.2634 71.2025 56.1349C71.5451 55.9208 71.7378 56.1992 71.7806 56.5417C71.8663 57.334 71.9305 58.1262 72.0161 58.9184C72.2517 61.188 72.2731 63.5218 71.7806 65.7486C71.7592 65.877 71.7164 66.0269 71.7592 66.1554C71.802 66.2625 71.8877 66.3695 71.9947 66.4123C72.5086 66.6907 73.1295 66.3267 73.729 66.3481C74.2215 66.3695 74.6711 66.6693 75.1208 66.9048C76.5339 67.6542 78.2896 67.7612 79.7884 67.2045C80.7091 66.862 81.5655 66.2839 82.5291 66.2196C83.2785 66.1768 84.0064 66.4552 84.7558 66.5194C85.0128 66.5408 85.3125 66.5194 85.4624 66.3053C85.5695 66.1768 85.5909 66.0269 85.6123 65.8556C85.7407 64.5281 85.2483 63.2435 85.0984 61.916C84.9699 60.7598 85.077 59.4537 85.2269 58.2975C85.3125 57.6337 85.4196 56.9914 85.5052 56.3276C85.548 56.0065 85.7622 55.9208 86.0405 56.0921C86.9398 56.6488 87.2609 58.2761 87.5179 59.2181C87.5607 59.3466 87.6035 59.4965 87.732 59.5821C87.8176 59.6464 87.9247 59.6464 88.0318 59.6464C89.7232 59.732 91.6502 58.897 92.4639 57.334C92.5067 57.2483 92.5495 57.1413 92.5709 57.0342C92.5495 56.9057 92.4425 56.7344 92.314 56.5846Z" fill="#1C2A3F"/>
<path d="M75.2925 41.1043C75.3139 41.7038 75.3353 42.3247 75.6136 42.8814C76.0204 43.7165 76.9411 44.2303 77.8832 44.2732C78.8039 44.316 79.7246 43.9092 80.4312 43.2883C81.1377 42.6673 81.6302 41.8537 81.9728 40.9973C82.3368 40.1194 82.5723 39.1131 82.2939 38.2138C82.1226 37.6785 81.8015 37.2075 81.4375 36.8006C80.9236 36.2225 80.3241 35.6873 79.5747 35.4731C78.2044 35.0449 76.1917 35.6873 75.5494 37.0576C75.3353 37.5072 75.3781 37.9997 75.3781 38.4707C75.3353 39.3486 75.271 40.2264 75.2925 41.1043Z" fill="#E09B6C"/>
<path d="M80.3453 37.7C80.0027 37.1861 79.2961 37.0148 78.6752 37.1005C78.0543 37.1861 77.4976 37.4645 76.8981 37.6786C75.8275 38.064 74.4786 38.171 73.665 37.3788C72.9584 36.6723 72.9156 35.4518 73.4937 34.6168C74.0504 33.7817 75.0781 33.3535 76.0845 33.3535C76.7696 33.3535 77.4762 33.5462 78.0757 33.9102C78.5039 34.1671 78.8893 34.5097 79.339 34.7667C80.1954 35.2377 81.266 35.3234 82.0154 35.9657C83.5142 37.2718 82.7862 39.7341 82.0154 41.2329C81.8869 41.4898 81.737 41.7681 81.5657 42.0037C81.4801 42.1321 81.373 42.2606 81.266 42.3891C81.2017 42.4747 81.009 42.6246 80.9662 42.7316C81.1375 42.175 81.2874 41.5754 81.2232 40.9973C81.737 41.0616 81.8013 40.3978 81.8655 40.0552C81.9083 39.7127 81.9511 39.263 81.6942 38.9847C81.4801 38.7492 81.0519 38.7706 80.8806 39.0489C80.7949 39.1988 80.7735 39.3915 80.7735 39.5628C80.7735 39.6912 80.7521 39.8197 80.7521 39.9482C80.6022 39.9482 80.4524 39.9268 80.3025 39.8839C80.2811 39.8839 80.2596 39.8625 80.2596 39.8625C80.2382 39.8411 80.2382 39.7983 80.2596 39.7555C80.4523 39.0917 80.7949 38.3637 80.3453 37.7Z" fill="black"/>
<path d="M72.7229 65.4065C73.0655 65.3423 73.4081 65.2352 73.7721 65.1924C73.8363 65.1924 73.9005 65.1924 73.9648 65.2138C74.029 65.2352 74.0718 65.2994 74.1361 65.3423C74.5001 65.7063 74.8426 66.0702 75.0782 66.5199C75.3137 66.9695 75.4422 67.5048 75.2923 67.9758C75.2709 68.0187 75.2709 68.0615 75.228 68.1043C75.1852 68.1471 75.1424 68.19 75.0782 68.2114C74.8641 68.3398 74.6499 68.4255 74.4144 68.297C74.2859 68.2328 74.1789 68.1257 74.0718 68.0401C73.8577 67.8474 73.6436 67.6761 73.4295 67.5262C73.4081 67.5476 73.4295 67.5904 73.4509 67.6119C73.7078 67.8474 73.9648 68.0829 74.2217 68.3398C74.2645 68.3827 74.3074 68.4255 74.2859 68.4683C74.2859 68.5325 74.2003 68.5539 74.1361 68.5539C73.922 68.5754 73.7293 68.4469 73.558 68.3612C73.3867 68.2542 73.194 68.1471 73.0441 68.0401C72.9799 67.9758 72.9156 67.933 72.83 67.8902C72.6159 67.7617 72.4232 67.8474 72.1876 67.8688C71.9093 67.8902 71.6524 67.933 71.374 67.826C70.8387 67.6119 70.6032 66.9695 70.4962 66.3914C70.4747 66.2201 70.4533 66.0488 70.4962 65.899C70.5818 65.5778 70.9244 65.3851 71.2241 65.2566C71.5453 65.1281 71.6095 65.2566 71.8451 65.3851C72.1234 65.4707 72.466 65.4493 72.7229 65.4065Z" fill="#E09B6C"/>
<path d="M84.5417 65.4065C84.1991 65.3423 83.8565 65.2352 83.4925 65.1924C83.4283 65.1924 83.3641 65.1924 83.2998 65.2138C83.2356 65.2352 83.1928 65.2994 83.1285 65.3423C82.7646 65.7063 82.422 66.0702 82.1864 66.5199C81.9509 66.9695 81.8225 67.5048 81.9723 67.9758C81.9937 68.0187 81.9937 68.0615 82.0366 68.1043C82.0794 68.1471 82.1222 68.19 82.1864 68.2114C82.4006 68.3398 82.6147 68.4255 82.8502 68.297C82.9787 68.2328 83.0857 68.1257 83.1928 68.0401C83.4069 67.8474 83.621 67.6761 83.8351 67.5262C83.8565 67.5476 83.8351 67.5904 83.8137 67.6119C83.5568 67.8474 83.2998 68.0829 83.0429 68.3398C83.0001 68.3827 82.9573 68.4255 82.9787 68.4683C82.9787 68.5325 83.0643 68.5539 83.1285 68.5539C83.3427 68.5754 83.5354 68.4469 83.7066 68.3612C83.8779 68.2542 84.0706 68.1471 84.2205 68.0401C84.2847 67.9758 84.349 67.933 84.4346 67.8902C84.6487 67.7617 84.8414 67.8474 85.077 67.8688C85.3553 67.8902 85.6122 67.933 85.8906 67.826C86.4259 67.6119 86.6614 66.9695 86.7685 66.3914C86.7899 66.2201 86.8113 66.0488 86.7685 65.899C86.6828 65.5778 86.3402 65.3851 86.0405 65.2566C85.7193 65.1281 85.6551 65.2566 85.4195 65.3851C85.1626 65.4707 84.82 65.4493 84.5417 65.4065Z" fill="#E09B6C"/>
</svg>
