<svg width="121" height="120" viewBox="0 0 121 120" fill="none" xmlns="http://www.w3.org/2000/svg">
<rect x="0.635986" width="120" height="120" rx="60" fill="white"/>
<path d="M66.0552 69.7724C66.0552 71.284 66.0552 72.7957 66.0552 74.3074C66.0552 74.7541 66.0666 75.2007 66.0552 75.6473C66.0437 76.1512 65.7002 76.3459 65.2421 76.1398C65.1734 76.1054 65.1047 76.0711 65.036 76.0367C64.0511 75.5443 63.0662 75.0518 62.0813 74.5594C61.8866 74.4563 61.6805 74.399 61.4629 74.3647C60.8216 74.2616 60.3635 74.6853 60.4207 75.2923C60.4436 75.5214 60.5696 75.6931 60.7299 75.8535C62.6997 77.8118 64.6695 79.7816 66.6278 81.7513C67.2348 82.3583 67.899 82.8736 68.7006 83.1943C70.4414 83.9043 72.1707 83.9731 73.8312 82.9653C75.4116 82.0033 76.2934 80.5718 76.3163 78.7051C76.3622 76.0252 76.3278 73.3454 76.3278 70.6656C76.3278 70.5855 76.3278 70.5167 76.3163 70.4366C76.2705 70.0014 75.927 69.6807 75.4918 69.6578C74.9306 69.6349 74.5413 69.9785 74.5298 70.5511C74.5184 71.2611 74.5184 71.9597 74.5184 72.6698C74.5184 72.7957 74.5184 72.9217 74.4725 73.0477C74.3924 73.2653 74.2435 73.4027 74.003 73.4027C73.7625 73.4027 73.5907 73.2653 73.5335 73.0248C73.5106 72.8988 73.4991 72.7728 73.4991 72.6468C73.4991 71.6276 73.4991 70.5969 73.4877 69.5777C73.4762 69.0623 73.0639 68.7073 72.56 68.7188C72.079 68.7302 71.7011 69.0967 71.7011 69.5891C71.6897 70.6084 71.7011 71.6162 71.6897 72.6354C71.6897 72.7614 71.6897 72.8873 71.6553 73.0133C71.5981 73.2538 71.4148 73.4027 71.1858 73.4027C70.9338 73.4027 70.762 73.2653 70.7048 73.0133C70.6819 72.8873 70.6704 72.7614 70.6704 72.6354C70.6704 71.4215 70.6704 70.1961 70.6704 68.9822C70.6704 68.8447 70.6704 68.6959 70.659 68.5584C70.6017 68.0545 70.1322 67.711 69.6283 67.8026C69.1816 67.8827 68.8724 68.2149 68.8724 68.6729C68.861 70.0014 68.8724 71.3299 68.861 72.6583C68.861 72.7843 68.8495 72.9103 68.8266 73.0362C68.7694 73.2767 68.5861 73.4256 68.3571 73.4256C68.1051 73.4256 67.9448 73.2882 67.8761 73.0362C67.8417 72.8988 67.8417 72.7728 67.8417 72.6354C67.8417 69.864 67.8417 67.0925 67.8417 64.3211C67.8417 64.1837 67.8417 64.0577 67.8303 63.9203C67.7959 63.3591 67.2348 62.9698 66.6965 63.1301C66.2613 63.2561 66.0437 63.5767 66.0437 64.1035C66.0552 65.9702 66.0552 67.8713 66.0552 69.7724Z" fill="#F9CA47"/>
<path d="M55.8855 63.7716L50.9839 58.8701C50.8122 58.6983 50.8122 58.412 50.9839 58.2402L52.9423 56.2819C53.114 56.1101 53.4003 56.1101 53.5721 56.2819L55.874 58.5838C56.0458 58.7556 56.3321 58.7556 56.5039 58.5838L62.9286 52.1591C63.1003 51.9873 63.3866 51.9873 63.5584 52.1591L65.5168 54.1174C65.6885 54.2892 65.6885 54.5755 65.5168 54.7473L56.5039 63.7602C56.3436 63.9434 56.0687 63.9434 55.8855 63.7716Z" fill="#F9CA47"/>
<path d="M71.7013 72.6357C71.7013 72.7617 71.7013 72.8877 71.667 73.0137C71.6097 73.2542 71.4265 73.403 71.1975 73.403C70.9455 73.403 70.7737 73.2656 70.7165 73.0137C70.6936 72.8877 70.6821 72.7617 70.6821 72.6357C70.6821 71.4218 70.6821 70.1964 70.6821 68.9825C70.6821 68.8451 70.6821 68.6962 70.6707 68.5588C70.6363 68.261 70.4645 68.0205 70.2126 67.8945V75.0407C70.2126 76.0943 69.3651 76.9418 68.3115 76.9418H61.8181C63.2382 78.3618 64.6583 79.7819 66.0783 81.2134H67.7503C70.0522 81.2134 71.9075 79.3467 71.9075 77.0563V69.0169C71.7701 69.1657 71.6899 69.3719 71.6899 69.5895C71.7013 70.5973 71.7013 71.6165 71.7013 72.6357Z" fill="#F9CA47"/>
<path d="M67.7617 36H48.3045C46.0026 36 44.1473 37.8667 44.1473 40.1571V77.0561C44.1473 79.3579 46.014 81.2132 48.3045 81.2132H63.2725C62.6426 80.5833 62.0127 79.9535 61.3829 79.3236H54.2367C54.042 79.3236 53.8931 79.1747 53.8931 78.98C53.8931 78.7853 54.042 78.6365 54.2367 78.6365H60.7072C60.1575 78.0868 59.6078 77.5371 59.0581 76.9873C59.0466 76.9759 59.0237 76.953 59.0123 76.9415H47.7548C46.7012 76.9415 45.8537 76.0941 45.8537 75.0405V42.1613C45.8537 41.1077 46.7012 40.2602 47.7548 40.2602H68.3229C69.3765 40.2602 70.224 41.1077 70.224 42.1613V65.9933C70.6935 66.0505 71.1287 66.2796 71.518 66.6689C71.6784 66.8293 71.8044 67.024 71.8845 67.2301C71.896 67.2644 71.9074 67.2874 71.9303 67.2988V40.1571C71.9303 37.8553 70.0636 36 67.7617 36ZM61.8295 38.4966H54.2482C54.0535 38.4966 53.9046 38.3477 53.9046 38.153C53.9046 37.9583 54.0535 37.8094 54.2482 37.8094H61.8295C62.0242 37.8094 62.1731 37.9583 62.1731 38.153C62.1731 38.3477 62.0242 38.4966 61.8295 38.4966Z" fill="#F9CA47"/>
</svg>
