<svg width="121" height="120" viewBox="0 0 121 120" fill="none" xmlns="http://www.w3.org/2000/svg">
<rect x="0.635986" width="120" height="120" rx="60" fill="white"/>
<path d="M46.635 44.212V41.1807H72.7421V77.8375L70.0179 74.9129V44.212H46.635Z" fill="#F9CA47"/>
<path d="M51.5499 39.0314V36H77.657V72.6701L74.9328 69.7323V39.0314H51.5499Z" fill="#F9CA47"/>
<path d="M42.629 46.2285V83.0322L45.7939 79.5602L48.852 83.0322L52.0436 79.5602L55.1685 83.0322L58.507 79.5602L61.2846 83.0322L64.5296 79.5602L67.6945 83.0322V46.2285H42.629ZM46.9157 53.5332H58.4135C58.7073 53.5332 58.9343 53.7602 58.9343 54.054C58.9343 54.3478 58.7073 54.5748 58.4135 54.5748H46.9157C46.6219 54.5748 46.3949 54.3478 46.3949 54.054C46.3949 53.7602 46.6219 53.5332 46.9157 53.5332ZM58.4001 71.5878H46.9023C46.6085 71.5878 46.3815 71.3608 46.3815 71.067C46.3815 70.7732 46.6085 70.5462 46.9023 70.5462H58.4001C58.6939 70.5462 58.9209 70.7732 58.9209 71.067C58.9209 71.3608 58.6939 71.5878 58.4001 71.5878ZM60.8973 71.5878C60.6035 71.5878 60.3765 71.3608 60.3765 71.067C60.3765 70.7732 60.6035 70.5462 60.8973 70.5462C61.1911 70.5462 61.4181 70.7732 61.4181 71.067C61.4181 71.3608 61.1778 71.5878 60.8973 71.5878ZM63.0874 71.5878C62.7936 71.5878 62.5666 71.3608 62.5666 71.067C62.5666 70.7732 62.7936 70.5462 63.0874 70.5462C63.3812 70.5462 63.6082 70.7732 63.6082 71.067C63.6082 71.3608 63.3812 71.5878 63.0874 71.5878ZM63.0874 62.7074H46.9157C46.6219 62.7074 46.3949 62.4804 46.3949 62.1866C46.3949 61.8928 46.6219 61.6658 46.9157 61.6658H63.1007C63.3945 61.6658 63.6216 61.8928 63.6216 62.1866C63.6216 62.4804 63.3812 62.7074 63.0874 62.7074ZM63.0874 58.6478H46.9157C46.6219 58.6478 46.3949 58.4207 46.3949 58.1269C46.3949 57.8332 46.6219 57.6061 46.9157 57.6061H63.1007C63.3945 57.6061 63.6216 57.8332 63.6216 58.1269C63.6082 58.4074 63.3812 58.6478 63.0874 58.6478Z" fill="#F9CA47"/>
</svg>
