<svg width="120" height="120" viewBox="0 0 120 120" fill="none" xmlns="http://www.w3.org/2000/svg">
<path d="M0.532126 106.469C-0.177375 106.427 -0.177375 106.093 0.532126 106.051C1.88853 105.968 3.26579 105.884 4.62219 105.801C6.95938 105.676 9.29656 105.55 11.6337 105.446C13.9709 105.342 16.3081 105.258 18.6453 105.175C19.8139 105.133 20.9825 105.091 22.1511 105.07C23.3196 105.029 24.4882 105.008 25.6568 104.966C30.3312 104.841 35.0056 104.757 39.6799 104.695C44.3543 104.632 49.0286 104.611 53.703 104.611C58.3774 104.611 63.0517 104.632 67.7261 104.695C72.4005 104.757 77.0748 104.841 81.7492 104.966C82.9178 104.987 84.0864 105.029 85.255 105.07C86.4236 105.112 87.5921 105.133 88.7607 105.175C91.0979 105.258 93.4351 105.342 95.7723 105.446C98.1095 105.55 100.447 105.655 102.784 105.801C104.161 105.884 105.517 105.968 106.895 106.051C107.604 106.093 107.604 106.427 106.895 106.469C105.517 106.552 104.161 106.635 102.784 106.719C100.447 106.844 98.1095 106.969 95.7723 107.074C93.4351 107.178 91.0979 107.262 88.7607 107.345C87.5921 107.387 86.4236 107.428 85.255 107.449C84.0864 107.491 82.9178 107.512 81.7492 107.554C77.0748 107.679 72.4005 107.762 67.7261 107.825C63.0517 107.888 58.3774 107.908 53.703 107.908C49.0286 107.908 44.3543 107.888 39.6799 107.825C35.0056 107.762 30.3312 107.679 25.6568 107.554C24.4882 107.533 23.3196 107.491 22.1511 107.449C20.9825 107.408 19.8139 107.387 18.6453 107.345C16.3081 107.262 13.9709 107.178 11.6337 107.074C9.29656 106.969 6.95938 106.865 4.62219 106.719C3.26579 106.635 1.90939 106.552 0.532126 106.469Z" fill="#ADADAD"/>
<path d="M101.783 53.6728L105.247 54.4657C106.207 54.6744 107.146 54.0901 107.354 53.1302L107.396 52.9424L100.468 51.3564L100.426 51.5443C100.238 52.5042 100.844 53.4641 101.783 53.6728Z" fill="#F4767F"/>
<path d="M94.8748 52.0868L98.3388 52.8798C99.2988 53.0885 100.238 52.5042 100.446 51.5443L100.488 51.3565L93.5601 49.7705L93.5184 49.9583C93.3306 50.9391 93.9149 51.8781 94.8748 52.0868Z" fill="#FFD2D7"/>
<path d="M44.6462 102.503C52.5342 102.503 54.9131 105.257 61.5491 106.155H44.6462H27.7434C34.3793 105.257 36.7583 102.503 44.6462 102.503Z" fill="#E9B000"/>
<path d="M67.8301 97.1396L66.8076 98.2665L72.9427 104.339H75.3216L67.8301 97.1396Z" fill="#78452A"/>
<path d="M74.4247 87.416H55.6229V90.6296H74.4247V87.416Z" fill="#78452A"/>
<path d="M76.511 87.416H57.7092V90.6296H76.511V87.416Z" fill="#A4603C"/>
<path d="M94.0817 97.1396L93.0592 98.2665L99.1943 104.339H101.573L94.0817 97.1396Z" fill="#78452A"/>
<path d="M107.353 65.6717C107.353 82.4911 99.6113 97.5158 87.4871 107.365H19.8758C7.75168 97.5158 0.00976562 82.4911 0.00976562 65.6717C0.00976562 36.0187 24.0285 12 53.6815 12C83.3345 12 107.353 36.0187 107.353 65.6717Z" fill="#E0E0E0"/>
<path d="M53.6818 24.9805L62.7801 52.9849H92.2244L68.4144 70.2842L77.5127 98.2887L53.6818 80.9894L29.8509 98.2887L38.9492 70.2842L15.1392 52.9849H44.5835L53.6818 24.9805Z" stroke="white" stroke-width="4.92305" stroke-miterlimit="10" stroke-linecap="round" stroke-linejoin="round"/>
<path d="M93.5814 49.7917L80.7269 57.3249L72.8389 45.0547" stroke="#35140B" stroke-width="0.518216" stroke-miterlimit="10"/>
<path d="M86.0689 36.666L68.4565 104.82" stroke="#35140B" stroke-width="0.777324" stroke-miterlimit="10"/>
<path d="M83.2095 47.4129L107.416 52.9428L86.0683 36.666L59.0029 41.8829L83.2095 47.4129Z" fill="#D4484C"/>
<path d="M87.9467 50.5224L91.4108 51.3153C92.3707 51.524 93.3097 50.9397 93.5184 49.9798L93.5601 49.792L86.6321 48.2061L86.5903 48.3939C86.4025 49.3538 87.0077 50.2928 87.9467 50.5224Z" fill="#F4767F"/>
<path d="M81.0397 48.9364L84.5038 49.7294C85.4637 49.9381 86.4027 49.3538 86.6114 48.3939L86.6531 48.2061L79.7251 46.6201L79.6833 46.8079C79.4955 47.7678 80.0798 48.7278 81.0397 48.9364Z" fill="#FFD2D7"/>
<path d="M74.1115 47.3505L77.5756 48.1435C78.5355 48.3521 79.4745 47.7678 79.6832 46.8079L79.7249 46.6201L72.7968 45.0342L72.7551 45.222C72.5673 46.1819 73.1725 47.1418 74.1115 47.3505Z" fill="#F4767F"/>
<path d="M67.2046 45.7851L70.6687 46.578C71.6286 46.7867 72.5676 46.2024 72.7763 45.2425L72.8181 45.0547L65.89 43.4688L65.8482 43.6566C65.6604 44.6165 66.2447 45.5555 67.2046 45.7851Z" fill="#FFD2D7"/>
<path d="M60.2763 44.1991L63.7403 44.9921C64.7003 45.2008 65.6393 44.6165 65.848 43.6566L65.8897 43.4688L58.9616 41.8828L58.9199 42.0706C58.7321 43.0305 59.3373 43.9905 60.2763 44.1991Z" fill="#F4767F"/>
<path d="M86.0685 36.666L100.509 51.3569L93.5809 49.7918L86.0685 36.666Z" fill="white"/>
<path d="M86.0688 36.666L86.6739 48.2059L79.7458 46.6199L86.0688 36.666Z" fill="white"/>
<path d="M86.0688 36.666L72.8387 45.0548L65.9106 43.4689L86.0688 36.666Z" fill="white"/>
<path d="M86.4234 71.1592H84.3784L54.9341 104.339H56.4157L86.4234 71.1592Z" fill="#78452A"/>
<path d="M69.7711 94.9483L79.8293 104.339H75.3219L67.8304 97.1395L61.2362 104.339H56.4158L74.049 84.8275L86.4026 71.1592L88.6772 72.9121L69.7711 94.9483Z" fill="#A4603C"/>
<path d="M86.1105 73.3096L114.511 73.4348L95.4175 95.6171C92.5795 98.7682 88.5311 100.563 84.295 100.521H65.8688H61.5492L86.1105 73.3096Z" fill="#4B7BAA"/>
<path d="M112.675 71.1592H110.63L81.1854 104.339H82.667L112.675 71.1592Z" fill="#78452A"/>
<path d="M96.0226 94.9483L106.081 104.339H101.573L94.0819 97.1395L87.4877 104.339H82.6672L100.3 84.8275L112.654 71.1592L114.929 72.9121L96.0226 94.9483Z" fill="#A4603C"/>
<path d="M77.3046 92.8213C77.868 99.8328 84.7752 100.501 84.7752 100.501H50.5522C50.5522 100.501 43.645 99.8537 43.0815 92.8213H77.3046Z" fill="#568CCC"/>
<path d="M43.0815 92.8213C43.2902 95.4089 44.3753 97.1409 45.6483 98.2886C46.4204 98.9773 47.276 99.4572 48.0272 99.7911C49.8427 98.08 52.0964 95.9514 52.9102 95.1167C53.7241 94.282 54.3292 93.5099 54.8092 92.8213H43.0815Z" fill="#568CCC"/>
<path d="M96.8988 87.416H78.097V90.6296H96.8988V87.416Z" fill="#78452A"/>
<path d="M98.9861 87.416H80.1843V90.6296H98.9861V87.416Z" fill="#A4603C"/>
<path d="M75.1133 102.503C94.6037 102.503 100.468 105.257 116.849 106.155H75.1133H33.3779C49.7591 105.257 55.6229 102.503 75.1133 102.503Z" fill="#FFC501"/>
<path d="M106.749 103.525C112.926 103.525 114.804 105.508 120 106.134H106.749H93.498C98.6941 105.508 100.572 103.525 106.749 103.525Z" fill="#E9B000"/>
</svg>
