<svg width="121" height="120" viewBox="0 0 121 120" fill="none" xmlns="http://www.w3.org/2000/svg">
<path d="M109.933 66.2827C109.933 83.2935 102.005 98.4892 89.59 108.451H20.3543C7.9389 98.4892 0.0109863 83.2935 0.0109863 66.2827C0.0109863 36.2921 24.6068 12 54.9722 12C85.3376 12 109.933 36.2921 109.933 66.2827Z" fill="#E0E0E0"/>
<path d="M0.544911 107.543C-0.181637 107.501 -0.181637 107.164 0.544911 107.121C1.9339 107.037 3.34426 106.952 4.73324 106.868C7.12658 106.741 9.51991 106.615 11.9132 106.509C14.3066 106.404 16.6999 106.319 19.0932 106.235C20.2899 106.193 21.4866 106.15 22.6832 106.129C23.8799 106.087 25.0766 106.066 26.2732 106.024C31.0599 105.897 35.8466 105.813 40.6332 105.749C45.4199 105.686 50.2066 105.665 54.9932 105.665C59.7799 105.665 64.5666 105.686 69.3532 105.749C74.1399 105.813 78.9266 105.897 83.7132 106.024C84.9099 106.045 86.1066 106.087 87.3032 106.129C88.4999 106.172 89.6966 106.193 90.8932 106.235C93.2866 106.319 95.6799 106.404 98.0732 106.509C100.467 106.615 102.86 106.72 105.253 106.868C106.664 106.952 108.053 107.037 109.463 107.121C110.189 107.164 110.189 107.501 109.463 107.543C108.053 107.628 106.664 107.712 105.253 107.797C102.86 107.923 100.467 108.05 98.0732 108.155C95.6799 108.261 93.2866 108.345 90.8932 108.43C89.6966 108.472 88.4999 108.514 87.3032 108.535C86.1066 108.578 84.9099 108.599 83.7132 108.641C78.9266 108.768 74.1399 108.852 69.3532 108.915C64.5666 108.979 59.7799 109 54.9932 109C50.2066 109 45.4199 108.979 40.6332 108.915C35.8466 108.852 31.0599 108.768 26.2732 108.641C25.0766 108.62 23.8799 108.578 22.6832 108.535C21.4866 108.493 20.2899 108.472 19.0932 108.43C16.6999 108.345 14.3066 108.261 11.9132 108.155C9.51991 108.05 7.12658 107.944 4.73324 107.797C3.34426 107.712 1.95527 107.628 0.544911 107.543Z" fill="#ADADAD"/>
<path d="M82.3462 59.6565C82.3462 44.3552 69.7812 31.9453 54.2886 31.9453C38.7961 31.9453 26.2311 44.3552 26.2311 59.6565C26.2311 68.2885 30.2057 77.4482 34.8001 84.6873C37.0652 88.2541 39.7577 91.5887 42.7921 94.5645C44.4375 96.1896 46.1898 97.6881 48.0275 99.1022C48.7113 99.6298 53.6262 103.661 54.2673 103.281C68.9478 94.7123 82.3462 77.1316 82.3462 59.6565Z" stroke="white" stroke-width="5.02394" stroke-miterlimit="10" stroke-linecap="round" stroke-linejoin="round"/>
<path d="M54.2885 74.5782C62.6323 74.5782 69.3964 67.8976 69.3964 59.6568C69.3964 51.4159 62.6323 44.7354 54.2885 44.7354C45.9446 44.7354 39.1805 51.4159 39.1805 59.6568C39.1805 67.8976 45.9446 74.5782 54.2885 74.5782Z" stroke="white" stroke-width="5.02394" stroke-miterlimit="10" stroke-linecap="round" stroke-linejoin="round"/>
<path d="M117.69 71.834H66.9817C66.0629 71.834 65.3149 72.5727 65.3149 73.4802V105.771C65.3149 106.679 66.0629 107.417 66.9817 107.417H117.69C118.609 107.417 119.357 106.679 119.357 105.771V73.4802C119.379 72.5727 118.631 71.834 117.69 71.834Z" fill="#895837"/>
<path d="M93.6926 96.0419C92.9447 96.3163 92.1113 96.3163 91.342 96.0419L87.8589 94.7545V96.6329C87.8589 97.0972 88.2222 97.456 88.6923 97.456H96.321C96.7911 97.456 97.1544 97.0972 97.1544 96.6329V94.7334L93.6926 96.0419Z" fill="#DEAC5F"/>
<g style="mix-blend-mode:multiply">
<path d="M119.379 87.1986V73.4802C119.379 72.5727 118.631 71.834 117.712 71.834H66.9817C66.0629 71.834 65.3149 72.5727 65.3149 73.4802V86.7976C65.6782 87.283 66.1911 87.6629 66.7894 87.8951L87.8807 95.7462L91.3638 97.0336C92.1117 97.308 92.9451 97.308 93.7144 97.0336L97.1976 95.7462L118.289 87.8951C118.673 87.7473 119.058 87.4941 119.379 87.1986Z" fill="#BCCDD3"/>
</g>
<path d="M117.092 68.8154H67.9647C66.1697 68.8154 64.7166 70.2084 64.6311 71.9601H120.383C120.34 70.2084 118.866 68.8154 117.092 68.8154Z" fill="#CE9759"/>
<path d="M64.6526 71.9609C64.6526 72.0031 64.6526 72.0454 64.6526 72.1087V83.8432C64.6526 85.215 65.5074 86.4391 66.8109 86.9245L91.3639 96.0631C92.1118 96.3375 92.9452 96.3375 93.7145 96.0631L118.268 86.9245C119.571 86.4391 120.426 85.215 120.426 83.8432V72.1087C120.426 72.0665 120.426 72.0243 120.426 71.9609H64.6526Z" fill="#A16A3D"/>
<path d="M96.3429 91.5039H88.7141C88.244 91.5039 87.8807 91.8627 87.8807 92.327V94.733L91.3639 96.0204C92.1118 96.2948 92.9452 96.2948 93.7145 96.0204L97.1976 94.733V92.3059C97.1763 91.8627 96.813 91.5039 96.3429 91.5039Z" fill="#F7CB74"/>
<path d="M101.45 70.3769H99.5481V67.3799C99.5481 66.3669 98.7147 65.5438 97.689 65.5438H86.9831C85.9574 65.5438 85.124 66.3669 85.124 67.3799V70.3769H83.2222V67.3799C83.2222 65.3327 84.9103 63.6865 86.9618 63.6865H97.689C99.7618 63.6865 101.429 65.3538 101.429 67.3799V70.3769H101.45Z" fill="#5D3D27"/>
</svg>
