<svg width="121" height="98" viewBox="0 0 121 98" fill="none" xmlns="http://www.w3.org/2000/svg">
<path d="M110.127 54.7267C110.127 71.8767 102.233 87.1967 89.8702 97.2399H20.9299C8.56743 87.1967 0.67334 71.8767 0.67334 54.7267C0.67334 24.4908 25.1642 0 55.4 0C85.6359 0 110.127 24.4908 110.127 54.7267Z" fill="#E0E0E0"/>
<path d="M1.20567 96.3244C0.482224 96.2818 0.482224 95.9414 1.20567 95.8988C2.58873 95.8137 3.99307 95.7286 5.37613 95.6435C7.75926 95.5158 10.1424 95.3882 12.5255 95.2818C14.9086 95.1754 17.2917 95.0903 19.6749 95.0052C20.8664 94.9626 22.058 94.9201 23.2495 94.8988C24.4411 94.8562 25.6327 94.8349 26.8242 94.7924C31.5905 94.6647 36.3567 94.5796 41.123 94.5158C45.8892 94.4519 50.6554 94.4307 55.4217 94.4307C60.1879 94.4307 64.9542 94.4519 69.7204 94.5158C74.4867 94.5796 79.2529 94.6647 84.0192 94.7924C85.2107 94.8137 86.4023 94.8562 87.5938 94.8988C88.7854 94.9413 89.977 94.9626 91.1685 95.0052C93.5516 95.0903 95.9348 95.1754 98.3179 95.2818C100.701 95.3882 103.084 95.4946 105.467 95.6435C106.872 95.7286 108.255 95.8137 109.659 95.8988C110.382 95.9414 110.382 96.2818 109.659 96.3244C108.255 96.4095 106.872 96.4946 105.467 96.5797C103.084 96.7074 100.701 96.8351 98.3179 96.9415C95.9348 97.0478 93.5516 97.133 91.1685 97.2181C89.977 97.2606 88.7854 97.3032 87.5938 97.3245C86.4023 97.367 85.2107 97.3883 84.0192 97.4308C79.2529 97.5585 74.4867 97.6436 69.7204 97.7075C64.9542 97.7713 60.1879 97.7926 55.4217 97.7926C50.6554 97.7926 45.8892 97.7713 41.123 97.7075C36.3567 97.6436 31.5905 97.5585 26.8242 97.4308C25.6327 97.4096 24.4411 97.367 23.2495 97.3245C22.058 97.2819 20.8664 97.2606 19.6749 97.2181C17.2917 97.133 14.9086 97.0478 12.5255 96.9415C10.1424 96.8351 7.75926 96.7287 5.37613 96.5797C3.99307 96.4946 2.61001 96.4095 1.20567 96.3244Z" fill="#ADADAD"/>
<path d="M121 21.917H105.339V96.1129H121V21.917Z" fill="#314E78"/>
<path d="M100.126 42.0029H84.4658V96.1126H100.126V42.0029Z" fill="#3E6593"/>
<path d="M79.2313 60.1533H63.5708V96.1342H79.2313V60.1533Z" fill="#4B7BAA"/>
<path d="M58.3577 77.708H42.6971V96.1134H58.3577V77.708Z" fill="#568CCC"/>
<path d="M12.8864 62.8756L34.3983 41.3637L48.2715 55.2369L75.0816 28.4268" stroke="white" stroke-width="4.98259" stroke-linecap="round" stroke-linejoin="round"/>
<path d="M83.6991 19.8096C81.1458 25.3631 78.6775 32.9593 78.2945 38.8107L73.9538 29.5548L64.7192 25.2141C70.5494 24.8099 78.1456 22.3629 83.6991 19.8096Z" fill="white"/>
</svg>
