<svg width="120" height="120" viewBox="0 0 120 120" fill="none" xmlns="http://www.w3.org/2000/svg">
<path d="M112.934 65.9617C112.934 83.4987 104.862 99.1645 92.2204 109.434H21.7243C9.08286 99.1645 1.01062 83.4987 1.01062 65.9617C1.01062 35.0435 26.0541 10 56.9723 10C87.8905 10 112.934 35.0435 112.934 65.9617Z" fill="#E0E0E0"/>
<path d="M1.55483 108.498C0.815057 108.454 0.815057 108.106 1.55483 108.063C2.9691 107.976 4.40513 107.889 5.81941 107.802C8.25631 107.671 10.6932 107.541 13.1301 107.432C15.567 107.323 18.0039 107.236 20.4408 107.149C21.6593 107.105 22.8777 107.062 24.0962 107.04C25.3146 106.997 26.5331 106.975 27.7515 106.931C32.6253 106.801 37.4991 106.714 42.3729 106.649C47.2467 106.583 52.1205 106.562 56.9943 106.562C61.8681 106.562 66.7419 106.583 71.6157 106.649C76.4895 106.714 81.3633 106.801 86.2371 106.931C87.4556 106.953 88.674 106.997 89.8925 107.04C91.1109 107.084 92.3294 107.105 93.5478 107.149C95.9847 107.236 98.4217 107.323 100.859 107.432C103.295 107.541 105.732 107.649 108.169 107.802C109.605 107.889 111.02 107.976 112.456 108.063C113.195 108.106 113.195 108.454 112.456 108.498C111.02 108.585 109.605 108.672 108.169 108.759C105.732 108.89 103.295 109.02 100.859 109.129C98.4217 109.238 95.9847 109.325 93.5478 109.412C92.3294 109.455 91.1109 109.499 89.8925 109.521C88.674 109.564 87.4556 109.586 86.2371 109.629C81.3633 109.76 76.4895 109.847 71.6157 109.912C66.7419 109.978 61.8681 109.999 56.9943 109.999C52.1205 109.999 47.2467 109.978 42.3729 109.912C37.4991 109.847 32.6253 109.76 27.7515 109.629C26.5331 109.608 25.3146 109.564 24.0962 109.521C22.8777 109.477 21.6593 109.455 20.4408 109.412C18.0039 109.325 15.567 109.238 13.1301 109.129C10.6932 109.02 8.25631 108.911 5.81941 108.759C4.40513 108.672 2.99086 108.585 1.55483 108.498Z" fill="#ADADAD"/>
<path d="M46.115 85.9291L17.0245 56.1423L29.0567 44.393L46.2891 62.0387L78.4693 30.0762L90.3274 42.0213L46.115 85.9291Z" stroke="white" stroke-width="5.68842" stroke-miterlimit="10" stroke-linecap="round" stroke-linejoin="round"/>
<path d="M118.352 51.6667H110.965C110.472 51.6667 110.075 51.2134 110.075 50.6605V33.5061C110.075 32.9483 110.476 32.5 110.965 32.5H118.352C118.846 32.5 119.242 32.9533 119.242 33.5061V50.6605C119.242 51.2134 118.846 51.6667 118.352 51.6667Z" fill="#1A1A1A"/>
<path d="M114.526 108.194H82.2914C80.1386 108.194 78.4087 106.214 78.4087 103.799V28.8639C78.4087 26.427 80.1579 24.4688 82.2914 24.4688H114.526C116.679 24.4688 118.409 26.4487 118.409 28.8639V103.799C118.409 106.214 116.679 108.194 114.526 108.194Z" fill="#1A1A1A"/>
<path d="M113.693 108.194H81.4582C79.3054 108.194 77.5754 106.214 77.5754 103.799V28.8639C77.5754 26.427 79.3246 24.4688 81.4582 24.4688H113.693C115.845 24.4688 117.575 26.4487 117.575 28.8639V103.799C117.575 106.214 115.845 108.194 113.693 108.194Z" fill="#1A1A1A"/>
<path d="M116.596 29.4082H78.5562V103.212H116.596V29.4082Z" fill="white"/>
<path d="M102.871 27.7976H92.2993C92.0878 27.7976 91.8956 27.6018 91.8956 27.3407C91.8956 27.1014 92.0686 26.8838 92.2993 26.8838H102.871C103.083 26.8838 103.275 27.0796 103.275 27.3407C103.256 27.6018 103.083 27.7976 102.871 27.7976Z" fill="white"/>
<path d="M102.871 105.953H92.2993C92.0878 105.953 91.8956 105.757 91.8956 105.496C91.8956 105.257 92.0686 105.039 92.2993 105.039H102.871C103.083 105.039 103.275 105.235 103.275 105.496C103.256 105.757 103.083 105.953 102.871 105.953Z" fill="white"/>
<path d="M90.7425 27.8201C90.9655 27.8201 91.1462 27.6155 91.1462 27.3632C91.1462 27.1108 90.9655 26.9062 90.7425 26.9062C90.5196 26.9062 90.3389 27.1108 90.3389 27.3632C90.3389 27.6155 90.5196 27.8201 90.7425 27.8201Z" fill="white"/>
<path d="M115.85 51.0137H79.4919V60.8918H115.85V51.0137Z" fill="#FFCA00"/>
<path d="M114 54.9961H81.3634V56.8673H114V54.9961Z" fill="#1C2A3F"/>
<path d="M113.979 55.9307C113.565 63.1108 109.257 72.0099 101.25 71.8576H101.228C100.663 71.8358 100.075 71.7923 99.466 71.6835C94.5051 70.7914 90.654 66.6139 85.5191 66.3963C85.258 66.3745 84.9751 66.3745 84.714 66.3963H78.0343C80.0578 63.3284 81.1675 59.4337 81.3633 55.9524H113.979V55.9307Z" fill="#B4D9AA"/>
<path d="M84.6926 66.3964C80.8849 66.5704 77.3601 69.0508 74.6621 71.8794C73.9224 72.6627 73.2479 73.446 72.6386 74.2293C69.5925 78.1892 67.0686 82.976 65.4802 87.7192L65.0016 89.003L63.7178 87.741L61.7596 89.6992L59.9102 87.828L57.952 89.7863L55.9285 87.7628L53.8832 89.7863L51.8379 87.7628L50.0103 89.5904L48.0085 87.5887L46.0721 89.5252L44.2444 87.6975L42.4602 89.4816L40.6108 87.6322L38.6743 89.5687L36.7379 87.6322L34.7579 89.6122L32.8214 87.6757C34.4097 82.9325 36.9554 78.1457 39.9798 74.1857C42.9389 70.3346 47.6604 66.1353 52.8388 66.3528H84.6926V66.3964Z" fill="#ABCEA1"/>
<path d="M101.228 71.858H74.6836C77.3816 69.0295 80.9064 66.5491 84.7141 66.375H85.5191C90.654 66.5926 94.5052 70.7919 99.466 71.6622C100.053 71.7928 100.641 71.858 101.228 71.858Z" fill="#8DB781"/>
<path d="M85.4323 59.7178H95.4845" stroke="#E3F3DE" stroke-width="1.79634" stroke-miterlimit="10"/>
<path d="M98.9216 59.7178H108.386" stroke="#E3F3DE" stroke-width="1.79634" stroke-miterlimit="10"/>
<path d="M87.934 62.502H91.8286" stroke="#E3F3DE" stroke-width="1.79634" stroke-miterlimit="10"/>
<path d="M94.5706 62.502H105.188" stroke="#E3F3DE" stroke-width="1.79634" stroke-miterlimit="10"/>
<path d="M47.0724 71.8574H69.2221" stroke="#E3F3DE" stroke-width="1.79634" stroke-miterlimit="10"/>
<path d="M43.9829 75.5137H49.7053" stroke="#E3F3DE" stroke-width="1.79634" stroke-miterlimit="10"/>
<path d="M53.2297 75.5137H65.0008" stroke="#E3F3DE" stroke-width="1.79634" stroke-miterlimit="10"/>
<path d="M41.6985 79.0596H54.8403" stroke="#E3F3DE" stroke-width="1.79634" stroke-miterlimit="10"/>
<path d="M58.1473 79.0596H61.9115" stroke="#E3F3DE" stroke-width="1.79634" stroke-miterlimit="10"/>
<path d="M84.6926 66.3964C80.8849 66.5704 77.3601 69.0508 74.6621 71.8794C73.9224 72.6627 73.2479 73.446 72.6386 74.2293C69.5925 78.1892 67.0686 82.976 65.4802 87.7192L65.0016 89.003L63.7178 87.741L61.7596 89.6992L59.9102 87.828L57.952 89.7863L55.9285 87.7628L53.8832 89.7863L51.8379 87.7628L50.0103 89.5904L48.0085 87.5887L46.0721 89.5252L44.2444 87.6975L42.4602 89.4816L40.6108 87.6322L38.6743 89.5687L36.7379 87.6322L34.7579 89.6122L32.8214 87.6757C34.4097 82.9325 36.9554 78.1457 39.9798 74.1857C42.9389 70.3346 47.6604 66.1353 52.8388 66.3528H84.6926V66.3964Z" fill="url(#paint0_linear)"/>
<path d="M113.979 55.9307C113.565 63.1108 109.257 72.0099 101.25 71.8576H101.228C100.663 71.8358 100.075 71.7923 99.466 71.6835C94.5051 70.7914 90.654 66.6139 85.5191 66.3963C85.258 66.3745 84.9751 66.3745 84.714 66.3963H78.0343C80.0578 63.3284 81.1675 59.4337 81.3633 55.9524H113.979V55.9307Z" fill="url(#paint1_linear)"/>
<defs>
<linearGradient id="paint0_linear" x1="58.7745" y1="89.8361" x2="58.7745" y2="66.3789" gradientUnits="userSpaceOnUse">
<stop stop-color="white" stop-opacity="0"/>
<stop offset="1" stop-color="white" stop-opacity="0.8"/>
</linearGradient>
<linearGradient id="paint1_linear" x1="95.999" y1="71.8662" x2="95.999" y2="55.9392" gradientUnits="userSpaceOnUse">
<stop stop-color="white" stop-opacity="0"/>
<stop offset="1" stop-color="white" stop-opacity="0.5"/>
</linearGradient>
</defs>
</svg>
