<svg width="121" height="120" viewBox="0 0 121 120" fill="none" xmlns="http://www.w3.org/2000/svg">
<rect x="0.635986" width="120" height="120" rx="60" fill="white"/>
<path d="M78.9986 78.112C79.0247 78.2558 79.077 78.5433 79.1162 78.844C79.26 79.942 78.5672 80.5694 77.4953 80.321C77.2862 80.2688 77.0771 80.2034 76.8679 80.1511C75.7438 79.8635 74.9333 80.4387 74.8549 81.602C74.8418 81.8373 74.8549 82.0857 74.8288 82.321C74.7111 83.3405 73.9791 83.7719 73.038 83.3798C72.8158 83.2883 72.6066 83.1575 72.3975 83.053C71.2864 82.517 70.3976 82.9353 70.0708 84.1379C69.9923 84.4124 69.9531 84.6869 69.8355 84.9353C69.4956 85.7195 68.8028 85.9417 68.0839 85.4842C67.7964 85.3012 67.548 85.066 67.2735 84.8699C66.3846 84.2555 65.4827 84.4647 64.9599 85.4058C64.7899 85.7195 64.6461 86.0463 64.4239 86.3339C63.9795 86.9352 63.339 87.0005 62.7639 86.5169C62.5416 86.3339 62.3586 86.0855 62.1756 85.8503C61.326 84.8045 60.3979 84.7915 59.5352 85.811C59.3653 86.0071 59.2215 86.2293 59.0385 86.4123C58.398 87.0528 57.6137 86.9613 57.1301 86.2032C56.9602 85.9417 56.8425 85.628 56.6857 85.3535C56.1889 84.4908 55.3524 84.2686 54.5027 84.8045C54.2413 84.9745 54.006 85.1967 53.7446 85.3797C52.9211 85.9679 52.0976 85.7195 51.7708 84.7523C51.6924 84.5039 51.6532 84.2425 51.5747 84.0072C51.261 82.9484 50.3852 82.5563 49.3918 83.0007C49.1696 83.0922 48.9735 83.2229 48.7513 83.3275C47.7056 83.8111 46.9082 83.3405 46.8429 82.1903C46.8167 81.8112 46.8429 81.4321 46.7122 81.0661C46.4377 80.2949 45.771 79.9158 44.9737 80.0988C44.7253 80.1511 44.477 80.2426 44.2286 80.308C43.1306 80.5825 42.4247 79.955 42.5685 78.8309C42.6077 78.5303 42.6731 78.2427 42.6862 77.9421C42.7123 76.9225 42.0195 76.2689 40.9869 76.3473C40.83 76.3604 40.6732 76.3996 40.5163 76.4127C39.3268 76.5173 38.7125 75.7068 39.1177 74.5958C39.2484 74.2298 39.4575 73.8768 39.4706 73.4585C39.4968 72.6612 39.0523 72.073 38.268 71.9161C37.9543 71.8508 37.6406 71.8377 37.3269 71.7593C36.4119 71.5371 36.072 70.8312 36.4773 69.9946C36.608 69.7332 36.791 69.4979 36.9478 69.2365C37.523 68.2953 37.2485 67.3673 36.242 66.9228C35.9283 66.7791 35.6015 66.7006 35.3008 66.5438C34.5688 66.1516 34.412 65.4588 34.9087 64.7922C35.0655 64.57 35.2878 64.387 35.4838 64.1909C36.4119 63.289 36.3204 62.2694 35.2224 61.5505C35.0002 61.4067 34.778 61.2891 34.5688 61.1322C33.9022 60.5832 33.9022 59.7989 34.5688 59.2368C34.7649 59.0669 35.0002 58.9493 35.2093 58.8186C36.2943 58.1127 36.3988 57.0801 35.4708 56.1781C35.3139 56.0213 35.144 55.8906 35.0002 55.7206C34.3597 54.9364 34.5296 54.1651 35.4446 53.7338C35.6407 53.6423 35.8498 53.59 36.059 53.4985C37.2746 53.0018 37.5622 52.0476 36.8302 50.9627C36.6995 50.7666 36.5557 50.5705 36.4511 50.3614C36.059 49.5248 36.4119 48.7928 37.3138 48.5967C37.5883 48.5314 37.8628 48.5183 38.1373 48.4529C39.2484 48.2307 39.719 47.3811 39.3268 46.3092C39.2615 46.1262 39.17 45.9432 39.1046 45.7602C38.6994 44.6492 39.3268 43.8387 40.5163 43.9433C40.6732 43.9564 40.83 43.9956 40.9869 44.0087C42.0195 44.0871 42.7123 43.4335 42.6862 42.4139C42.6731 42.0349 42.5816 41.6689 42.5685 41.2898C42.5424 40.3617 43.1698 39.8389 44.0717 40.0219C44.3201 40.0742 44.5685 40.1526 44.8168 40.2179C45.9802 40.5055 46.7775 39.9173 46.8429 38.7147C46.856 38.4925 46.8429 38.2703 46.856 38.0612C46.9605 37.0547 47.7056 36.5972 48.6467 36.9893C48.9082 37.0939 49.1435 37.2377 49.3918 37.3553C50.3983 37.8128 51.261 37.4076 51.5747 36.3619C51.6532 36.1004 51.6924 35.8129 51.7839 35.5515C52.1237 34.6495 52.8819 34.4012 53.6792 34.9371C53.9145 35.094 54.1106 35.29 54.3328 35.4469C55.2609 36.1266 56.202 35.9175 56.7249 34.911C56.8556 34.6626 56.9602 34.4012 57.1039 34.1659C57.5876 33.3947 58.3588 33.3032 59.0124 33.9306C59.1431 34.0482 59.2607 34.192 59.3653 34.3358C60.3718 35.6168 61.2606 35.6168 62.2933 34.3227C62.3979 34.179 62.5155 34.0482 62.6462 33.9175C63.2998 33.3162 64.0449 33.4077 64.5154 34.1397C64.6723 34.3881 64.7899 34.6757 64.9337 34.9371C65.4566 35.9044 66.3977 36.1266 67.2866 35.473C67.548 35.29 67.7833 35.0678 68.0447 34.8979C68.7767 34.4404 69.4564 34.6365 69.8093 35.4207C69.9401 35.7083 69.9923 36.022 70.0708 36.3357C70.3845 37.4207 71.2733 37.8259 72.306 37.3553C72.5413 37.2507 72.7635 37.1069 72.9988 37.0024C73.9661 36.5972 74.7111 37.0416 74.8157 38.0873C74.8549 38.4664 74.7896 38.8455 74.9203 39.2115C75.1948 40.0742 75.8353 40.4532 76.7241 40.2441C76.9986 40.1787 77.2601 40.0872 77.5346 40.0219C78.5411 39.7997 79.2208 40.4009 79.1162 41.4336C79.0901 41.7473 79.0116 42.061 78.9986 42.3747C78.9593 43.4335 79.6652 44.0871 80.737 43.9956C80.8939 43.9825 81.0508 43.9302 81.2076 43.9172C82.3579 43.8257 82.9723 44.623 82.5932 45.7079C82.5148 45.9302 82.4102 46.1524 82.3318 46.3746C81.9919 47.3942 82.4755 48.2177 83.5213 48.4268C83.7565 48.466 83.9918 48.5052 84.2271 48.5444C85.3382 48.7536 85.7042 49.5509 85.129 50.5313C85.0114 50.7404 84.8545 50.9234 84.7369 51.1326C84.1748 52.0868 84.4755 53.0018 85.495 53.4332C85.7826 53.5508 86.0963 53.6554 86.3708 53.7991C87.1159 54.2044 87.2728 54.9233 86.763 55.603C86.593 55.8252 86.3839 56.0082 86.1878 56.2043C85.299 57.1062 85.4166 58.1127 86.4754 58.8055C86.7107 58.9624 86.959 59.0931 87.1682 59.263C87.7695 59.7859 87.7956 60.4786 87.2205 61.0276C86.9983 61.2499 86.7107 61.4067 86.4493 61.5766C85.4297 62.2694 85.3251 63.2498 86.1878 64.1386C87.5342 65.5242 87.4035 66.1516 85.6258 66.8575C84.4101 67.3411 84.1225 68.3084 84.8676 69.3933C84.9853 69.5633 85.1029 69.7201 85.1944 69.89C85.665 70.792 85.299 71.5632 84.3055 71.7723C84.0572 71.8246 83.7958 71.8508 83.5343 71.903C82.4755 72.0991 81.9919 72.8965 82.3187 73.9291C82.384 74.1383 82.4755 74.3343 82.554 74.5435C82.9984 75.733 82.3318 76.5695 81.0508 76.3865C80.8155 76.3473 80.5802 76.3081 80.3449 76.3473C79.4299 76.5042 78.9855 77.0401 78.9986 78.112ZM44.9083 74.8049C44.9214 74.8703 44.9214 74.9226 44.9345 74.9487C45.039 75.0663 45.1436 75.184 45.2482 75.3016C50.529 80.6609 56.9209 82.87 64.3455 81.7589C76.1751 79.9812 84.2533 68.6875 82.1357 56.9101C80.0573 45.3158 69.0643 37.5775 57.4177 39.499C50.895 40.5839 45.8887 44.0479 42.4117 49.6947C40.7777 52.3482 39.8628 55.2501 39.4968 58.3218C39.3791 59.2761 39.4183 59.3153 40.3595 59.3153C41.5751 59.3153 42.7907 59.3545 43.9933 59.2891C45.3005 59.2238 46.6076 59.2107 47.9278 59.2891C49.4049 59.3937 50.712 59.0277 51.7185 57.8382C53.0649 56.2435 54.4243 54.6619 55.5877 52.9103C56.6595 51.3025 57.2869 49.5509 57.1039 47.5641C57.0517 47.0151 57.0647 46.453 57.0909 45.8909C57.1562 44.0348 58.2804 42.9891 60.1234 43.0675C61.5874 43.1329 62.6201 43.9825 63.4174 45.0805C65.0383 47.2896 65.4566 49.7339 64.62 52.3744C64.2932 53.4331 63.8488 54.4658 63.6527 55.5638C63.3782 57.0278 63.8226 57.8251 65.2344 58.3349C66.0186 58.6225 66.8421 58.8055 67.6526 58.9493C69.0381 59.2107 70.4499 59.3806 71.6655 60.1911C73.6262 61.5243 74.0314 64.5308 72.4367 66.2823C72.1753 66.5699 72.0446 66.8444 72.0707 67.2366C72.1883 68.8051 71.574 70.06 70.3976 71.0665C70.1492 71.2756 70.0446 71.4978 70.0446 71.8246C70.0446 73.4585 69.2996 74.6742 67.914 75.5108C67.6918 75.6415 67.5741 75.7853 67.5219 76.0598C67.1689 77.9551 65.7441 79.1315 63.7965 79.1838C62.4763 79.223 61.1822 79.0662 59.8751 78.9093C58.8294 78.7786 57.7837 78.6218 56.751 78.4126C54.8164 78.0335 53.3655 76.8048 51.9146 75.5892C51.4963 75.2363 51.1042 74.8833 50.5552 74.7788C48.8167 74.4389 47.0782 74.6481 45.3266 74.6742C45.209 74.7003 45.0652 74.7657 44.9083 74.8049ZM47.5095 66.6353C47.5357 67.9816 47.5618 69.145 47.8494 70.2953C48.2154 71.7331 48.8559 72.3475 50.346 72.4128C51.6009 72.4651 52.5551 73.001 53.4832 73.7984C54.555 74.7265 55.6138 75.7068 57.1039 76.0075C58.3588 76.2558 59.6006 76.465 60.8685 76.5957C61.8881 76.7133 62.9207 76.831 63.9664 76.7264C64.986 76.6218 65.3389 76.1643 65.1298 75.2363C64.9076 74.2298 65.3128 73.6677 66.3585 73.6285C66.8944 73.6154 67.2212 73.3671 67.4434 72.9226C67.6918 72.3998 67.7833 71.8769 67.5219 71.3148C67.2081 70.6351 67.4565 70.0077 68.0839 69.7201C69.7571 68.962 70.0316 68.3084 69.4041 66.5438C69.1427 65.7987 69.3911 65.2105 70.1231 64.8968C71.3256 64.3739 71.4694 63.0668 70.4237 62.2694C69.9401 61.9034 69.3911 61.6812 68.8159 61.5113C67.6918 61.1714 66.5154 61.0669 65.3651 60.8185C62.2018 60.1519 60.6724 57.7336 61.4829 54.6226C61.7181 53.7207 62.0319 52.8319 62.3194 51.943C62.8684 50.296 62.8031 48.7013 62.0057 47.1458C61.6659 46.4791 61.1822 45.9171 60.5417 45.538C59.8359 45.1197 59.496 45.3027 59.4699 46.1132C59.4568 46.453 59.4829 46.7929 59.5222 47.1197C59.7052 49.1719 59.4307 51.1326 58.3327 52.9103C57.1301 54.8579 55.7576 56.6879 54.3328 58.4787C52.9603 60.178 51.4179 61.5113 49.1435 61.7596C48.5291 61.825 48.1892 62.2694 47.9932 62.8446C47.5095 64.1517 47.601 65.485 47.5095 66.6353Z" fill="#F9CA47"/>
</svg>
