<svg width="121" height="120" viewBox="0 0 121 120" fill="none" xmlns="http://www.w3.org/2000/svg">
<rect x="0.635986" width="120" height="120" rx="60" fill="white"/>
<path d="M76.3813 43.0721L69.3068 50.1467C64.2335 45.0735 55.9861 45.0735 50.9128 50.1467C45.8396 55.2199 45.8396 63.4674 50.9128 68.5406L43.8383 75.6152C34.8647 66.6417 34.8647 52.0457 43.8383 43.0721C52.8025 34.0893 67.4078 34.0986 76.3813 43.0721Z" fill="#F9E8B6"/>
<path d="M76.3811 43.0721C85.3547 52.0457 85.3547 66.6417 76.3811 75.6152L69.3065 68.5406C74.3797 63.4674 74.3797 55.2199 69.3065 50.1467C64.2333 45.0735 55.9858 45.0735 50.9126 50.1467L43.838 43.0721C52.8023 34.0893 67.4075 34.0986 76.3811 43.0721Z" fill="#F9CA47"/>
<path d="M76.7351 42.6996C85.9414 51.9059 85.9507 66.8835 76.7351 76.0991C72.2484 80.5859 66.2722 83.0433 59.9237 83.0061H59.4024L59.4024 71.5378L59.933 71.5471C63.219 71.5751 66.3187 70.3184 68.6366 68.0005C73.3747 63.2624 73.384 55.5456 68.6366 50.7981C63.8985 46.06 56.1816 46.0507 51.4342 50.7981C46.6868 55.5456 46.6868 63.2531 51.4342 68.0005L51.8065 68.3729L51.4435 68.7545L43.7173 76.4807L43.3357 76.0991C34.1294 66.8928 34.1294 51.9059 43.3357 42.6996C52.5419 33.4933 67.5196 33.484 76.7351 42.6996ZM60.4543 81.9542C66.3281 81.8518 71.8295 79.5154 75.9905 75.3544C84.7871 66.5577 84.7871 52.241 75.9905 43.4443C67.1938 34.6476 52.877 34.6476 44.0803 43.4443C35.4047 52.12 35.2837 66.1667 43.7173 74.9914L50.3358 68.3729C45.5418 63.188 45.6628 55.0801 50.6895 50.0534C55.8372 44.9057 64.2243 44.8964 69.3813 50.0534C74.529 55.2011 74.5383 63.5882 69.3813 68.7452C66.9797 71.1469 63.8333 72.5059 60.4543 72.6083L60.4543 81.9542Z" fill="#F9CA47"/>
<path d="M55.8231 52.3701H65.1698V52.3833C64.6169 53.2258 64.3141 53.6866 64.2351 53.7392H61.7339C62.0762 54.1342 62.3131 54.6344 62.4316 55.2005H65.0908C65.1172 55.2005 65.1435 55.2136 65.1435 55.24C64.5511 56.1351 64.2483 56.5827 64.2351 56.5827H62.5106C62.4711 57.0435 62.2473 57.5964 61.8524 58.2415C61.3258 58.8997 60.8124 59.3209 60.3253 59.5184C59.417 59.9528 58.5481 60.1635 57.7187 60.1635V60.1766C57.7187 60.2425 57.9162 60.5057 58.3243 60.9797L62.9319 66.5482V66.8115C62.9319 66.8378 62.9187 66.851 62.8792 66.851H60.8519C57.2053 62.5989 55.3755 60.4662 55.3755 60.4399V59.1498L55.3886 59.0971C55.7177 59.1366 56.0864 59.163 56.5208 59.163C58.5613 59.163 59.8382 58.5047 60.3385 57.1751C60.4175 56.9777 60.4569 56.7802 60.4569 56.5696H54.9016C54.8752 56.5696 54.8621 56.5564 54.8621 56.5301C55.4808 55.6349 55.7967 55.1873 55.8099 55.1873H60.22V55.1741C59.9699 54.6607 59.4828 54.2658 58.7587 53.9762C58.2453 53.805 57.7714 53.7261 57.3633 53.7261H54.9016V53.6734C55.494 52.8177 55.8099 52.3701 55.8231 52.3701Z" fill="#F9CA47"/>
</svg>
