<svg width="120" height="120" viewBox="0 0 120 120" fill="none" xmlns="http://www.w3.org/2000/svg">
<path d="M104.102 62.437C104.102 78.5901 96.6665 93.0196 85.0227 102.479H20.0899C8.44607 93.0196 1.01086 78.5901 1.01086 62.437C1.01086 33.9588 24.078 10.8916 52.5563 10.8916C81.0345 10.8916 104.102 33.9588 104.102 62.437Z" fill="#E0E0E0"/>
<path d="M1.51105 101.618C0.829652 101.578 0.829652 101.257 1.51105 101.217C2.81371 101.137 4.13641 101.056 5.43908 100.976C7.68367 100.856 9.92826 100.736 12.1728 100.636C14.4174 100.535 16.662 100.455 18.9066 100.375C20.0289 100.335 21.1512 100.295 22.2735 100.275C23.3958 100.235 24.5181 100.215 25.6404 100.175C30.1296 100.054 34.6188 99.9743 39.1079 99.9142C43.5971 99.854 48.0863 99.834 52.5755 99.834C57.0647 99.834 61.5538 99.854 66.043 99.9142C70.5322 99.9743 75.0214 100.054 79.5106 100.175C80.6329 100.195 81.7551 100.235 82.8774 100.275C83.9997 100.315 85.122 100.335 86.2443 100.375C88.4889 100.455 90.7335 100.535 92.9781 100.636C95.2227 100.736 97.4673 100.836 99.7119 100.976C101.035 101.056 102.337 101.137 103.66 101.217C104.341 101.257 104.341 101.578 103.66 101.618C102.337 101.698 101.035 101.778 99.7119 101.858C97.4673 101.978 95.2227 102.099 92.9781 102.199C90.7335 102.299 88.4889 102.379 86.2443 102.459C85.122 102.499 83.9997 102.54 82.8774 102.56C81.7551 102.6 80.6329 102.62 79.5106 102.66C75.0214 102.78 70.5322 102.86 66.043 102.92C61.5538 102.98 57.0647 103 52.5755 103C48.0863 103 43.5971 102.98 39.1079 102.92C34.6188 102.86 30.1296 102.78 25.6404 102.66C24.5181 102.64 23.3958 102.6 22.2735 102.56C21.1512 102.519 20.0289 102.499 18.9066 102.459C16.662 102.379 14.4174 102.299 12.1728 102.199C9.92826 102.099 7.68367 101.998 5.43908 101.858C4.13641 101.778 2.83375 101.698 1.51105 101.618Z" fill="#ADADAD"/>
<path d="M40.4506 93.2201L15.9204 84.1816V34.5L40.4506 43.5184V93.2201Z" stroke="white" stroke-width="5.66645" stroke-miterlimit="10" stroke-linecap="round" stroke-linejoin="round"/>
<path d="M64.9807 84.1806L40.4506 93.2191V43.5175L64.9807 34.499V84.1806Z" stroke="white" stroke-width="5.66645" stroke-miterlimit="10" stroke-linecap="round" stroke-linejoin="round"/>
<path d="M89.511 93.2191L64.9808 84.1806V34.499L89.511 43.5175V93.2191Z" stroke="white" stroke-width="5.66645" stroke-miterlimit="10" stroke-linecap="round" stroke-linejoin="round"/>
<path d="M118.771 66.3458C118.771 54.221 108.931 44.3809 96.8062 44.3809C84.6814 44.3809 74.8413 54.221 74.8413 66.3458C74.8413 73.1798 77.9477 80.4546 81.555 86.1864C83.3387 89.0121 85.443 91.6576 87.8279 94.0023C89.1105 95.285 90.4933 96.4874 91.9363 97.5897C92.4774 98.0105 96.3252 101.197 96.8263 100.896C108.29 94.1426 118.771 80.1941 118.771 66.3458Z" fill="#7AA13A"/>
<path d="M96.8063 80.1937C104.455 80.1937 110.655 73.9936 110.655 66.3454C110.655 58.6972 104.455 52.4971 96.8063 52.4971C89.1581 52.4971 82.958 58.6972 82.958 66.3454C82.958 73.9936 89.1581 80.1937 96.8063 80.1937Z" fill="white"/>
<path d="M60.4175 86.6543C60.4175 82.125 56.73 78.4375 52.2007 78.4375C47.6714 78.4375 43.9839 82.125 43.9839 86.6543C43.9839 89.2196 45.1463 91.9251 46.489 94.0695C47.1504 95.1316 47.932 96.1137 48.8338 96.9955C49.3148 97.4764 49.8359 97.9173 50.377 98.3382C50.5774 98.4985 52.0203 99.6809 52.2007 99.5807C56.5095 97.0556 60.4175 91.8449 60.4175 86.6543Z" fill="#D4484C"/>
<path d="M52.2006 91.8255C55.0562 91.8255 57.3712 89.5106 57.3712 86.655C57.3712 83.7993 55.0562 81.4844 52.2006 81.4844C49.345 81.4844 47.03 83.7993 47.03 86.655C47.03 89.5106 49.345 91.8255 52.2006 91.8255Z" fill="white"/>
</svg>
