<svg width="120" height="120" viewBox="0 0 120 120" fill="none" xmlns="http://www.w3.org/2000/svg">
<path d="M105.772 65.8802C105.772 82.4515 98.1441 97.2546 86.1987 106.959H19.5845C7.63921 97.2546 0.0114746 82.4515 0.0114746 65.8802C0.0114746 36.6645 23.676 13 52.8916 13C82.1073 13 105.772 36.6645 105.772 65.8802Z" fill="#E0E0E0"/>
<path d="M0.524278 106.075C-0.174759 106.034 -0.174759 105.705 0.524278 105.664C1.86067 105.582 3.21763 105.499 4.55403 105.417C6.85674 105.294 9.15945 105.17 11.4622 105.068C13.7649 104.965 16.0676 104.882 18.3703 104.8C19.5217 104.759 20.673 104.718 21.8244 104.697C22.9757 104.656 24.1271 104.636 25.2784 104.595C29.8839 104.471 34.4893 104.389 39.0947 104.327C43.7001 104.266 48.3056 104.245 52.911 104.245C57.5164 104.245 62.1218 104.266 66.7273 104.327C71.3327 104.389 75.9381 104.471 80.5435 104.595C81.6949 104.615 82.8463 104.656 83.9976 104.697C85.149 104.739 86.3003 104.759 87.4517 104.8C89.7544 104.882 92.0571 104.965 94.3598 105.068C96.6625 105.17 98.9652 105.273 101.268 105.417C102.625 105.499 103.961 105.582 105.318 105.664C106.017 105.705 106.017 106.034 105.318 106.075C103.961 106.157 102.625 106.239 101.268 106.322C98.9652 106.445 96.6625 106.568 94.3598 106.671C92.0571 106.774 89.7544 106.856 87.4517 106.938C86.3003 106.98 85.149 107.021 83.9976 107.041C82.8463 107.082 81.6949 107.103 80.5435 107.144C75.9381 107.267 71.3327 107.35 66.7273 107.411C62.1218 107.473 57.5164 107.494 52.911 107.494C48.3056 107.494 43.7001 107.473 39.0947 107.411C34.4893 107.35 29.8839 107.267 25.2784 107.144C24.1271 107.124 22.9757 107.082 21.8244 107.041C20.673 107 19.5217 106.98 18.3703 106.938C16.0676 106.856 13.7649 106.774 11.4622 106.671C9.15945 106.568 6.85674 106.466 4.55403 106.322C3.21763 106.239 1.88123 106.157 0.524278 106.075Z" fill="#ADADAD"/>
<path d="M113.73 75.6445H63.5842V103.956H113.73V75.6445Z" fill="white"/>
<path d="M115.785 105.992H61.5276V73.5898H115.785V105.992ZM65.6396 101.901H111.694V77.6813H65.6396V101.901Z" fill="#3F5F89"/>
<path d="M70.4709 60.9268L66.8318 81.3633H75.7548L77.6669 60.9268H70.4709Z" fill="white"/>
<path d="M84.8626 60.9248L84.657 81.3614H93.5183L92.0791 60.9248H84.8626Z" fill="white"/>
<path d="M63.2749 60.9248L57.8882 81.3614H66.8318L70.4709 60.9248H63.2749Z" fill="#D2484C"/>
<path d="M77.6665 60.9248L75.7544 81.3614H84.6568L84.8624 60.9248H77.6665Z" fill="#D2484C"/>
<path d="M106.512 60.9248H99.2952L102.379 81.3614H111.199L106.512 60.9248Z" fill="white"/>
<path d="M92.0789 60.9248L93.5181 81.3614H102.379L99.2954 60.9248H92.0789Z" fill="#D2484C"/>
<path d="M119.999 81.3614L113.749 60.9248H106.511L111.199 81.3614H119.999Z" fill="#D2484C"/>
<path d="M62.3291 85.8434C64.7758 85.8434 66.7701 83.8491 66.7701 81.3613H57.8882C57.8882 83.8491 59.8619 85.8434 62.3291 85.8434Z" fill="#923334"/>
<path d="M71.1909 85.8434C73.6376 85.8434 75.6319 83.8491 75.6319 81.3613H66.75C66.75 83.8491 68.7443 85.8434 71.1909 85.8434Z" fill="#B0B0B0"/>
<path d="M80.0718 85.8434C82.5184 85.8434 84.5128 83.8491 84.5128 81.3613H75.6309C75.6309 83.8491 77.6252 85.8434 80.0718 85.8434Z" fill="#923334"/>
<path d="M88.9326 85.8434C91.3792 85.8434 93.3735 83.8491 93.3735 81.3613H84.5122C84.5122 83.8491 86.486 85.8434 88.9326 85.8434Z" fill="#B0B0B0"/>
<path d="M97.8147 85.8434C100.261 85.8434 102.256 83.8491 102.256 81.3613H93.3738C93.3738 83.8491 95.3681 85.8434 97.8147 85.8434Z" fill="#923334"/>
<path d="M106.698 85.8434C109.144 85.8434 111.139 83.8491 111.139 81.3613H102.257C102.257 83.8491 104.231 85.8434 106.698 85.8434Z" fill="#B0B0B0"/>
<path d="M115.559 85.8434C118.006 85.8434 120 83.8491 120 81.3613H111.118C111.118 83.8491 113.112 85.8434 115.559 85.8434Z" fill="#923334"/>
<path d="M99.9339 94.6846H76.7217C74.8096 94.6846 73.2471 96.2471 73.2471 98.1592V103.957H103.408V98.1592C103.408 96.2266 101.866 94.6846 99.9339 94.6846Z" fill="#3F5F89"/>
<path d="M11.8132 73.7543L32.5993 52.9682L46.0044 66.3733L71.9099 40.4678" stroke="white" stroke-width="4.82471" stroke-linecap="round" stroke-linejoin="round"/>
<path d="M80.2367 32.1416C77.7695 37.5077 75.3845 44.8476 75.0145 50.5016L70.8202 41.5581L61.8972 37.3638C67.5306 36.9732 74.8705 34.6088 80.2367 32.1416Z" fill="white"/>
</svg>
