<svg width="121" height="120" viewBox="0 0 121 120" fill="none" xmlns="http://www.w3.org/2000/svg">
<rect x="0.635986" width="120" height="120" rx="60" fill="white"/>
<path d="M59.4427 79.0971H52.6654C52.4721 79.0971 52.3243 78.9492 52.3243 78.7559C52.3243 78.5854 52.4494 78.4489 52.6086 78.4262C52.6313 78.4262 52.6427 78.4262 52.6654 78.4262H59.4427V76.675H46.2179C45.1718 76.675 44.3303 75.8335 44.3303 74.7874V51.1238V49.2475V42.1291C44.3303 41.5264 44.6146 40.9806 45.0581 40.6395C45.3765 40.3893 45.7745 40.2415 46.2066 40.2415H66.6293C67.6755 40.2415 68.517 41.083 68.517 42.1291V60.8462H70.2113V40.1391C70.2113 40.0709 70.2113 39.9913 70.2113 39.9231C70.0976 37.7398 68.3009 36 66.0835 36H51.2213H48.424H46.7638C44.9102 36 43.341 37.2167 42.8179 38.8997C42.7952 38.9793 42.7724 39.0589 42.7497 39.1385C42.7042 39.309 42.6701 39.491 42.6587 39.6843C42.6474 39.7639 42.6474 39.8435 42.636 39.9117C42.636 39.9799 42.636 40.0482 42.636 40.1278V48.1104V49.8161V76.766C42.636 76.8342 42.636 76.9138 42.636 76.982C42.7497 79.1653 44.5464 80.9051 46.7638 80.9051H59.4313V79.0971H59.4427ZM52.6654 37.808H53.0293H60.1932C60.3865 37.808 60.5343 37.9559 60.5343 38.1492C60.5343 38.206 60.523 38.2629 60.5002 38.3084C60.4889 38.3311 60.4775 38.3425 60.4661 38.3539C60.4547 38.3652 60.4434 38.3766 60.432 38.388L60.4206 38.3993C60.4093 38.4107 60.3979 38.4221 60.3865 38.4221C60.3752 38.4221 60.3752 38.4335 60.3638 38.4335C60.3524 38.4448 60.341 38.4448 60.3297 38.4448C60.3183 38.4448 60.3069 38.4562 60.2955 38.4562C60.2842 38.4562 60.2842 38.4676 60.2728 38.4676C60.2501 38.4676 60.2273 38.4789 60.2046 38.4789H52.6654C52.4721 38.4789 52.3243 38.3311 52.3243 38.1378C52.3243 37.9445 52.4721 37.808 52.6654 37.808Z" fill="#F9CA47"/>
<path d="M56.1114 59.3096C56.1114 60.1397 54.2465 60.8106 51.9381 60.8106C49.6298 60.8106 47.7649 60.1397 47.7649 59.3096C47.7649 59.1391 47.8445 58.9799 47.9809 58.832C48.2084 58.9571 48.4472 59.0595 48.6746 59.1504C49.5616 59.4688 50.71 59.6394 51.9268 59.6394C53.405 59.6394 54.8947 59.3779 55.884 58.832C56.0432 58.9799 56.1114 59.1391 56.1114 59.3096Z" fill="#F9CA47"/>
<path d="M56.1114 57.2165C56.1114 57.3871 56.0318 57.5463 55.8953 57.6941C55.793 57.8078 55.6565 57.9102 55.4974 58.0011C55.3382 58.0921 55.1562 58.1831 54.9402 58.2513C54.1783 58.5356 53.1208 58.7061 51.9381 58.7061C50.7555 58.7061 49.698 58.5356 48.9361 58.2513C48.7315 58.1717 48.5381 58.0921 48.3789 57.9897C48.2084 57.8988 48.0833 57.7964 47.9809 57.6827C47.8445 57.5349 47.7649 57.3757 47.7649 57.2051C47.7649 57.0346 47.8445 56.8754 47.9809 56.7275C48.2084 56.8526 48.4472 56.955 48.6746 57.0346C48.8452 57.0914 49.0271 57.1483 49.209 57.2051C49.5729 57.3075 49.9823 57.3871 50.403 57.4326C50.892 57.5008 51.4037 57.5235 51.9268 57.5235C52.4385 57.5235 52.9616 57.4894 53.4505 57.4326C53.8713 57.3757 54.2693 57.3075 54.6445 57.2051C55.1107 57.08 55.5201 56.9209 55.8726 56.7275C56.0432 56.8867 56.1114 57.0573 56.1114 57.2165Z" fill="#F9CA47"/>
<path d="M56.1114 55.1358C56.1114 55.3064 56.0318 55.4656 55.8953 55.6134C55.793 55.7157 55.6565 55.8294 55.4974 55.9204C55.3382 56.0114 55.1562 56.1024 54.9402 56.1706C54.1783 56.4549 53.1208 56.6254 51.9381 56.6254C50.7555 56.6254 49.698 56.4549 48.9361 56.1706C48.7315 56.091 48.5381 56.0114 48.3789 55.9204C48.2197 55.8294 48.0833 55.7157 47.9809 55.6134C47.8445 55.4656 47.7649 55.3064 47.7649 55.1358C47.7649 54.9652 47.8445 54.806 47.9809 54.6582C48.2084 54.7833 48.4472 54.8856 48.6746 54.9652C48.8452 55.0221 49.0271 55.0789 49.209 55.1358C49.5843 55.2381 49.9823 55.3177 50.403 55.3632C50.892 55.4315 51.4037 55.4542 51.9268 55.4542C52.4385 55.4542 52.9616 55.4201 53.4505 55.3632C53.8713 55.3064 54.2693 55.2381 54.6445 55.1358C55.1107 55.0107 55.5201 54.8515 55.8726 54.6582C56.0432 54.806 56.1114 54.9652 56.1114 55.1358Z" fill="#F9CA47"/>
<path d="M56.1114 53.0547C56.1114 53.2253 56.0318 53.3845 55.8953 53.5323C55.793 53.646 55.6565 53.7484 55.4974 53.8394C55.3382 53.9303 55.1562 54.0213 54.9402 54.0895C54.1783 54.3738 53.1208 54.5444 51.9381 54.5444C50.7555 54.5444 49.698 54.3738 48.9361 54.0895C48.7315 54.0099 48.5381 53.9303 48.3789 53.8394C48.2084 53.7484 48.0833 53.6347 47.9809 53.5323C47.8445 53.3845 47.7649 53.2253 47.7649 53.0547C47.7649 52.8842 47.8445 52.725 47.9809 52.5771C48.2084 52.7022 48.4472 52.8046 48.6746 52.8955C48.8452 52.9524 49.0271 53.0093 49.209 53.0661C49.5729 53.1685 49.9823 53.2481 50.403 53.2935C50.892 53.3618 51.4037 53.3959 51.9268 53.3959C52.4385 53.3959 52.9616 53.3618 53.4619 53.3049C53.8826 53.248 54.2806 53.1798 54.6559 53.0775C55.1107 52.9524 55.5315 52.7932 55.884 52.5999C56.0432 52.725 56.1114 52.8842 56.1114 53.0547Z" fill="#F9CA47"/>
<path d="M65.5391 59.3096C65.5391 60.1397 63.6742 60.8106 61.3659 60.8106C59.0575 60.8106 57.1926 60.1397 57.1926 59.3096C57.1926 59.1391 57.2722 58.9799 57.4087 58.832C57.6361 58.9571 57.8749 59.0595 58.1023 59.1504C58.9893 59.4688 60.1378 59.6394 61.3545 59.6394C62.8328 59.6394 64.3338 59.3779 65.3117 58.832C65.4595 58.9799 65.5391 59.1391 65.5391 59.3096Z" fill="#F9CA47"/>
<path d="M65.5391 57.2169C65.5391 57.3874 65.4595 57.5466 65.3231 57.6944C65.2207 57.8082 65.0843 57.9105 64.9251 58.0015C64.7659 58.0924 64.5839 58.1834 64.3679 58.2516C63.606 58.5359 62.5485 58.7065 61.3659 58.7065C60.1833 58.7065 59.1257 58.5359 58.3639 58.2516C58.1592 58.172 57.9659 58.0924 57.8067 58.0015C57.6475 57.8991 57.511 57.7968 57.4087 57.6944C57.2722 57.5466 57.1926 57.3874 57.1926 57.2169C57.1926 57.0463 57.2722 56.8871 57.4087 56.7393C57.6361 56.8643 57.8749 56.9667 58.1023 57.0463C58.2729 57.1031 58.4435 57.16 58.6368 57.2169C59.0007 57.3192 59.41 57.3988 59.8308 57.4443C60.3197 57.5125 60.8314 57.5352 61.3545 57.5352C61.8662 57.5352 62.3893 57.5011 62.8783 57.4443C63.299 57.3874 63.697 57.3192 64.0722 57.2169C64.5385 57.0918 64.9478 56.9326 65.3003 56.7393C65.4595 56.8871 65.5391 57.0577 65.5391 57.2169Z" fill="#F9CA47"/>
<path d="M65.5391 55.1358C65.5391 55.3064 65.4595 55.4656 65.3231 55.6134C65.2207 55.7157 65.0843 55.8294 64.9251 55.9204C64.7659 56.0114 64.5839 56.1024 64.3679 56.1706C63.606 56.4549 62.5485 56.6254 61.3659 56.6254C60.1833 56.6254 59.1257 56.4549 58.3639 56.1706C58.1592 56.091 57.9659 56.0114 57.8067 55.9204C57.6361 55.8294 57.511 55.7157 57.4087 55.6134C57.2722 55.4656 57.1926 55.3064 57.1926 55.1358C57.1926 54.9652 57.2722 54.806 57.4087 54.6582C57.6361 54.7833 57.8749 54.8856 58.1023 54.9652C58.2729 55.0221 58.4435 55.0789 58.6368 55.1358C59.0007 55.2381 59.41 55.3177 59.8308 55.3632C60.3197 55.4315 60.8314 55.4542 61.3545 55.4542C61.8662 55.4542 62.3893 55.4201 62.8783 55.3632C63.299 55.3064 63.697 55.2381 64.0722 55.1358C64.5385 55.0107 64.9478 54.8515 65.3003 54.6582C65.4595 54.806 65.5391 54.9652 65.5391 55.1358Z" fill="#F9CA47"/>
<path d="M65.5391 53.0547C65.5391 53.2253 65.4595 53.3845 65.3231 53.5323C65.2207 53.646 65.0843 53.7484 64.9251 53.8393C64.7659 53.9303 64.5839 54.0213 64.3679 54.0895C63.606 54.3738 62.5485 54.5444 61.3659 54.5444C60.1833 54.5444 59.1257 54.3738 58.3639 54.0895C58.1592 54.0099 57.9659 53.9303 57.8067 53.8393C57.6475 53.7484 57.511 53.6346 57.4087 53.5323C57.2722 53.3845 57.1926 53.2253 57.1926 53.0547C57.1926 52.2246 59.0575 51.5537 61.3659 51.5537C63.6742 51.5537 65.5391 52.2246 65.5391 53.0547Z" fill="#F9CA47"/>
<path d="M56.1114 50.9626C56.1114 51.1332 56.0318 51.2924 55.8953 51.4402C55.793 51.5539 55.6565 51.6562 55.4974 51.7472C55.3382 51.8382 55.1562 51.9291 54.9402 51.9974C54.1783 52.2817 53.1208 52.4522 51.9381 52.4522C50.7555 52.4522 49.698 52.2817 48.9361 51.9974C48.7315 51.9178 48.5381 51.8382 48.3789 51.7358C48.2084 51.6449 48.0833 51.5425 47.9809 51.4288C47.8445 51.281 47.7649 51.1218 47.7649 50.9512C47.7649 50.7807 47.8445 50.6215 47.9809 50.4736C48.2084 50.5987 48.4472 50.7011 48.6746 50.7807C48.8452 50.8375 49.0271 50.8944 49.209 50.9512C49.5729 51.0536 49.9823 51.1332 50.403 51.1787C50.892 51.2469 51.4037 51.2696 51.9268 51.2696C52.4385 51.2696 52.9616 51.2355 53.4505 51.1787C53.8713 51.1218 54.2693 51.0536 54.6445 50.9512C55.1107 50.8261 55.5201 50.6669 55.8726 50.4736C56.0432 50.6328 56.1114 50.8034 56.1114 50.9626Z" fill="#F9CA47"/>
<path d="M56.1119 48.8828C56.1119 49.0534 56.0323 49.2126 55.8958 49.3604C55.7935 49.4628 55.657 49.5765 55.4978 49.6675C55.3386 49.7584 55.1567 49.8494 54.9406 49.9176C54.1788 50.2019 53.1212 50.3725 51.9386 50.3725C50.756 50.3725 49.6985 50.2019 48.9366 49.9176C48.7319 49.838 48.5386 49.7584 48.3794 49.6675C48.2202 49.5765 48.0838 49.4628 47.9814 49.3604C47.845 49.2126 47.7654 49.0534 47.7654 48.8828C47.7654 48.0527 49.6303 47.3818 51.9386 47.3818C54.247 47.3818 56.1119 48.0527 56.1119 48.8828Z" fill="#F9CA47"/>
<path d="M61.2847 62.8818V87.0003L63.3656 84.726L65.367 87.0003L67.4593 84.726L69.5061 87.0003L71.6894 84.726L73.5088 87.0003L75.6352 84.726L77.7161 87.0003V62.8818H61.2847ZM64.0934 67.6691H71.6211C71.8145 67.6691 71.9623 67.817 71.9623 68.0103C71.9623 68.2036 71.8145 68.3514 71.6211 68.3514H64.0934C63.9001 68.3514 63.7522 68.2036 63.7522 68.0103C63.7522 67.817 63.9001 67.6691 64.0934 67.6691ZM71.6211 79.4952H64.0934C63.9001 79.4952 63.7522 79.3474 63.7522 79.1541C63.7522 78.9608 63.9001 78.813 64.0934 78.813H71.6211C71.8145 78.813 71.9623 78.9608 71.9623 79.1541C71.9623 79.3474 71.8145 79.4952 71.6211 79.4952ZM74.6914 73.6845H64.0934C63.9001 73.6845 63.7522 73.5367 63.7522 73.3434C63.7522 73.1501 63.9001 73.0023 64.0934 73.0023H74.6914C74.8847 73.0023 75.0325 73.1501 75.0325 73.3434C75.0325 73.5367 74.8847 73.6845 74.6914 73.6845ZM74.6914 71.0123H64.0934C63.9001 71.0123 63.7522 70.8645 63.7522 70.6711C63.7522 70.4778 63.9001 70.33 64.0934 70.33H74.6914C74.8847 70.33 75.0325 70.4778 75.0325 70.6711C75.0325 70.8645 74.8847 71.0123 74.6914 71.0123Z" fill="#F9CA47"/>
<path d="M66.0553 71.7724C66.0553 73.284 66.0553 74.7957 66.0553 76.3074C66.0553 76.7541 66.0668 77.2007 66.0553 77.6473C66.0439 78.1512 65.7003 78.3459 65.2422 78.1398C65.1735 78.1054 65.1048 78.0711 65.0361 78.0367C64.0512 77.5443 63.0663 77.0518 62.0814 76.5594C61.8867 76.4563 61.6806 76.399 61.463 76.3647C60.8217 76.2616 60.3636 76.6853 60.4208 77.2923C60.4438 77.5214 60.5697 77.6931 60.7301 77.8535C62.6998 79.8118 64.6696 81.7816 66.6279 83.7513C67.2349 84.3583 67.8991 84.8736 68.7008 85.1943C70.4415 85.9043 72.1708 85.9731 73.8313 84.9653C75.4117 84.0033 76.2936 82.5718 76.3165 80.7051C76.3623 78.0252 76.3279 75.3454 76.3279 72.6656C76.3279 72.5855 76.3279 72.5167 76.3165 72.4366C76.2707 72.0014 75.9271 71.6807 75.4919 71.6578C74.9308 71.6349 74.5414 71.9785 74.5299 72.5511C74.5185 73.2611 74.5185 73.9597 74.5185 74.6698C74.5185 74.7957 74.5185 74.9217 74.4727 75.0477C74.3925 75.2653 74.2436 75.4027 74.0031 75.4027C73.7626 75.4027 73.5909 75.2653 73.5336 75.0248C73.5107 74.8988 73.4992 74.7728 73.4992 74.6468C73.4992 73.6276 73.4992 72.5969 73.4878 71.5777C73.4763 71.0623 73.0641 70.7073 72.5602 70.7188C72.0792 70.7302 71.7012 71.0967 71.7012 71.5891C71.6898 72.6084 71.7012 73.6162 71.6898 74.6354C71.6898 74.7614 71.6898 74.8873 71.6554 75.0133C71.5982 75.2538 71.4149 75.4027 71.1859 75.4027C70.9339 75.4027 70.7622 75.2653 70.7049 75.0133C70.682 74.8873 70.6705 74.7614 70.6705 74.6354C70.6705 73.4215 70.6705 72.1961 70.6705 70.9822C70.6705 70.8447 70.6705 70.6959 70.6591 70.5584C70.6018 70.0545 70.1323 69.711 69.6284 69.8026C69.1818 69.8827 68.8726 70.2149 68.8726 70.6729C68.8611 72.0014 68.8726 73.3299 68.8611 74.6583C68.8611 74.7843 68.8496 74.9103 68.8267 75.0362C68.7695 75.2767 68.5862 75.4256 68.3572 75.4256C68.1053 75.4256 67.9449 75.2882 67.8762 75.0362C67.8419 74.8988 67.8419 74.7728 67.8419 74.6354C67.8419 71.864 67.8419 69.0925 67.8419 66.3211C67.8419 66.1837 67.8419 66.0577 67.8304 65.9203C67.796 65.3591 67.2349 64.9698 66.6966 65.1301C66.2615 65.2561 66.0439 65.5767 66.0439 66.1035C66.0553 67.9702 66.0553 69.8713 66.0553 71.7724Z" fill="#F9CA47"/>
<path d="M55.8856 65.7716L50.9841 60.8701C50.8123 60.6983 50.8123 60.412 50.9841 60.2402L52.9424 58.2819C53.1142 58.1101 53.4005 58.1101 53.5723 58.2819L55.8741 60.5838C56.0459 60.7556 56.3322 60.7556 56.504 60.5838L62.9287 54.1591C63.1005 53.9873 63.3868 53.9873 63.5586 54.1591L65.5169 56.1174C65.6887 56.2892 65.6887 56.5755 65.5169 56.7473L56.504 65.7602C56.3437 65.9434 56.0688 65.9434 55.8856 65.7716Z" fill="#F9CA47"/>
<path d="M71.7013 74.6357C71.7013 74.7617 71.7013 74.8877 71.667 75.0137C71.6097 75.2542 71.4265 75.403 71.1975 75.403C70.9455 75.403 70.7737 75.2656 70.7165 75.0137C70.6936 74.8877 70.6821 74.7617 70.6821 74.6357C70.6821 73.4218 70.6821 72.1964 70.6821 70.9825C70.6821 70.8451 70.6821 70.6962 70.6707 70.5588C70.6363 70.261 70.4645 70.0205 70.2126 69.8945V77.0407C70.2126 78.0943 69.3651 78.9418 68.3115 78.9418H61.8181C63.2382 80.3618 64.6583 81.7819 66.0783 83.2134H67.7503C70.0522 83.2134 71.9075 81.3467 71.9075 79.0563V71.0169C71.7701 71.1657 71.6899 71.3719 71.6899 71.5895C71.7013 72.5973 71.7013 73.6165 71.7013 74.6357Z" fill="#F9CA47"/>
<path d="M67.7619 38H48.3046C46.0027 38 44.1475 39.8667 44.1475 42.1571V79.0561C44.1475 81.3579 46.0142 83.2132 48.3046 83.2132H63.2726C62.6427 82.5833 62.0129 81.9535 61.383 81.3236H54.2368C54.0421 81.3236 53.8933 81.1747 53.8933 80.98C53.8933 80.7853 54.0421 80.6365 54.2368 80.6365H60.7073C60.1576 80.0868 59.6079 79.5371 59.0582 78.9873C59.0467 78.9759 59.0238 78.953 59.0124 78.9415H47.7549C46.7013 78.9415 45.8538 78.0941 45.8538 77.0405V44.1613C45.8538 43.1077 46.7013 42.2602 47.7549 42.2602H68.323C69.3766 42.2602 70.2241 43.1077 70.2241 44.1613V67.9933C70.6936 68.0505 71.1288 68.2796 71.5182 68.6689C71.6785 68.8293 71.8045 69.024 71.8846 69.2301C71.8961 69.2644 71.9075 69.2874 71.9304 69.2988V42.1571C71.9304 39.8553 70.0637 38 67.7619 38ZM61.8296 40.4966H54.2483C54.0536 40.4966 53.9047 40.3477 53.9047 40.153C53.9047 39.9583 54.0536 39.8094 54.2483 39.8094H61.8296C62.0243 39.8094 62.1732 39.9583 62.1732 40.153C62.1732 40.3477 62.0243 40.4966 61.8296 40.4966Z" fill="#F9CA47"/>
</svg>
